<?xml version="1.0" encoding="UTF-8"?><svg id="Layer_2" xmlns="http://www.w3.org/2000/svg" xmlns:xlink="http://www.w3.org/1999/xlink" viewBox="0 0 490.22 309.75"><defs><style>.cls-1{fill:#fff;}.cls-2{fill:#ffd46b;}.cls-3{fill:url(#radial-gradient);}</style><radialGradient id="radial-gradient" cx="245.11" cy="108.96" fx="245.11" fy="108.96" r="244.45" gradientUnits="userSpaceOnUse"><stop offset=".02" stop-color="#f6e9a1"/><stop offset=".02" stop-color="#f5e89f"/><stop offset=".04" stop-color="#f3dc85"/><stop offset=".05" stop-color="#f0d26f"/><stop offset=".08" stop-color="#efcb5e"/><stop offset=".1" stop-color="#edc552"/><stop offset=".14" stop-color="#edc24b"/><stop offset=".25" stop-color="#edc24a"/><stop offset=".98" stop-color="#a8762f"/></radialGradient></defs><g id="Layer_1-2"><path class="cls-1" d="m85.36,19.61h-2.63v-7.54l-5.76-10.78h2.96l4.12,8.64,4.22-8.64h2.77l-5.68,10.78v7.54Z"/><path class="cls-1" d="m100.69,18.21c-1.06,1.17-2.45,1.76-4.17,1.76s-3.09-.58-4.12-1.73c-1.03-1.15-1.54-2.99-1.54-5.5s.54-4.36,1.6-5.53c1.07-1.17,2.46-1.75,4.18-1.75s3.09.58,4.1,1.73,1.52,2.99,1.52,5.5-.53,4.36-1.59,5.53Zm-4.09-10.72c-2.14,0-3.21,1.74-3.21,5.22s1.06,5.23,3.18,5.23c.88,0,1.63-.41,2.25-1.23.62-.82.93-2.19.93-4.11s-.27-3.25-.81-3.99c-.54-.74-1.32-1.11-2.34-1.11Z"/><path class="cls-1" d="m109.3,19.97c-1.5,0-2.54-.41-3.13-1.22-.58-.81-.88-1.98-.88-3.5V5.73h2.47v9.46c0,.91.12,1.59.36,2.02s.72.64,1.44.64,1.43-.11,2.11-.34c.68-.23,1.25-.54,1.69-.95V5.81h2.47v14.04h-2l-.28-1.48c-.53.44-1.18.81-1.95,1.12-.77.31-1.54.47-2.31.47Z"/><path class="cls-1" d="m128.26,19.97c-1.19,0-2.13-.35-2.84-1.04-.71-.7-1.06-1.63-1.06-2.8,0-.77.17-1.42.49-1.95.33-.53.76-.92,1.29-1.18.95-.46,1.95-.69,2.99-.69s2.01.05,2.91.14v-2.14c0-1.06-.18-1.79-.54-2.18-.36-.39-1.04-.59-2.04-.59s-2.2.25-3.59.74l-.57-1.73c.53-.33,1.23-.59,2.1-.8.87-.2,1.62-.3,2.26-.3,1.77,0,3.03.38,3.76,1.15s1.1,2.06,1.1,3.87v6.66c0,.64.22.96.66.96.29,0,.69-.08,1.21-.25l.41,1.54c-.62.4-1.43.6-2.42.6s-1.7-.47-2.14-1.4c-.4.38-.96.71-1.69.97-.72.27-1.49.4-2.29.4Zm.52-1.95c1.15,0,2.24-.33,3.27-.99v-3.18c-.44-.07-1.15-.11-2.14-.11-2.14,0-3.22.71-3.24,2.14,0,1.43.7,2.14,2.11,2.14Z"/><path class="cls-1" d="m141.12,19.61h-2.47V5.73h2.06l.27,2.06c.33-.55.87-1.07,1.63-1.58.76-.5,1.62-.75,2.59-.75.53,0,.93.05,1.21.14l-.49,1.97c-.17-.02-.4-.03-.71-.03-1.99,0-3.36.72-4.09,2.17v9.9Z"/><path class="cls-1" d="m153.33,19.97c-2.05,0-3.57-.7-4.57-2.1-1-1.4-1.5-3.15-1.5-5.27s.53-3.83,1.59-5.16c1.06-1.33,2.51-1.99,4.36-1.99,1.55,0,2.74.43,3.55,1.3.81.87,1.22,2.01,1.22,3.44,0,.64-.14,1.46-.41,2.47h-8.06c.04,1.55.37,2.82,1.02,3.79.64.97,1.59,1.45,2.87,1.45s2.47-.26,3.61-.77l.63,1.7c-1.31.75-2.75,1.12-4.31,1.12Zm2.41-9.3c0-.99-.2-1.76-.6-2.33-.4-.57-.96-.85-1.67-.85s-1.3.12-1.77.37c-.47.25-.83.56-1.08.95-.44.73-.71,1.41-.82,2.03l5.95.05v-.22Z"/><path class="cls-1" d="m172.47,20.02c-1.85,0-3.37-.61-4.58-1.82s-1.81-3.04-1.81-5.46.6-4.24,1.81-5.46,2.69-1.82,4.44-1.82c1.24,0,2.38.26,3.4.8l-.74,1.76c-.97-.31-1.84-.47-2.61-.47-1.08,0-1.98.41-2.7,1.23-.72.82-1.08,2.14-1.08,3.95,0,3.46,1.42,5.18,4.25,5.18.8,0,1.65-.12,2.55-.36l.41,1.81c-1.17.44-2.28.66-3.35.66Z"/><path class="cls-1" d="m187.42,18.21c-1.06,1.17-2.45,1.76-4.17,1.76s-3.09-.58-4.12-1.73c-1.03-1.15-1.54-2.99-1.54-5.5s.54-4.36,1.6-5.53c1.07-1.17,2.46-1.75,4.18-1.75s3.09.58,4.1,1.73,1.52,2.99,1.52,5.5-.53,4.36-1.59,5.53Zm-4.09-10.72c-2.14,0-3.21,1.74-3.21,5.22s1.06,5.23,3.18,5.23c.88,0,1.63-.41,2.25-1.23.62-.82.93-2.19.93-4.11s-.27-3.25-.81-3.99c-.54-.74-1.32-1.11-2.34-1.11Z"/><path class="cls-1" d="m194.6,19.61h-2.47V5.73h2.06l.27,2.06c.33-.55.87-1.07,1.63-1.58.76-.5,1.62-.75,2.59-.75.53,0,.93.05,1.21.14l-.49,1.97c-.17-.02-.4-.03-.71-.03-1.99,0-3.36.72-4.09,2.17v9.9Z"/><path class="cls-1" d="m200.85,12.95c0-4.99,2-7.49,6.01-7.49,1.01,0,1.88.21,2.63.63V.41h2.5v19.42h-1.95l-.36-1.34c-1.15.92-2.49,1.37-4.02,1.37s-2.71-.62-3.55-1.87c-.84-1.24-1.26-2.93-1.26-5.05Zm5.98-5.43c-2.29,0-3.43,1.8-3.43,5.4,0,3.31.93,4.96,2.8,4.96,1.33,0,2.43-.4,3.29-1.21v-8.67c-.77-.33-1.65-.49-2.66-.49Z"/><path class="cls-1" d="m215.17,1.65c0-.46.17-.84.49-1.17s.72-.48,1.18-.48.84.16,1.17.48c.32.32.48.71.48,1.17s-.16.85-.48,1.19c-.32.34-.71.51-1.17.51s-.85-.17-1.18-.51-.49-.74-.49-1.19Zm2.99,17.97h-2.5V5.84l2.5-.25v14.02Z"/><path class="cls-1" d="m224.82,19.97c-1.19,0-2.13-.35-2.84-1.04-.71-.7-1.06-1.63-1.06-2.8,0-.77.17-1.42.49-1.95.33-.53.76-.92,1.29-1.18.95-.46,1.95-.69,2.99-.69s2.01.05,2.91.14v-2.14c0-1.06-.18-1.79-.54-2.18-.36-.39-1.04-.59-2.04-.59s-2.2.25-3.59.74l-.57-1.73c.53-.33,1.23-.59,2.1-.8.87-.2,1.62-.3,2.26-.3,1.77,0,3.03.38,3.76,1.15s1.1,2.06,1.1,3.87v6.66c0,.64.22.96.66.96.29,0,.69-.08,1.21-.25l.41,1.54c-.62.4-1.43.6-2.42.6s-1.7-.47-2.14-1.4c-.4.38-.96.71-1.69.97-.72.27-1.49.4-2.29.4Zm.52-1.95c1.15,0,2.24-.33,3.27-.99v-3.18c-.44-.07-1.15-.11-2.14-.11-2.14,0-3.22.71-3.24,2.14,0,1.43.7,2.14,2.11,2.14Z"/><path class="cls-1" d="m235.25.41h2.5v16.4c0,.71.33,1.07.99,1.07.51,0,1.05-.09,1.62-.28l.41,1.81c-.75.37-1.67.55-2.77.55-1.83,0-2.74-1.04-2.74-3.13V.41Z"/><path class="cls-1" d="m242.54.41h2.5v16.4c0,.71.33,1.07.99,1.07.51,0,1.05-.09,1.62-.28l.41,1.81c-.75.37-1.67.55-2.77.55-1.83,0-2.74-1.04-2.74-3.13V.41Z"/><path class="cls-1" d="m249.07,23.53c1.01,0,1.82-.28,2.45-.85.63-.57,1.18-1.57,1.66-3.02l-5.07-13.77,2.61-.16,3.59,11.27,3.24-11.27h2.58l-4.55,13.6c-.71,2.16-1.54,3.71-2.48,4.65-.94.94-2.16,1.41-3.66,1.41-.6,0-1.22-.06-1.87-.19l.3-1.76c.29.05.7.08,1.21.08Z"/><path class="cls-1" d="m267.28,1.65c0-.46.17-.84.49-1.17s.72-.48,1.18-.48.84.16,1.17.48c.32.32.48.71.48,1.17s-.16.85-.48,1.19c-.32.34-.71.51-1.17.51s-.85-.17-1.18-.51-.49-.74-.49-1.19Zm2.99,17.97h-2.5V5.84l2.5-.25v14.02Z"/><path class="cls-1" d="m284.56,10.09v9.52h-2.47v-9.38c0-.84-.11-1.5-.33-1.97-.22-.47-.66-.71-1.33-.71s-1.39.18-2.17.53-1.39.79-1.82,1.3v10.23h-2.47V5.73h2.06l.27,1.67c.51-.49,1.2-.94,2.07-1.34.87-.4,1.7-.6,2.51-.6,1.37,0,2.33.41,2.87,1.22.54.81.81,1.95.81,3.42Z"/><path class="cls-1" d="m295.83,5.76h2.55l-4.44,13.85h-2.77l-4.42-13.88h2.66l3.15,11.41,3.26-11.38Z"/><path class="cls-1" d="m300.25,1.65c0-.46.17-.84.49-1.17s.72-.48,1.18-.48.84.16,1.17.48c.32.32.48.71.48,1.17s-.16.85-.48,1.19c-.32.34-.71.51-1.17.51s-.85-.17-1.18-.51-.49-.74-.49-1.19Zm2.99,17.97h-2.5V5.84l2.5-.25v14.02Z"/><path class="cls-1" d="m311.77,19.97c-1.42,0-2.37-.3-2.82-.89s-.68-1.61-.68-3.06V7.68l-2.72-.14.25-1.62,2.52-.19.25-3.29,2.22-.41v3.7h4.06l-.25,1.95h-3.84v8.59c0,.38.01.67.04.86.03.19.13.37.3.52.18.16.55.23,1.14.23s1.17-.1,1.76-.3l.47,1.84c-.86.37-1.76.55-2.69.55Z"/><path class="cls-1" d="m322.36,19.97c-2.05,0-3.57-.7-4.57-2.1-1-1.4-1.5-3.15-1.5-5.27s.53-3.83,1.59-5.16c1.06-1.33,2.51-1.99,4.36-1.99,1.55,0,2.74.43,3.55,1.3.81.87,1.22,2.01,1.22,3.44,0,.64-.14,1.46-.41,2.47h-8.06c.04,1.55.37,2.82,1.02,3.79.64.97,1.59,1.45,2.87,1.45s2.47-.26,3.61-.77l.63,1.7c-1.31.75-2.75,1.12-4.31,1.12Zm2.41-9.3c0-.99-.2-1.76-.6-2.33-.4-.57-.96-.85-1.67-.85s-1.3.12-1.77.37c-.47.25-.83.56-1.08.95-.44.73-.71,1.41-.82,2.03l5.95.05v-.22Z"/><path class="cls-1" d="m329.41,12.95c0-4.99,2-7.49,6.01-7.49,1.01,0,1.88.21,2.63.63V.41h2.5v19.42h-1.95l-.36-1.34c-1.15.92-2.49,1.37-4.02,1.37s-2.71-.62-3.55-1.87c-.84-1.24-1.26-2.93-1.26-5.05Zm5.98-5.43c-2.29,0-3.43,1.8-3.43,5.4,0,3.31.93,4.96,2.8,4.96,1.33,0,2.43-.4,3.29-1.21v-8.67c-.77-.33-1.65-.49-2.66-.49Z"/><path class="cls-1" d="m354.36,19.97c-1.42,0-2.37-.3-2.82-.89s-.68-1.61-.68-3.06V7.68l-2.72-.14.25-1.62,2.52-.19.25-3.29,2.22-.41v3.7h4.06l-.25,1.95h-3.84v8.59c0,.38.01.67.04.86.03.19.13.37.3.52.18.16.55.23,1.14.23s1.17-.1,1.76-.3l.47,1.84c-.86.37-1.76.55-2.69.55Z"/><path class="cls-1" d="m368.82,18.21c-1.06,1.17-2.45,1.76-4.17,1.76s-3.09-.58-4.12-1.73c-1.03-1.15-1.54-2.99-1.54-5.5s.54-4.36,1.6-5.53c1.07-1.17,2.46-1.75,4.18-1.75s3.09.58,4.1,1.73,1.52,2.99,1.52,5.5-.53,4.36-1.59,5.53Zm-4.09-10.72c-2.14,0-3.21,1.74-3.21,5.22s1.06,5.23,3.18,5.23c.88,0,1.63-.41,2.25-1.23.62-.82.93-2.19.93-4.11s-.27-3.25-.81-3.99c-.54-.74-1.32-1.11-2.34-1.11Z"/><path class="cls-1" d="m383.66,19.97c-1.42,0-2.37-.3-2.82-.89s-.68-1.61-.68-3.06V7.68l-2.72-.14.25-1.62,2.52-.19.25-3.29,2.22-.41v3.7h4.06l-.25,1.95h-3.84v8.59c0,.38.01.67.04.86.03.19.13.37.3.52.18.16.55.23,1.14.23s1.17-.1,1.76-.3l.47,1.84c-.86.37-1.76.55-2.69.55Z"/><path class="cls-1" d="m395.86,5.46c1.37,0,2.33.41,2.87,1.22.54.81.81,1.95.81,3.42v9.52h-2.47v-9.38c0-.84-.11-1.5-.33-1.97-.22-.47-.66-.71-1.33-.71s-1.38.17-2.14.52c-.76.35-1.36.79-1.8,1.32v10.23h-2.5V.44l2.5-.22v7.1c.53-.49,1.2-.93,2.02-1.3.81-.37,1.6-.56,2.37-.56Z"/><path class="cls-1" d="m408.59,19.97c-2.05,0-3.57-.7-4.57-2.1-1-1.4-1.5-3.15-1.5-5.27s.53-3.83,1.59-5.16c1.06-1.33,2.51-1.99,4.36-1.99,1.55,0,2.74.43,3.55,1.3.81.87,1.22,2.01,1.22,3.44,0,.64-.14,1.46-.41,2.47h-8.06c.04,1.55.37,2.82,1.02,3.79.64.97,1.59,1.45,2.87,1.45s2.47-.26,3.61-.77l.63,1.7c-1.31.75-2.75,1.12-4.31,1.12Zm2.41-9.3c0-.99-.2-1.76-.6-2.33-.4-.57-.96-.85-1.67-.85s-1.3.12-1.77.37c-.47.25-.83.56-1.08.95-.44.73-.71,1.41-.82,2.03l5.95.05v-.22Z"/><path class="cls-2" d="m41.95,46.69l.2-6.77c0-1.9-.19-3.25-.58-4.05-.39-.8-1.2-1.22-2.43-1.27-1.01-.04-1.52-.28-1.52-.71,0-.46.3-.69.89-.69.68,0,1.72.03,3.12.1,1.8.08,2.8.12,3.01.12,2.52,0,4.74-.06,6.64-.18.36-.03.61-.04.76-.04.56,0,.85.21.85.62,0,.46-.32.7-.96.71-1.04.02-1.78.16-2.22.42-.44.27-.74.68-.91,1.24-.17.56-.31,2.52-.41,5.89-.1,3.37-.16,5.69-.16,6.95,0,5.24.03,8.45.1,9.62.07,1.18.33,1.99.8,2.46.47.46,1.27.69,2.4.69.7,0,1.05.22,1.05.67,0,.39-.27.58-.8.58-.18,0-.56-.02-1.16-.07l-6.17-.22c-.37,0-1.09.03-2.14.09-2.02.13-3.33.2-3.92.2-.54,0-.8-.22-.8-.65,0-.39.22-.58.67-.58,1.06,0,1.84-.19,2.33-.56s.84-1.23,1.07-2.57c.22-1.34.33-4.01.33-8.01,0-.42-.01-1.04-.04-1.87-2.6-.07-4.91-.11-6.91-.11-2.3,0-4.13.08-5.47.22-.16,2.99-.24,5.69-.24,8.12,0,1.72.19,2.92.57,3.59s1.17,1.03,2.38,1.09c.58.03.87.25.87.65s-.3.62-.91.62c-.22,0-.55-.02-.98-.07-1.77-.16-3.63-.25-5.56-.25-.91,0-2.12.04-3.64.12-1.07.07-1.76.1-2.08.1-.77,0-1.16-.22-1.16-.67,0-.36.3-.57.91-.65,1.15-.12,1.92-.36,2.33-.74.41-.37.71-1.07.91-2.11.2-1.03.32-3.98.36-8.84.04-4.86.06-7.51.06-7.96,0-2.2-.08-3.79-.23-4.78-.16-.99-.42-1.65-.79-1.99-.37-.34-.94-.56-1.72-.65-.59-.09-.97-.17-1.12-.26s-.22-.26-.22-.52c0-.45.25-.67.76-.67.64,0,1.72.06,3.24.18.85.06,1.81.09,2.88.09l6.3-.22c.73,0,1.09.23,1.09.69s-.3.67-.89.67c-.98,0-1.66.12-2.03.36s-.65.71-.82,1.41c-.18.7-.27,2.06-.27,4.07l.04,6.35c1.89.19,3.92.29,6.11.29s4.26-.1,6.27-.29Z"/><path class="cls-2" d="m65.63,60.54c-.92.88-1.85,1.54-2.79,1.97-.94.44-1.88.66-2.83.66-1.52,0-2.69-.46-3.51-1.37-.82-.92-1.24-2.03-1.24-3.34,0-1.01.25-1.92.74-2.71.5-.8,1.11-1.41,1.85-1.85s1.95-.96,3.64-1.58c1.42-.51,2.38-.9,2.86-1.2.48-.29.89-.71,1.21-1.27s.49-1.28.49-2.17c0-.98-.24-1.76-.73-2.34-.49-.58-1.16-.88-2.02-.88-.74,0-1.27.19-1.58.56-.31.38-.55,1-.71,1.84-.34,1.69-1.26,2.53-2.74,2.53-.61,0-1.13-.18-1.56-.54-.43-.36-.65-.87-.65-1.54,0-1.43.78-2.49,2.33-3.2,1.55-.71,3.41-1.06,5.56-1.06,1.86,0,3.37.28,4.54.85,1.17.57,1.92,1.22,2.24,1.96.33.74.49,1.9.49,3.48l-.04,5.29c0,2.78.09,4.57.28,5.35.18.79.58,1.18,1.19,1.18.09,0,.21,0,.36-.02.3-.03.5-.04.6-.04.61,0,.91.17.91.51,0,.22-.13.41-.38.57s-1.01.35-2.29.59-2.42.36-3.45.36-1.73-.2-2.11-.59c-.38-.39-.61-1.06-.68-2Zm.29-8.94c-.36.43-1.21,1.01-2.57,1.72-1.24.66-2.06,1.24-2.48,1.74-.42.52-.62,1.27-.62,2.26,0,1.04.22,1.84.66,2.38.44.54.98.82,1.62.82.86,0,1.66-.4,2.41-1.2.74-.8,1.12-2.2,1.12-4.21,0-.63-.04-1.8-.13-3.51Z"/><path class="cls-2" d="m84.03,47.56c.74-1.5,1.6-2.62,2.57-3.37.97-.74,2.04-1.12,3.23-1.12s2.03.33,2.71.98c.68.65,1.01,1.47,1.01,2.45,0,.77-.24,1.43-.73,1.97-.48.54-1.07.81-1.77.81-.52,0-.95-.13-1.29-.4s-.71-.74-1.09-1.43c-.54-.98-1-1.47-1.4-1.47-.55,0-1.18.56-1.87,1.67-.7,1.11-1.05,3.27-1.05,6.48,0,4.05.14,6.31.41,6.76.27.45.88.68,1.82.68.82,0,1.23.22,1.23.67,0,.42-.4.62-1.21.62-.45,0-1.09-.04-1.94-.12-.77-.07-1.5-.1-2.19-.1-1.47,0-2.93.05-4.37.16-.61.04-.97.07-1.07.07-.63,0-.94-.23-.94-.7,0-.41.37-.63,1.09-.66.71-.03,1.21-.2,1.49-.5.28-.3.42-.97.42-1.99l.09-5.57c0-1.13-.04-2.53-.13-4.21-.09-1.68-.17-2.68-.25-3s-.26-.6-.57-.86c-.3-.25-.72-.4-1.24-.45-.54-.06-.87-.13-1.01-.21s-.21-.25-.21-.5c0-.4.37-.61,1.12-.62,1.37-.01,3.69-.19,6.98-.54l.16,4.48Z"/><path class="cls-2" d="m103.39,43.06c.06,2.08.09,5.79.09,11.13l-.07,4.8c0,.97.16,1.61.48,1.94.32.33.84.54,1.57.65.83.1,1.25.34,1.25.71,0,.4-.33.6-.98.6-.31,0-.85-.02-1.63-.07-1.64-.1-3.26-.16-4.86-.16-.79,0-1.59.04-2.41.12-.49.07-.82.1-1,.1-.65,0-.98-.2-.98-.6s.43-.62,1.29-.69c1.15-.1,1.78-.49,1.92-1.15.13-.66.2-2,.2-4.03,0-2.62-.04-5.02-.12-7.22-.08-2.19-.23-3.45-.46-3.76-.22-.31-.8-.52-1.74-.62-.73-.07-1.09-.29-1.09-.65s.37-.56,1.12-.62l.47-.05,6.96-.45Zm-.31-7.54c0,.88-.32,1.63-.95,2.26-.63.63-1.39.95-2.26.95s-1.65-.32-2.27-.95-.94-1.39-.94-2.26.31-1.65.94-2.28c.62-.62,1.38-.94,2.27-.94s1.63.31,2.26.94c.63.62.95,1.38.95,2.28Z"/><path class="cls-2" d="m137.32,47.7c2,.28,3.65.89,4.95,1.82,1.3.93,2.27,2.79,2.93,5.56.62,2.6,1.28,4.31,1.98,5.14s1.68,1.28,2.94,1.35c.7.04,1.05.27,1.05.67,0,.43-.56.65-1.69.65l-8.59-.22c-.89-.89-1.5-2.49-1.83-4.78-.42-2.93-.85-5-1.29-6.21-.45-1.21-1.12-2.07-2.01-2.59-.89-.52-1.93-.78-3.1-.78-.34,0-.81.02-1.41.07,0,5.23.02,8.46.06,9.67s.28,2.08.73,2.61c.45.53,1.29.82,2.54.88.67.04,1,.27,1,.67s-.29.6-.87.6l-6.85-.18c-.92,0-2.1.04-3.55.11-1.32.07-2.16.11-2.52.11-.61,0-.91-.22-.91-.65s.27-.62.8-.62c.83,0,1.6-.21,2.31-.62.71-.42,1.06-2.18,1.06-5.29l-.02-4.15.02-8.01c0-4.13-.18-6.66-.55-7.57-.37-.91-1.34-1.39-2.93-1.42-.62-.02-.94-.23-.94-.65s.42-.65,1.25-.65c4.19,0,7.75-.09,10.66-.27,1.29-.09,2.46-.13,3.5-.13,3.38,0,6.02.67,7.94,2.02s2.88,3.1,2.88,5.27c0,1.46-.45,2.77-1.36,3.93-.91,1.16-2.04,2.02-3.4,2.59-1.36.57-2.96.92-4.79,1.07Zm-6.07-.94c.39.02.68.02.87.02,1.29,0,2.6-.24,3.91-.73,1.32-.48,2.25-1.26,2.79-2.32.54-1.06.81-2.2.81-3.4,0-1.86-.55-3.31-1.65-4.35-1.1-1.04-2.52-1.56-4.26-1.56-.73,0-1.55.13-2.48.4v11.93Z"/><path class="cls-2" d="m164.44,60.54c-.92.88-1.85,1.54-2.79,1.97-.94.44-1.88.66-2.83.66-1.52,0-2.69-.46-3.51-1.37-.82-.92-1.24-2.03-1.24-3.34,0-1.01.25-1.92.74-2.71.5-.8,1.11-1.41,1.85-1.85s1.95-.96,3.64-1.58c1.42-.51,2.38-.9,2.86-1.2.48-.29.89-.71,1.21-1.27s.49-1.28.49-2.17c0-.98-.24-1.76-.73-2.34-.49-.58-1.16-.88-2.02-.88-.74,0-1.27.19-1.58.56-.31.38-.55,1-.71,1.84-.34,1.69-1.26,2.53-2.74,2.53-.61,0-1.13-.18-1.56-.54-.43-.36-.65-.87-.65-1.54,0-1.43.78-2.49,2.33-3.2,1.55-.71,3.41-1.06,5.56-1.06,1.86,0,3.37.28,4.54.85,1.17.57,1.92,1.22,2.24,1.96.33.74.49,1.9.49,3.48l-.04,5.29c0,2.78.09,4.57.28,5.35.18.79.58,1.18,1.19,1.18.09,0,.21,0,.36-.02.3-.03.5-.04.6-.04.61,0,.91.17.91.51,0,.22-.13.41-.38.57s-1.01.35-2.29.59-2.42.36-3.45.36-1.73-.2-2.11-.59c-.38-.39-.61-1.06-.68-2Zm.29-8.94c-.36.43-1.21,1.01-2.57,1.72-1.24.66-2.06,1.24-2.48,1.74-.42.52-.62,1.27-.62,2.26,0,1.04.22,1.84.66,2.38.44.54.98.82,1.62.82.86,0,1.66-.4,2.41-1.2.74-.8,1.12-2.2,1.12-4.21,0-.63-.04-1.8-.13-3.51Z"/><path class="cls-2" d="m185.93,57.7l1.83-5.06c.99-2.81,1.49-4.73,1.49-5.77,0-1.24-.7-1.95-2.1-2.14-.63-.1-.94-.32-.94-.65,0-.42.31-.62.92-.62.24,0,.67.04,1.3.11.66.07,1.43.11,2.32.11.6,0,1.32-.05,2.17-.13.71-.09,1.12-.13,1.23-.13.72,0,1.07.22,1.07.66,0,.25-.23.43-.7.55-1.15.31-2.01.96-2.56,1.92s-1.71,3.96-3.47,8.99c-2.29,6.53-3.96,10.9-4.99,13.1-1.03,2.2-2.18,3.77-3.44,4.71-1.26.94-2.6,1.41-4.03,1.41-1.28,0-2.28-.32-3-.95s-1.08-1.45-1.08-2.44c0-.64.26-1.25.77-1.82.51-.57,1.19-.86,2.02-.86,1.34,0,2.19.8,2.54,2.39.19.8.49,1.2.89,1.2,1.01,0,2.1-1.03,3.27-3.09,1.17-2.06,1.75-3.6,1.75-4.61,0-.51-.47-1.87-1.39-4.1-.93-2.22-2.18-5.11-3.74-8.65-1.57-3.54-2.57-5.58-3-6.1s-.93-.86-1.5-.99c-.58-.12-.88-.33-.88-.62,0-.43.38-.65,1.14-.65.18,0,.78.05,1.81.16.63.07,1.43.11,2.41.11,1.62,0,3.05-.06,4.27-.18l.96-.09c.6,0,.89.2.89.6s-.36.65-1.07.78c-.48.09-.85.29-1.12.61-.27.32-.4.63-.4.93,0,.33.4,1.56,1.19,3.71s1.85,4.69,3.16,7.61Z"/><path class="cls-2" d="m206.55,60.54c-.92.88-1.85,1.54-2.79,1.97-.94.44-1.88.66-2.83.66-1.52,0-2.69-.46-3.51-1.37-.82-.92-1.24-2.03-1.24-3.34,0-1.01.25-1.92.74-2.71.5-.8,1.11-1.41,1.85-1.85s1.95-.96,3.64-1.58c1.42-.51,2.38-.9,2.86-1.2.48-.29.89-.71,1.21-1.27s.49-1.28.49-2.17c0-.98-.24-1.76-.73-2.34-.49-.58-1.16-.88-2.02-.88-.74,0-1.27.19-1.58.56-.31.38-.55,1-.71,1.84-.34,1.69-1.26,2.53-2.74,2.53-.61,0-1.13-.18-1.56-.54-.43-.36-.65-.87-.65-1.54,0-1.43.78-2.49,2.33-3.2,1.55-.71,3.41-1.06,5.56-1.06,1.86,0,3.37.28,4.54.85,1.17.57,1.92,1.22,2.24,1.96.33.74.49,1.9.49,3.48l-.04,5.29c0,2.78.09,4.57.28,5.35.18.79.58,1.18,1.19,1.18.09,0,.21,0,.36-.02.3-.03.5-.04.6-.04.61,0,.91.17.91.51,0,.22-.13.41-.38.57s-1.01.35-2.29.59-2.42.36-3.45.36-1.73-.2-2.11-.59c-.38-.39-.61-1.06-.68-2Zm.29-8.94c-.36.43-1.21,1.01-2.57,1.72-1.24.66-2.06,1.24-2.48,1.74-.42.52-.62,1.27-.62,2.26,0,1.04.22,1.84.66,2.38.44.54.98.82,1.62.82.86,0,1.66-.4,2.41-1.2.74-.8,1.12-2.2,1.12-4.21,0-.63-.04-1.8-.13-3.51Z"/><path class="cls-2" d="m246.31,32.82c3,0,5.63.6,7.88,1.81,2.25,1.2,4.06,2.95,5.42,5.23,1.36,2.28,2.04,4.77,2.04,7.46,0,4.16-1.55,7.85-4.66,11.07-3.11,3.22-6.96,4.83-11.55,4.83-4.18,0-7.75-1.33-10.72-3.99-2.97-2.66-4.45-6.26-4.45-10.8,0-4.28,1.53-7.95,4.61-11.02,3.07-3.06,6.88-4.59,11.43-4.59Zm7.78,15.17c0-4.51-.77-7.9-2.3-10.17-1.53-2.28-3.47-3.41-5.82-3.41s-4.27,1.14-5.8,3.42c-1.53,2.28-2.3,5.67-2.3,10.16s.73,7.66,2.2,10.04,3.43,3.57,5.9,3.57c2.19,0,4.09-1.07,5.7-3.22,1.61-2.15,2.42-5.61,2.42-10.38Z"/><path class="cls-2" d="m272.28,45.98c.8-.91,1.66-1.6,2.57-2.06.91-.46,1.87-.69,2.88-.69,2.08,0,4.06.92,5.94,2.75s2.82,4.19,2.82,7.06c0,2.69-.93,5.02-2.8,6.99-1.87,1.97-4.08,2.96-6.62,2.96-.91,0-1.79-.13-2.64-.39s-1.67-.65-2.48-1.17c0,5.94.16,9.4.49,10.38s1.21,1.51,2.65,1.57c.52.02.78.22.78.6s-.35.6-1.05.6c-.4,0-1.02-.02-1.85-.06-1.74-.11-3.26-.16-4.55-.16-.88,0-1.94.05-3.19.16-.61.04-1,.07-1.16.07-.77,0-1.16-.19-1.16-.58,0-.36.42-.57,1.25-.65,1.35-.13,2.16-.96,2.43-2.49.27-1.52.4-6.73.4-15.62l-.13-7.27c0-1.41-.17-2.33-.51-2.74-.34-.42-.88-.66-1.62-.74-.56-.06-.84-.27-.84-.62,0-.43.32-.65.96-.65,2.63,0,5.1-.06,7.43-.18l.04,2.25c0,.09-.02.31-.04.67Zm7.92,7.86c0-2.7-.4-4.8-1.19-6.29-.8-1.49-1.83-2.24-3.11-2.24s-2.29.8-2.96,2.38c-.66,1.59-.99,3.98-.99,7.17,0,2.52.32,4.26.96,5.2.64.94,1.66,1.41,3.06,1.41s2.47-.64,3.18-1.92,1.06-3.18,1.06-5.72Z"/><path class="cls-2" d="m296.14,52.49c-.01.43-.02.74-.02.94,0,2.11.52,3.9,1.55,5.36,1.03,1.47,2.43,2.2,4.18,2.2s3.57-.78,5.31-2.34c.36-.31.61-.47.76-.47.39,0,.58.21.58.62,0,.33-.45.91-1.34,1.76-.89.85-1.98,1.49-3.28,1.92-1.29.43-2.63.65-4.02.65-3.03,0-5.41-.93-7.13-2.78-1.72-1.85-2.58-4.03-2.58-6.55,0-3.02.98-5.55,2.96-7.59,1.97-2.04,4.43-3.07,7.37-3.07,2.77,0,4.87.93,6.32,2.79s2.17,3.63,2.17,5.31c0,.54-.14.86-.42.96-.28.1-1.2.16-2.74.16l-9.68.13Zm.13-1.63c2.2.03,3.47.04,3.81.04,1.68,0,2.71-.12,3.09-.36s.57-.72.57-1.45c0-1.22-.35-2.3-1.05-3.23-.7-.94-1.53-1.4-2.5-1.4-2.29,0-3.6,2.13-3.92,6.4Z"/><path class="cls-2" d="m319.27,47.41c1.01-1.43,2.11-2.5,3.29-3.21s2.45-1.07,3.8-1.07c1.13,0,2.16.29,3.1.87.94.58,1.57,1.27,1.91,2.07.33.8.5,1.94.5,3.41l-.2,8.9c0,1.22.11,2.03.33,2.43.22.4.69.66,1.4.78.6.1.89.34.89.71s-.29.58-.87.58c-.49,0-1.57-.06-3.24-.18-.58-.03-1.05-.04-1.4-.04s-1.32.07-2.94.22h-1.09c-.61,0-.91-.2-.91-.6,0-.33.27-.54.82-.65.51-.1.91-.28,1.21-.51.3-.24.49-1.41.59-3.51.1-2.1.14-4.18.14-6.25,0-2.29-.18-3.86-.55-4.71s-1.06-1.27-2.09-1.27c-1.26,0-2.43.93-3.51,2.78-1.08,1.85-1.62,4.69-1.62,8.53,0,1.49.07,2.57.22,3.23s.33,1.09.55,1.26.67.32,1.37.43c.42.08.63.29.63.65,0,.42-.3.62-.91.62-.3,0-.62-.01-.98-.04-1.43-.12-2.2-.18-2.32-.18-2.14,0-3.9.07-5.26.22-.22.03-.4.04-.54.04-.55,0-.83-.22-.83-.65,0-.37.25-.59.74-.65.76-.09,1.27-.3,1.54-.63s.47-1.35.59-3.07c.13-1.72.19-3.77.19-6.15,0-3.04-.11-4.92-.33-5.64s-.76-1.25-1.61-1.57c-.61-.24-.91-.47-.91-.69,0-.36.44-.54,1.32-.54,2.47,0,4.47-.1,6-.29.57,1.29.89,2.74.98,4.35Z"/><path class="cls-2" d="m370.79,46.69l.2-6.77c0-1.9-.19-3.25-.58-4.05-.39-.8-1.2-1.22-2.43-1.27-1.01-.04-1.52-.28-1.52-.71,0-.46.3-.69.89-.69.68,0,1.72.03,3.12.1,1.8.08,2.8.12,3.01.12,2.52,0,4.74-.06,6.64-.18.36-.03.61-.04.76-.04.56,0,.85.21.85.62,0,.46-.32.7-.96.71-1.04.02-1.78.16-2.22.42-.44.27-.74.68-.91,1.24-.17.56-.31,2.52-.41,5.89-.1,3.37-.16,5.69-.16,6.95,0,5.24.03,8.45.1,9.62.07,1.18.33,1.99.8,2.46.47.46,1.27.69,2.4.69.7,0,1.05.22,1.05.67,0,.39-.27.58-.8.58-.18,0-.56-.02-1.16-.07l-6.17-.22c-.37,0-1.09.03-2.14.09-2.02.13-3.33.2-3.92.2-.54,0-.8-.22-.8-.65,0-.39.22-.58.67-.58,1.06,0,1.84-.19,2.33-.56s.84-1.23,1.07-2.57c.22-1.34.33-4.01.33-8.01,0-.42-.01-1.04-.04-1.87-2.6-.07-4.91-.11-6.91-.11-2.3,0-4.13.08-5.47.22-.16,2.99-.24,5.69-.24,8.12,0,1.72.19,2.92.57,3.59s1.17,1.03,2.38,1.09c.58.03.87.25.87.65s-.3.62-.91.62c-.22,0-.55-.02-.98-.07-1.77-.16-3.63-.25-5.56-.25-.91,0-2.12.04-3.64.12-1.07.07-1.76.1-2.08.1-.77,0-1.16-.22-1.16-.67,0-.36.3-.57.91-.65,1.15-.12,1.92-.36,2.33-.74.41-.37.71-1.07.91-2.11.2-1.03.32-3.98.36-8.84.04-4.86.06-7.51.06-7.96,0-2.2-.08-3.79-.23-4.78-.16-.99-.42-1.65-.79-1.99-.37-.34-.94-.56-1.72-.65-.59-.09-.97-.17-1.12-.26s-.22-.26-.22-.52c0-.45.25-.67.76-.67.64,0,1.72.06,3.24.18.85.06,1.81.09,2.88.09l6.3-.22c.73,0,1.09.23,1.09.69s-.3.67-.89.67c-.98,0-1.66.12-2.03.36s-.65.71-.82,1.41c-.18.7-.27,2.06-.27,4.07l.04,6.35c1.89.19,3.92.29,6.11.29s4.26-.1,6.27-.29Z"/><path class="cls-2" d="m405.16,52.58c0,2.74-1.02,5.17-3.05,7.29s-4.62,3.19-7.76,3.19c-2.89,0-5.31-.89-7.27-2.68s-2.94-4.16-2.94-7.14,1.04-5.46,3.11-7.33c2.07-1.87,4.6-2.8,7.57-2.8s5.5.88,7.44,2.64c1.94,1.76,2.91,4.03,2.91,6.81Zm-6.16,1.53c0-2.44-.41-4.65-1.22-6.62-.81-1.97-1.97-2.96-3.49-2.96-1.34,0-2.37.69-3.1,2.07-.73,1.38-1.09,3.31-1.09,5.8,0,2.71.41,4.93,1.24,6.67.82,1.73,1.96,2.6,3.4,2.6s2.48-.69,3.19-2.08c.71-1.38,1.07-3.21,1.07-5.47Z"/><path class="cls-2" d="m415.49,43.5c.07,1.53.11,3.62.11,6.27,0,4.01.04,6.58.11,7.71s.37,1.97.88,2.53c.51.56,1.1.85,1.75.85.77,0,1.56-.29,2.35-.87.8-.58,1.38-1.34,1.76-2.27s.57-2.47.57-4.59l.05-4.93c0-1.31-.07-2.17-.21-2.59-.14-.42-.62-.64-1.44-.67-.89-.05-1.34-.28-1.34-.69,0-.25.11-.41.32-.48.21-.07.78-.1,1.71-.1,2.07,0,3.99-.05,5.78-.16.06.58.09,3.75.09,9.52,0,4.64.05,7.17.13,7.59s.57.67,1.45.75c.52.06.78.27.78.65,0,.43-.3.65-.89.65-.12,0-.3,0-.56-.02-.42-.03-.91-.04-1.47-.04-1.98,0-3.07,0-3.28.02-.24.02-.44.02-.6.02-.28,0-.46-.05-.52-.15-.07-.1-.1-.38-.1-.86,0-.77.05-1.55.16-2.34-1.03,1.25-2.11,2.19-3.25,2.81-1.14.62-2.33.94-3.58.94-3.79,0-5.69-2.13-5.69-6.38v-6.89c0-2.38-.08-3.77-.26-4.18-.17-.41-.62-.67-1.35-.77-.66-.09-.98-.28-.98-.58,0-.4.29-.6.87-.6,3.98,0,6.2-.04,6.65-.13Z"/><path class="cls-2" d="m448.85,56.44c0,1.07-.28,2.11-.84,3.12-.56,1.01-1.4,1.85-2.52,2.51-1.12.66-2.43.99-3.94.99-1.87,0-3.46-.39-4.75-1.16-.57-.33-.93-.49-1.09-.49-.19,0-.34.12-.45.37-.24.58-.52.88-.85.88-.19,0-.33-.07-.41-.22-.08-.15-.15-.81-.2-1.99-.05-1.18-.08-2.58-.08-4.19,0-.62.18-.93.54-.93s.74.46,1.14,1.38c1.43,3.35,3.38,5.02,5.84,5.02.86,0,1.59-.22,2.2-.67.6-.45.9-1.09.9-1.94,0-.71-.28-1.33-.84-1.84-.56-.51-1.62-1.16-3.2-1.93-2.38-1.17-4.01-2.2-4.88-3.08-.89-.88-1.34-2.04-1.34-3.5,0-1.68.65-3.04,1.94-4.09,1.29-1.05,2.88-1.57,4.77-1.57,1.5,0,3.03.45,4.57,1.34.21.12.38.18.51.18.19,0,.34-.16.45-.49.15-.42.37-.62.65-.62.19,0,.33.07.4.2.07.13.18.83.31,2.08.13,1.26.2,2.3.2,3.13,0,.58-.17.87-.51.87-.36,0-.72-.42-1.09-1.25-1.26-2.77-3.09-4.15-5.46-4.15-.86,0-1.56.22-2.1.65-.54.43-.8.89-.8,1.38,0,.62.34,1.2,1.03,1.72.68.54,2.01,1.26,3.99,2.16,1.69.77,2.87,1.37,3.53,1.8.66.42,1.22,1.03,1.68,1.83s.69,1.63.69,2.51Z"/><path class="cls-2" d="m458.6,52.49c-.01.43-.02.74-.02.94,0,2.11.52,3.9,1.55,5.36,1.03,1.47,2.43,2.2,4.18,2.2s3.57-.78,5.31-2.34c.36-.31.61-.47.76-.47.39,0,.58.21.58.62,0,.33-.45.91-1.34,1.76-.89.85-1.98,1.49-3.28,1.92-1.29.43-2.63.65-4.02.65-3.03,0-5.41-.93-7.13-2.78-1.72-1.85-2.58-4.03-2.58-6.55,0-3.02.98-5.55,2.96-7.59,1.97-2.04,4.43-3.07,7.37-3.07,2.77,0,4.87.93,6.32,2.79s2.17,3.63,2.17,5.31c0,.54-.14.86-.42.96-.28.1-1.2.16-2.74.16l-9.68.13Zm.13-1.63c2.2.03,3.47.04,3.81.04,1.68,0,2.71-.12,3.09-.36s.57-.72.57-1.45c0-1.22-.35-2.3-1.05-3.23-.7-.94-1.53-1.4-2.5-1.4-2.29,0-3.6,2.13-3.92,6.4Z"/><path id="Divider" class="cls-3" d="m180.5,89.38c3.34-.52,6.39,1.56,7.51,4.66,1.01,2.66,2.27,5.25,4.87,6.86,2.62,1.52,5.05,1.48,6.9.42-.54,2.24-1.76,4.34-3.79,5.57-.88.54-1.88.93-2.96,1.11,3.88.75,7.48-1.38,9.78-4.43.33.65.76,1.27,1.31,1.87,3.72,4.23,10.55,4.92,15.14,1.78.52-.35,1-.76,1.42-1.19-.03.32-.07.64-.09.96-.03.93.06,1.87.26,2.78.23.89.53,1.79.98,2.59.44.82.98,1.59,1.62,2.25.63.67,1.37,1.26,2.15,1.74,1.58.95,3.43,1.49,5.22,1.51,1.8.04,3.55-.3,5.16-.95,1.59-.65,3.07-1.56,4.32-2.72.11-.1.22-.2.31-.3-.62,1.32-1.28,2.59-2.01,3.8-2.64,4.18-7.36,6.1-12.36,5.61,3.58,2.31,8.56,1.75,11.93-.78,3.43-2.56,4.96-6.74,5.98-10.71.63-2.54,1.03-5.13,1.01-7.77,0-.01,0-.02,0-.03v.04c-.02,2.63.39,5.22,1.03,7.75,1.03,3.96,2.57,8.14,6.01,10.7,3.38,2.51,8.36,3.05,11.93.74-5.01.5-9.73-1.39-12.38-5.58-.74-1.2-1.41-2.48-2.03-3.78.1.1.2.2.31.3,1.26,1.16,2.73,2.06,4.33,2.7,1.59.66,3.35.99,5.15.93,1.8-.02,3.63-.57,5.22-1.53.78-.49,1.51-1.06,2.14-1.75.64-.66,1.18-1.44,1.62-2.25.45-.81.74-1.7.97-2.6.2-.91.28-1.84.25-2.77-.02-.32-.06-.64-.1-.96.43.43.91.84,1.44,1.19,4.58,3.12,11.41,2.4,15.12-1.84.55-.6.97-1.23,1.31-1.89.87,1.18,1.91,2.22,3.13,3.01,1.96,1.3,4.4,1.82,6.65,1.41-1.08-.19-2.09-.56-2.96-1.09-2.04-1.23-3.27-3.33-3.81-5.56,1.86,1.05,4.27,1.08,6.89-.44,2.59-1.63,3.85-4.22,4.84-6.88,1.1-3.11,4.14-5.19,7.49-4.68,1.41.17,2.87.75,3.81,2.08-.17-.81-.63-1.57-1.24-2.15-3.23-3.01-8.51-2.21-11.23,1.07-.31-1.99-1.81-3.82-4.03-4.57-3.95-1.45-8.83-.03-10.83,3.93-2.16,4.62,1.32,10.19-2.39,14.16-.05-.88-.38-1.75-1.01-2.35-1.06-1.13-3.09-1.44-4.22-.34-.54.48-.81,1.2-.7,1.81.93-1.08,2.43-.97,3.14.12.6.95.22,2.1-.53,3.04-2.7,1.05-5.92.91-8.4-.48-2.63-1.49-4.24-4.08-5.25-6.9.27.22.56.42.87.6.81.45,1.68.71,2.52.83.85.1,1.67.1,2.49.09-.72-.41-1.48-.73-2.16-1.11-.68-.36-1.26-.82-1.74-1.3-.96-.99-1.5-2.27-1.63-3.54-.14-1.26.12-2.5.74-3.43.31-.48.69-.85,1.18-1.23.49-.35,1.03-.64,1.6-.84,1.12-.4,2.41-.39,3.6,0,1.19.38,2.24,1.14,2.82,2.17.3.51.46,1.1.52,1.73.04.57-.08,1.22-.35,1.8-.14.32-.34.62-.57.88-.17-.57-.51-1.08-1.03-1.46-1.4-.99-3.42-.51-4.17,1.16-.44.97-.24,2.16.46,2.94,1.25,1.38,3.34,1.19,4.35-.22.14-.19.24-.42.32-.63.96-.27,1.73-.92,2.28-1.67.56-.78.95-1.7,1.06-2.73.1-.97-.02-1.99-.39-2.94-.75-1.91-2.37-3.32-4.16-4.06-1.79-.75-3.88-.89-5.8-.31-.96.29-1.85.74-2.65,1.34-.79.58-1.52,1.39-2.03,2.29-1.03,1.82-1.2,3.96-.65,5.82.29,1,.78,1.93,1.42,2.72.1.71.24,1.41.41,2.11-.69-.61-1.46-1.12-2.28-1.52-.83-.4-1.7-.71-2.61-.88-.93-.16-1.85-.2-2.77-.1-.91.1-1.81.33-2.67.71l-.19.09c-.54.11-1.03.17-1.43.09-.92-.18-1.65-.68-2.03-1.53-.75-1.51-.15-3.85,1.48-4.6.26-.1.59-.12.94-.04-.21-.32-.54-.55-.93-.64-1.25-.31-2.48.54-3.22,1.44-1.39,1.68-1.29,4.36.17,6.01.77.8,1.59,1.21,2.4,1.36-.45.59-.8,1.27-.99,1.98-.28.92-.36,1.94-.11,2.92.24.98.81,1.88,1.58,2.5.38.32.82.54,1.25.73.44.17.9.29,1.35.33.84.1,1.67-.03,2.44-.32.08.06.14.13.23.2,1.41.98,3.43.47,4.15-1.2.42-1,.22-2.18-.51-2.95-1.25-1.35-3.33-1.14-4.34.29-.51.73-.61,1.65-.35,2.44-.45.04-.91.01-1.34-.12-1.27-.3-2.12-1.25-2.22-2.35-.07-.54.03-1.11.26-1.66.22-.53.56-1,.98-1.38.85-.75,2.09-1.16,3.35-1.22,2.5-.14,5,1.29,6.33,3.4.66,1.03,1.03,2.25,1.08,3.49.01.61-.03,1.24-.16,1.85-.15.6-.34,1.19-.65,1.73-1.13,2.23-3.45,3.77-6.04,3.93-2.6.22-5.41-.74-7.62-2.41-.27-.23-.55-.43-.8-.67l-.38-.36-.35-.37c-.47-.52-.9-1.11-1.3-1.71-.78-1.22-1.42-2.56-1.93-3.97-.37-1-.66-2.03-.91-3.08-1.08-4.71.57-9.65,4.31-12.72.03-.03.07-.07.11-.1.01-.01.01-.02,0-.03l-5.35-5.32-5.33,5.35h0s.08.07.12.1c3.75,3.05,5.41,7.99,4.34,12.71-.24,1.05-.52,2.09-.9,3.09-.51,1.41-1.13,2.75-1.92,3.98-.41.59-.83,1.19-1.29,1.71l-.35.38-.38.36c-.25.25-.53.45-.79.68-2.2,1.67-5.02,2.65-7.62,2.44-2.59-.16-4.9-1.69-6.05-3.92-.31-.53-.49-1.13-.65-1.73-.13-.6-.19-1.22-.17-1.84.05-1.24.42-2.46,1.08-3.5,1.31-2.12,3.81-3.55,6.31-3.42,1.26.04,2.5.45,3.36,1.2.43.37.76.84.99,1.37.24.54.32,1.13.26,1.67-.1,1.08-.95,2.05-2.21,2.35-.43.12-.89.16-1.33.11.26-.79.15-1.7-.37-2.44-.89-1.25-2.62-1.56-3.87-.67-1.26.89-1.56,2.61-.68,3.87.89,1.25,2.62,1.55,3.87.67.09-.06.16-.13.23-.2.77.3,1.61.42,2.44.32.44-.04.91-.17,1.35-.33.43-.19.87-.41,1.24-.74.77-.62,1.34-1.53,1.57-2.51.24-.98.16-2-.11-2.92-.21-.72-.56-1.39-1.02-2,1.36-.25,2.59-1.2,3.13-2.47.73-1.61.53-3.56-.56-4.89-.74-.9-1.98-1.74-3.22-1.44-.38.1-.72.34-.93.65.35-.07.68-.06.94.04,1.62.74,2.24,3.09,1.49,4.59-.38.86-1.1,1.36-2.02,1.54-.4.08-.89.02-1.44-.08l-.17-.09c-.87-.37-1.77-.6-2.69-.7-.91-.09-1.84-.06-2.76.11-.91.17-1.79.48-2.61.88-.83.41-1.59.93-2.27,1.53.17-.69.3-1.39.4-2.1.63-.8,1.12-1.73,1.41-2.74.54-1.86.37-4-.66-5.82-.52-.89-1.25-1.7-2.05-2.28-.8-.59-1.7-1.04-2.65-1.32-1.93-.58-4.02-.43-5.81.33-1.78.74-3.4,2.16-4.14,4.07-.37.94-.49,1.96-.38,2.93.11,1.02.5,1.95,1.07,2.73.56.74,1.33,1.39,2.28,1.66.09.21.19.43.33.63,1.02,1.4,3.11,1.59,4.34.21.72-.8.9-1.98.47-2.96-.75-1.66-2.77-2.14-4.17-1.14-.52.37-.86.89-1.03,1.46-.23-.26-.43-.56-.57-.88-.28-.59-.39-1.23-.35-1.8.06-.63.2-1.22.51-1.74.57-1.03,1.63-1.79,2.81-2.18,1.2-.39,2.48-.41,3.6-.01.57.2,1.12.48,1.61.84.49.37.87.74,1.18,1.22.63.93.88,2.17.75,3.43-.14,1.25-.67,2.54-1.62,3.53-.47.5-1.06.94-1.74,1.31-.67.39-1.43.71-2.15,1.11.83.01,1.64.01,2.49-.09.84-.12,1.72-.38,2.52-.85.31-.17.61-.37.87-.6-1,2.84-2.61,5.42-5.23,6.93-2.48,1.41-5.7,1.56-8.4.52-.75-.95-1.13-2.1-.54-3.05.69-1.11,2.22-1.21,3.14-.13.11-.62-.17-1.33-.71-1.82-1.13-1.1-3.16-.77-4.22.36-.63.6-.95,1.47-.99,2.35h-.01c-3.72-3.95-.25-9.54-2.44-14.14-2-3.95-6.89-5.36-10.84-3.9-2.24.75-3.72,2.6-4.02,4.59-2.74-3.28-8.02-4.06-11.24-1.03-.6.58-1.07,1.34-1.23,2.15.94-1.33,2.39-1.91,3.8-2.09Zm108.4,1.39c1.23-2.52,4.65-3.57,7.25-2.72,1,.34,2.05.99,2.47,1.97,1.17,2.5-1.93,5.17-4.35,4.6-1.31-.3-1.7-2.06-.88-3.08.8-1.17,3.32-1.34,3.59.38.09-.91-.79-1.62-1.64-1.74-3.55-.52-4.88,4.43-1.56,5.84,1.51.55,3.06.26,4.39-.47-.28.5-.6,1-.97,1.44-1.33,1.74-3.67,2.91-5.79,2.23-.13-.05-.25-.1-.36-.15-1.31-.61-2.2-1.84-2.48-3.24-.05-.21-.07-.43-.09-.65-.01-.07-.01-.16-.03-.24-.08-1.58-.04-3.07.45-4.16Zm-97.3-.57c.42-.98,1.46-1.64,2.46-1.98,2.61-.86,6.02.17,7.26,2.69.5,1.09.55,2.58.46,4.16,0,.07,0,.14-.02.22-.13,1.78-1.22,3.41-2.89,4.06-.02,0-.03.01-.04.01-2.12.69-4.46-.47-5.79-2.21-.38-.44-.69-.93-.98-1.44,1.33.73,2.88,1,4.4.45,3.3-1.42,1.97-6.36-1.58-5.84-.86.12-1.74.83-1.64,1.75.27-1.72,2.79-1.56,3.58-.39.84,1.03.45,2.8-.87,3.09-2.41.59-5.52-2.08-4.35-4.59Zm55.84,41.16c.23,1.25-.6,2.45-1.85,2.68-.1.02-.2.03-.29.04-1.43.1-2.68-1.27-2.39-2.71l2.24-12.43v.02s0-.02,0-.02l2.28,12.42Zm-86.31-32.54c1.15.01,2.07.93,2.06,2.04-.01,1.11-.96,2-2.11,1.99L0,100.84l161.08-2.01s.04,0,.05,0Zm168.01,4.02l161.08-2.01-161.08-2.01c-1.15-.01-2.1.87-2.11,1.99-.01,1.11.91,2.02,2.06,2.04h.05Z"/><path class="cls-1" d="m104.67,146.59c.73-.41,1.58-.61,2.55-.61s1.83.2,2.56.61c.73.41,1.31.97,1.71,1.67.8,1.38,1.21,3.07,1.21,5.06s-.41,3.63-1.23,5.04c-.42.72-1,1.28-1.74,1.69-.73.41-1.59.61-2.57.61s-1.83-.2-2.55-.61c-.72-.41-1.28-.97-1.69-1.67-.8-1.38-1.21-3.07-1.21-5.06s.42-3.66,1.25-5.06c.41-.71.98-1.26,1.7-1.67Zm-.06,10.73c.56,1.03,1.42,1.54,2.59,1.54s2.04-.51,2.59-1.54c.56-1.03.84-2.37.84-4.01s-.28-2.98-.84-4-1.42-1.53-2.59-1.53-2.04.51-2.59,1.53c-.56,1.02-.83,2.36-.83,4s.28,2.98.83,4.01Z"/><path class="cls-1" d="m116.2,148.9c0-1.35.29-2.32.87-2.91.58-.58,1.59-.88,3.05-.88.8,0,1.65.13,2.54.38l-.42,1.5c-.56-.14-1.26-.21-2.08-.21s-1.37.15-1.63.44c-.26.3-.39.83-.39,1.61v.85h2.9l-.21,1.5h-2.69v13.14l-1.93-.19v-12.95l-1.97-.11.19-1.25,1.78-.15v-.78Z"/><path class="cls-1" d="m133.38,156.75h-4.97l-1.21,3.64h-2.07l4.63-14.14h2.26l4.64,14.14h-2.05l-1.23-3.64Zm-.47-1.59l-2.03-6.98-2.01,6.98h4.04Z"/><path class="cls-1" d="m138.29,145.58h1.93v12.66c0,.55.25.83.76.83.39,0,.81-.07,1.25-.21l.32,1.4c-.58.28-1.29.42-2.14.42-1.41,0-2.12-.8-2.12-2.41v-12.68Z"/><path class="cls-1" d="m143.92,145.58h1.93v12.66c0,.55.25.83.76.83.39,0,.81-.07,1.25-.21l.32,1.4c-.58.28-1.29.42-2.14.42-1.41,0-2.12-.8-2.12-2.41v-12.68Z"/><path class="cls-1" d="m149.13,146.53c0-.35.13-.65.38-.9.25-.25.56-.37.91-.37s.65.12.9.37c.25.25.37.55.37.9s-.12.66-.37.92-.55.39-.9.39-.66-.13-.91-.39-.38-.57-.38-.92Zm2.31,13.86h-1.93v-10.63l1.93-.19v10.82Z"/><path class="cls-1" d="m158.47,160.67c-1.58,0-2.76-.54-3.52-1.62-.77-1.08-1.15-2.43-1.15-4.06s.41-2.96,1.23-3.98c.82-1.02,1.94-1.53,3.37-1.53,1.2,0,2.11.33,2.74,1.01s.94,1.56.94,2.66c0,.49-.11,1.13-.32,1.9h-6.22c.03,1.2.29,2.17.78,2.92.49.75,1.23,1.12,2.21,1.12s1.91-.2,2.78-.59l.49,1.31c-1.02.58-2.12.87-3.32.87Zm1.86-7.18c0-.76-.16-1.36-.47-1.8s-.74-.66-1.29-.66-1.01.1-1.37.29c-.36.19-.64.43-.84.73-.34.56-.55,1.09-.64,1.57l4.59.04v-.17Z"/><path class="cls-1" d="m163.9,155.25c0-3.85,1.55-5.78,4.64-5.78.78,0,1.45.16,2.03.49v-4.38h1.93v14.99h-1.5l-.27-1.04c-.89.71-1.92,1.06-3.1,1.06s-2.09-.48-2.74-1.44c-.65-.96-.97-2.26-.97-3.89Zm4.61-4.19c-1.76,0-2.65,1.39-2.65,4.17,0,2.55.72,3.83,2.16,3.83,1.03,0,1.88-.31,2.54-.93v-6.69c-.59-.25-1.28-.38-2.05-.38Z"/><path class="cls-1" d="m181.96,148.05h-3.68v-1.8h9.38v1.8h-3.68v12.34h-2.01v-12.34Z"/><path class="cls-1" d="m192.21,160.67c-1.58,0-2.76-.54-3.52-1.62-.77-1.08-1.15-2.43-1.15-4.06s.41-2.96,1.23-3.98c.82-1.02,1.94-1.53,3.37-1.53,1.2,0,2.11.33,2.74,1.01s.94,1.56.94,2.66c0,.49-.11,1.13-.32,1.9h-6.22c.03,1.2.29,2.17.78,2.92.49.75,1.23,1.12,2.21,1.12s1.91-.2,2.78-.59l.49,1.31c-1.02.58-2.12.87-3.32.87Zm1.86-7.18c0-.76-.16-1.36-.47-1.8s-.74-.66-1.29-.66-1.01.1-1.37.29c-.36.19-.64.43-.84.73-.34.56-.55,1.09-.64,1.57l4.59.04v-.17Z"/><path class="cls-1" d="m198.13,145.58h1.93v12.66c0,.55.25.83.76.83.39,0,.81-.07,1.25-.21l.32,1.4c-.58.28-1.29.42-2.14.42-1.41,0-2.12-.8-2.12-2.41v-12.68Z"/><path class="cls-1" d="m207.91,160.67c-1.58,0-2.76-.54-3.52-1.62-.77-1.08-1.15-2.43-1.15-4.06s.41-2.96,1.23-3.98c.82-1.02,1.94-1.53,3.37-1.53,1.2,0,2.11.33,2.74,1.01s.94,1.56.94,2.66c0,.49-.11,1.13-.32,1.9h-6.22c.03,1.2.29,2.17.78,2.92.49.75,1.23,1.12,2.21,1.12s1.91-.2,2.78-.59l.49,1.31c-1.02.58-2.12.87-3.32.87Zm1.86-7.18c0-.76-.16-1.36-.47-1.8s-.74-.66-1.29-.66-1.01.1-1.37.29c-.36.19-.64.43-.84.73-.34.56-.55,1.09-.64,1.57l4.59.04v-.17Z"/><path class="cls-1" d="m213.65,158.44c.93.41,1.78.61,2.56.61s1.34-.14,1.7-.43c.36-.29.54-.65.54-1.08s-.17-.79-.52-1.09c-.35-.3-.77-.53-1.26-.71-.49-.18-.99-.36-1.49-.56-.5-.2-.92-.51-1.27-.94-.35-.43-.52-.97-.52-1.62,0-.96.34-1.73,1.02-2.3.68-.57,1.59-.86,2.75-.86s2.09.2,2.79.61l-.45,1.42c-.82-.28-1.57-.42-2.26-.42s-1.21.13-1.54.38c-.34.25-.51.6-.51,1.03s.18.79.53,1.07c.35.28.78.51,1.28.68.5.17,1,.36,1.49.56.49.2.92.52,1.27.94s.53.95.53,1.59c0,.93-.34,1.72-1.04,2.37-.69.65-1.68.97-2.96.97-.59,0-1.19-.08-1.79-.23s-1.05-.34-1.34-.55l.49-1.44Z"/><path class="cls-1" d="m222.11,146.53c0-.35.13-.65.38-.9.25-.25.56-.37.91-.37s.65.12.9.37c.25.25.37.55.37.9s-.12.66-.37.92-.55.39-.9.39-.66-.13-.91-.39-.38-.57-.38-.92Zm2.31,13.86h-1.93v-10.63l1.93-.19v10.82Z"/><path class="cls-1" d="m227.11,158.44c.93.41,1.78.61,2.56.61s1.34-.14,1.7-.43c.36-.29.54-.65.54-1.08s-.17-.79-.52-1.09c-.35-.3-.77-.53-1.26-.71-.49-.18-.99-.36-1.49-.56-.5-.2-.92-.51-1.27-.94-.35-.43-.52-.97-.52-1.62,0-.96.34-1.73,1.02-2.3.68-.57,1.59-.86,2.75-.86s2.09.2,2.79.61l-.45,1.42c-.82-.28-1.57-.42-2.26-.42s-1.21.13-1.54.38c-.34.25-.51.6-.51,1.03s.18.79.53,1.07c.35.28.78.51,1.28.68.5.17,1,.36,1.49.56.49.2.92.52,1.27.94s.53.95.53,1.59c0,.93-.34,1.72-1.04,2.37-.69.65-1.68.97-2.96.97-.59,0-1.19-.08-1.79-.23s-1.05-.34-1.34-.55l.49-1.44Z"/><path class="cls-1" d="m251.85,149.47c0-.3,0-.59.02-.89l-3.85,10.27h-1.61l-3.85-10.27c.01.3.02.59.02.89s0,.59-.02.89l-.34,10.03h-1.86l.66-14.14h2.35l3.85,10.48,3.85-10.48h2.35l.66,14.14h-1.86l-.34-10.03c-.01-.3-.02-.59-.02-.89Z"/><path class="cls-1" d="m259.17,160.67c-.92,0-1.65-.27-2.19-.8s-.81-1.26-.81-2.16c0-.59.13-1.09.38-1.5s.58-.71.99-.91c.73-.35,1.5-.53,2.31-.53s1.55.04,2.24.11v-1.65c0-.82-.14-1.38-.41-1.68-.27-.3-.8-.46-1.58-.46s-1.7.19-2.77.57l-.44-1.33c.41-.25.95-.46,1.62-.61s1.25-.23,1.75-.23c1.37,0,2.34.3,2.9.89s.85,1.59.85,2.98v5.14c0,.49.17.74.51.74.23,0,.54-.06.93-.19l.32,1.18c-.48.31-1.1.47-1.86.47s-1.31-.36-1.65-1.08c-.31.3-.74.55-1.3.75-.56.2-1.15.31-1.77.31Zm.4-1.5c.89,0,1.73-.25,2.52-.76v-2.46c-.34-.06-.89-.08-1.65-.08-1.65,0-2.48.55-2.5,1.65,0,1.1.54,1.65,1.63,1.65Z"/><path class="cls-1" d="m267.22,145.58h1.93v12.66c0,.55.25.83.76.83.39,0,.81-.07,1.25-.21l.32,1.4c-.58.28-1.29.42-2.14.42-1.41,0-2.12-.8-2.12-2.41v-12.68Z"/><path class="cls-1" d="m275.11,160.67c-.92,0-1.65-.27-2.19-.8s-.81-1.26-.81-2.16c0-.59.13-1.09.38-1.5s.58-.71.99-.91c.73-.35,1.5-.53,2.31-.53s1.55.04,2.24.11v-1.65c0-.82-.14-1.38-.41-1.68-.27-.3-.8-.46-1.58-.46s-1.7.19-2.77.57l-.44-1.33c.41-.25.95-.46,1.62-.61s1.25-.23,1.75-.23c1.37,0,2.34.3,2.9.89s.85,1.59.85,2.98v5.14c0,.49.17.74.51.74.23,0,.54-.06.93-.19l.32,1.18c-.48.31-1.1.47-1.86.47s-1.31-.36-1.65-1.08c-.31.3-.74.55-1.3.75-.56.2-1.15.31-1.77.31Zm.4-1.5c.89,0,1.73-.25,2.52-.76v-2.46c-.34-.06-.89-.08-1.65-.08-1.65,0-2.48.55-2.5,1.65,0,1.1.54,1.65,1.63,1.65Z"/><path class="cls-1" d="m282.54,163.42c.78,0,1.41-.22,1.89-.66s.91-1.21,1.28-2.33l-3.92-10.63,2.01-.13,2.77,8.7,2.5-8.7h1.99l-3.51,10.5c-.55,1.66-1.19,2.86-1.92,3.59-.73.73-1.67,1.09-2.83,1.09-.47,0-.95-.05-1.44-.15l.23-1.35c.23.04.54.06.93.06Z"/><path class="cls-1" d="m292.66,158.44c.93.41,1.78.61,2.56.61s1.34-.14,1.7-.43c.36-.29.54-.65.54-1.08s-.17-.79-.52-1.09c-.35-.3-.77-.53-1.26-.71-.49-.18-.99-.36-1.49-.56-.5-.2-.92-.51-1.27-.94-.35-.43-.52-.97-.52-1.62,0-.96.34-1.73,1.02-2.3.68-.57,1.59-.86,2.75-.86s2.09.2,2.79.61l-.45,1.42c-.82-.28-1.57-.42-2.26-.42s-1.21.13-1.54.38c-.34.25-.51.6-.51,1.03s.18.79.53,1.07c.35.28.78.51,1.28.68.5.17,1,.36,1.49.56.49.2.92.52,1.27.94s.53.95.53,1.59c0,.93-.34,1.72-1.04,2.37-.69.65-1.68.97-2.96.97-.59,0-1.19-.08-1.79-.23s-1.05-.34-1.34-.55l.49-1.44Z"/><path class="cls-1" d="m301.13,146.53c0-.35.13-.65.38-.9.25-.25.56-.37.91-.37s.65.12.9.37c.25.25.37.55.37.9s-.12.66-.37.92-.55.39-.9.39-.66-.13-.91-.39-.38-.57-.38-.92Zm2.31,13.86h-1.93v-10.63l1.93-.19v10.82Z"/><path class="cls-1" d="m308.58,160.67c-.92,0-1.65-.27-2.19-.8s-.81-1.26-.81-2.16c0-.59.13-1.09.38-1.5s.58-.71.99-.91c.73-.35,1.5-.53,2.31-.53s1.55.04,2.24.11v-1.65c0-.82-.14-1.38-.41-1.68-.27-.3-.8-.46-1.58-.46s-1.7.19-2.77.57l-.44-1.33c.41-.25.95-.46,1.62-.61s1.25-.23,1.75-.23c1.37,0,2.34.3,2.9.89s.85,1.59.85,2.98v5.14c0,.49.17.74.51.74.23,0,.54-.06.93-.19l.32,1.18c-.48.31-1.1.47-1.86.47s-1.31-.36-1.65-1.08c-.31.3-.74.55-1.3.75-.56.2-1.15.31-1.77.31Zm.4-1.5c.89,0,1.73-.25,2.52-.76v-2.46c-.34-.06-.89-.08-1.65-.08-1.65,0-2.48.55-2.5,1.65,0,1.1.54,1.65,1.63,1.65Z"/><path class="cls-1" d="m329.15,156.7c0,1.15-.41,2.1-1.23,2.85s-1.9,1.12-3.24,1.12c-.72,0-1.49-.08-2.3-.23-.81-.16-1.46-.35-1.96-.59l.55-1.8c1.38.55,2.53.83,3.45.83s1.61-.2,2.07-.6c.47-.4.7-.91.7-1.53s-.25-1.15-.76-1.59c-.51-.44-1.17-.86-1.98-1.26-.81-.4-1.36-.69-1.64-.86-.28-.17-.61-.42-.97-.76-.71-.61-1.06-1.48-1.06-2.62s.4-2.04,1.21-2.69c.8-.65,1.79-.97,2.95-.97s2.36.23,3.59.68l-.55,1.69c-1.07-.38-2.02-.57-2.85-.57s-1.43.17-1.82.5c-.39.33-.58.77-.58,1.3s.23.99.68,1.37,1.04.76,1.78,1.14c.73.39,1.27.69,1.62.92.34.23.72.52,1.13.87.8.73,1.21,1.68,1.21,2.83Z"/><path class="cls-1" d="m330.95,155.25c0-3.85,1.55-5.78,4.64-5.78.78,0,1.45.16,2.03.49v-4.38h1.93v14.99h-1.5l-.27-1.04c-.89.71-1.92,1.06-3.1,1.06s-2.09-.48-2.74-1.44c-.65-.96-.97-2.26-.97-3.89Zm4.61-4.19c-1.76,0-2.65,1.39-2.65,4.17,0,2.55.72,3.83,2.16,3.83,1.03,0,1.88-.31,2.54-.93v-6.69c-.59-.25-1.28-.38-2.05-.38Z"/><path class="cls-1" d="m350.57,153.05v7.34h-1.91v-7.24c0-.65-.08-1.16-.25-1.52-.17-.37-.51-.55-1.03-.55s-1.07.14-1.67.41c-.6.28-1.07.61-1.41,1.01v7.89h-1.9v-10.71h1.59l.21,1.29c.4-.38.93-.73,1.6-1.04.67-.31,1.32-.47,1.94-.47,1.06,0,1.79.31,2.21.94s.63,1.51.63,2.64Z"/><path class="cls-1" d="m366.17,149.83c0,1.31-.54,2.26-1.63,2.84.9.34,1.54.79,1.92,1.36.37.57.56,1.32.56,2.23,0,1.28-.39,2.29-1.16,3.03-.78.73-1.94,1.1-3.49,1.1h-4.3v-14.14h2.6c.83,0,1.44,0,1.82.02,2.45.08,3.68,1.27,3.68,3.56Zm-6.07-2.05v4.23h2.08c.62-.04,1.1-.26,1.44-.65.34-.39.51-.85.51-1.38s-.05-.92-.16-1.17c-.1-.25-.23-.45-.38-.59s-.37-.25-.67-.32c-.45-.08-1.06-.13-1.82-.13h-1Zm1.86,10.9c2,0,3.01-.83,3.01-2.5,0-.85-.28-1.49-.85-1.93-.45-.45-1.26-.68-2.41-.68h-1.61v5.1h1.86Z"/><path class="cls-1" d="m374.72,149.47c1.06,0,1.8.31,2.21.94.42.63.63,1.51.63,2.64v7.34h-1.91v-7.24c0-.65-.08-1.16-.25-1.52-.17-.37-.51-.55-1.03-.55s-1.06.13-1.65.4c-.58.27-1.05.61-1.39,1.02v7.89h-1.93v-14.8l1.93-.17v5.48c.41-.38.93-.72,1.55-1.01.63-.29,1.24-.43,1.83-.43Z"/><path class="cls-1" d="m379.91,155.25c0-3.85,1.55-5.78,4.64-5.78.78,0,1.45.16,2.03.49v-4.38h1.93v14.99h-1.5l-.27-1.04c-.89.71-1.92,1.06-3.1,1.06s-2.09-.48-2.74-1.44c-.65-.96-.97-2.26-.97-3.89Zm4.61-4.19c-1.76,0-2.65,1.39-2.65,4.17,0,2.55.72,3.83,2.16,3.83,1.03,0,1.88-.31,2.54-.93v-6.69c-.59-.25-1.28-.38-2.05-.38Z"/><path class="cls-1" d="m90.24,203.11h-4.07v-15.8h4.07c2.02,0,3.42.21,4.21.64,2.02,1.03,3.03,3.45,3.03,7.27s-1.01,6.25-3.03,7.27c-.77.41-2.18.62-4.21.62Zm-1.8-13.89v11.97h1.96c1.86,0,3.12-.48,3.78-1.44s.99-2.48.99-4.54-.33-3.58-.99-4.54-1.92-1.44-3.78-1.44h-1.96Z"/><path class="cls-1" d="m102.78,203.42c-1.03,0-1.84-.3-2.45-.9s-.91-1.4-.91-2.41c0-.66.14-1.22.43-1.68.28-.46.65-.8,1.11-1.02.82-.39,1.68-.59,2.58-.59s1.73.04,2.51.12v-1.85c0-.91-.15-1.54-.46-1.88-.31-.34-.9-.51-1.76-.51s-1.9.21-3.1.64l-.5-1.49c.46-.28,1.06-.51,1.81-.69.75-.17,1.4-.26,1.95-.26,1.53,0,2.61.33,3.24.99s.95,1.77.95,3.34v5.75c0,.55.19.83.57.83.25,0,.6-.07,1.04-.21l.36,1.32c-.54.35-1.23.52-2.08.52s-1.47-.4-1.85-1.21c-.35.33-.83.61-1.46.84-.62.23-1.28.34-1.97.34Zm.45-1.68c.99,0,1.93-.28,2.82-.85v-2.74c-.38-.06-.99-.09-1.85-.09-1.85,0-2.78.62-2.79,1.85,0,1.23.61,1.85,1.82,1.85Z"/><path class="cls-1" d="m115.82,203.42c-1.23,0-2.04-.26-2.44-.77-.4-.51-.59-1.39-.59-2.64v-7.19l-2.34-.12.21-1.4,2.18-.17.21-2.84,1.92-.35v3.19h3.5l-.21,1.68h-3.31v7.41c0,.33.01.58.03.75s.11.32.26.45c.15.13.48.2.98.2s1.01-.09,1.51-.26l.4,1.59c-.74.32-1.51.47-2.32.47Z"/><path class="cls-1" d="m124.95,203.42c-1.77,0-3.08-.6-3.94-1.81-.86-1.21-1.29-2.72-1.29-4.54s.46-3.3,1.37-4.45c.91-1.14,2.17-1.72,3.76-1.72,1.34,0,2.36.37,3.06,1.12.7.75,1.05,1.74,1.05,2.97,0,.55-.12,1.26-.35,2.13h-6.96c.03,1.34.32,2.43.87,3.26.55.84,1.38,1.25,2.47,1.25s2.13-.22,3.11-.66l.54,1.47c-1.13.65-2.37.97-3.71.97Zm2.08-8.02c0-.85-.17-1.52-.52-2.01-.35-.49-.83-.73-1.44-.73s-1.12.11-1.53.32-.71.48-.93.82c-.38.63-.61,1.21-.71,1.75l5.13.05v-.19Z"/><path class="cls-1" d="m136.83,200.75c.28-.28.62-.41,1.02-.41s.73.14,1.02.41c.28.28.43.61.43,1.02s-.14.75-.43,1.04c-.28.29-.62.44-1.02.44s-.73-.15-1.02-.44-.43-.64-.43-1.04.14-.74.43-1.02Zm.02-7.1c.28-.28.62-.41,1.02-.41s.73.14,1.02.41c.28.28.43.62.43,1.02s-.14.75-.43,1.04c-.28.29-.62.44-1.02.44s-.73-.15-1.02-.44c-.28-.29-.43-.64-.43-1.04s.14-.74.43-1.02Z"/><path class="cls-1" d="m153.17,203.08h-3.29v-12.66l-2.91,1.25-1.04-2.34,4.68-2.03h2.55v15.78Z"/><path class="cls-1" d="m163.43,203.01c-.65.27-1.52.4-2.59.4s-1.99-.23-2.74-.69c-1.59-.98-2.39-3.47-2.39-7.48s.83-6.5,2.48-7.52c.77-.49,1.77-.73,3-.73,1.85,0,3.21.6,4.08,1.8.88,1.2,1.31,3.33,1.31,6.39s-.48,5.29-1.44,6.51c-.49.62-1.06,1.06-1.72,1.33Zm-.57-12.03c-.34-.78-.91-1.17-1.72-1.17s-1.38.39-1.71,1.17c-.34.78-.51,2.19-.51,4.23s.17,3.45.51,4.24c.34.78.91,1.17,1.71,1.17s1.38-.39,1.72-1.17c.34-.78.51-2.19.51-4.24s-.17-3.45-.51-4.23Z"/><path class="cls-1" d="m169.05,192.95v-3.46l-1.24-.08v-1.13l1.28-.11v-1.61l1.93-.17v1.77h2.01l-.11,1.34h-1.92v3.64c0,.27.04.46.12.57.08.12.26.17.52.17s.57-.04.9-.12l.29,1.37c-.45.19-.91.29-1.37.29s-.81-.03-1.05-.08c-.23-.06-.43-.12-.58-.19-.15-.07-.28-.18-.39-.32-.11-.14-.18-.27-.24-.38-.05-.11-.09-.27-.12-.47-.04-.28-.06-.61-.06-1.01Z"/><path class="cls-1" d="m176.81,188.25c.38-.15.76-.22,1.14-.22s.72.06,1.01.17.5.29.65.52c.27.41.4.97.4,1.67v4.84h-2.01v-4.5c0-.59-.12-.94-.37-1.05-.12-.06-.28-.08-.48-.08-.52,0-.95.17-1.31.51v5.12h-1.93v-9.61l1.93-.12v3.3c.28-.21.6-.39.98-.54Z"/><path class="cls-1" d="m195.46,201.1h-2.48l-3.26-9.32-.38,11.33h-3.15l.92-15.8h3.69l3.41,10.17,3.43-10.17h3.69l.92,15.8h-3.17l-.38-11.31-3.24,9.3Z"/><path class="cls-1" d="m215.54,202.71c-.8.44-1.68.66-2.64.66s-1.66-.36-2.12-1.09c-.92.76-1.99,1.14-3.22,1.14s-2.16-.31-2.79-.93c-.63-.62-.95-1.47-.95-2.54,0-.71.15-1.32.45-1.82s.69-.88,1.16-1.11c.87-.41,1.77-.62,2.71-.62s1.69.02,2.26.07v-1.16c0-.82-.17-1.35-.5-1.58-.33-.24-.9-.36-1.69-.36s-1.69.17-2.69.5l-.69-2.08c.58-.35,1.3-.61,2.14-.79.84-.18,1.56-.27,2.16-.27,1.61,0,2.75.34,3.44,1.03.69.69,1.03,1.86,1.03,3.51v4.97c0,.44.2.66.59.66.2,0,.5-.05.87-.14l.45,1.96Zm-7.07-1.49c.66,0,1.31-.2,1.94-.62v-2.48c-.44-.03-.83-.05-1.16-.05-1.56,0-2.34.5-2.34,1.51,0,1.09.52,1.63,1.56,1.63Z"/><path class="cls-1" d="m217.06,208.15c-.71,0-1.54-.14-2.48-.43l.5-2.29s.24.06.71.13c.47.07.78.11.92.11.88,0,1.51-.16,1.88-.49s.71-1.12,1.01-2.38l-4.42-11.52,3.15-.4,2.72,8.37,2.41-8.28h3.19l-3.83,11.14c-.82,2.37-1.6,3.96-2.33,4.79s-1.87,1.24-3.42,1.24Z"/><path class="cls-1" d="m231.51,203.11v-2.48c1.7-1.86,3.1-3.45,4.2-4.77,1.1-1.32,1.77-2.19,2.01-2.63.24-.43.37-.96.37-1.57s-.18-1.1-.54-1.44c-.36-.35-.96-.52-1.79-.52s-1.79.24-2.9.71l-.73-2.37c1.44-.71,2.86-1.07,4.27-1.07s2.54.41,3.37,1.23c.84.82,1.25,1.91,1.25,3.26,0,.84-.17,1.6-.52,2.31s-.89,1.54-1.62,2.52c-.73.98-1.88,2.33-3.44,4.07h6.1l-.21,2.74h-9.82Z"/><path class="cls-1" d="m251.02,203.01c-.65.27-1.52.4-2.59.4s-1.99-.23-2.74-.69c-1.59-.98-2.39-3.47-2.39-7.48s.83-6.5,2.48-7.52c.77-.49,1.77-.73,3-.73,1.85,0,3.21.6,4.08,1.8.88,1.2,1.31,3.33,1.31,6.39s-.48,5.29-1.44,6.51c-.49.62-1.06,1.06-1.72,1.33Zm-.57-12.03c-.34-.78-.91-1.17-1.72-1.17s-1.38.39-1.71,1.17c-.34.78-.51,2.19-.51,4.23s.17,3.45.51,4.24c.34.78.91,1.17,1.71,1.17s1.38-.39,1.72-1.17c.34-.78.51-2.19.51-4.24s-.17-3.45-.51-4.23Z"/><path class="cls-1" d="m255.83,203.11v-2.48c1.7-1.86,3.1-3.45,4.2-4.77,1.1-1.32,1.77-2.19,2.01-2.63.24-.43.37-.96.37-1.57s-.18-1.1-.54-1.44c-.36-.35-.96-.52-1.79-.52s-1.79.24-2.9.71l-.73-2.37c1.44-.71,2.86-1.07,4.27-1.07s2.54.41,3.37,1.23c.84.82,1.25,1.91,1.25,3.26,0,.84-.17,1.6-.52,2.31s-.89,1.54-1.62,2.52c-.73.98-1.88,2.33-3.44,4.07h6.1l-.21,2.74h-9.82Z"/><path class="cls-1" d="m273.36,191.54c0-.55-.19-.96-.58-1.23-.39-.27-.96-.4-1.73-.4s-1.73.24-2.9.71l-.76-2.53c1.54-.71,3.04-1.06,4.49-1.06s2.59.37,3.41,1.12c.82.75,1.23,1.76,1.23,3.02,0,.63-.15,1.25-.44,1.85s-.74,1.09-1.34,1.47c1.69.73,2.53,1.93,2.53,3.61s-.5,2.99-1.5,3.93c-1,.94-2.37,1.41-4.1,1.41-1.28,0-2.76-.3-4.45-.9l.71-2.63c1.42.5,2.58.76,3.48.76,1.8,0,2.7-.81,2.7-2.44,0-.73-.25-1.3-.73-1.73s-1.21-.64-2.15-.64h-1.63v-2.39h1.4c1.58,0,2.37-.64,2.37-1.92Z"/><path class="cls-1" d="m284.15,195.8c0-3.45,1.23-6.96,3.69-10.5l1.56,1.02c-2.05,3.25-3.08,6.41-3.08,9.49s1.03,6.24,3.08,9.49l-1.56,1.02c-2.46-3.55-3.69-7.05-3.69-10.5Z"/><path class="cls-1" d="m298.27,188.49h2.51l3.5,12.02,1.7-13.2h2.06l-2.11,15.8h-2.81l-3.57-12.73-3.6,12.73h-2.84l-2.11-15.8h2.06l1.7,13.2,3.5-12.02Z"/><path class="cls-1" d="m314.91,203.42c-1.77,0-3.08-.6-3.94-1.81-.86-1.21-1.29-2.72-1.29-4.54s.46-3.3,1.37-4.45c.91-1.14,2.17-1.72,3.76-1.72,1.34,0,2.36.37,3.06,1.12.7.75,1.05,1.74,1.05,2.97,0,.55-.12,1.26-.35,2.13h-6.96c.03,1.34.32,2.43.87,3.26.55.84,1.38,1.25,2.47,1.25s2.13-.22,3.11-.66l.54,1.47c-1.13.65-2.37.97-3.71.97Zm2.08-8.02c0-.85-.17-1.52-.52-2.01-.35-.49-.83-.73-1.44-.73s-1.12.11-1.53.32-.71.48-.93.82c-.38.63-.61,1.21-.71,1.75l5.13.05v-.19Z"/><path class="cls-1" d="m320.99,197.36c0-4.31,1.73-6.46,5.18-6.46.87,0,1.62.18,2.27.54v-4.9h2.15v16.75h-1.68l-.31-1.16c-.99.79-2.15,1.18-3.47,1.18s-2.34-.54-3.06-1.61-1.09-2.52-1.09-4.35Zm5.16-4.68c-1.97,0-2.96,1.55-2.96,4.66,0,2.86.8,4.28,2.41,4.28,1.15,0,2.1-.35,2.84-1.04v-7.48c-.66-.28-1.43-.43-2.29-.43Z"/><path class="cls-1" d="m342.92,194.9v8.21h-2.13v-8.09c0-.73-.09-1.29-.28-1.7-.19-.41-.57-.62-1.15-.62s-1.2.15-1.87.46c-.67.31-1.19.68-1.57,1.12v8.82h-2.13v-11.97h1.77l.24,1.44c.44-.43,1.04-.81,1.79-1.16.75-.35,1.47-.52,2.16-.52,1.18,0,2.01.35,2.47,1.05.46.7.7,1.68.7,2.95Z"/><path class="cls-1" d="m350.72,203.42c-1.77,0-3.08-.6-3.94-1.81-.86-1.21-1.29-2.72-1.29-4.54s.46-3.3,1.37-4.45c.91-1.14,2.17-1.72,3.76-1.72,1.34,0,2.36.37,3.06,1.12.7.75,1.05,1.74,1.05,2.97,0,.55-.12,1.26-.35,2.13h-6.96c.03,1.34.32,2.43.87,3.26.55.84,1.38,1.25,2.47,1.25s2.13-.22,3.11-.66l.54,1.47c-1.13.65-2.37.97-3.71.97Zm2.08-8.02c0-.85-.17-1.52-.52-2.01-.35-.49-.83-.73-1.44-.73s-1.12.11-1.53.32-.71.48-.93.82c-.38.63-.61,1.21-.71,1.75l5.13.05v-.19Z"/><path class="cls-1" d="m357.14,200.93c1.04.46,1.99.69,2.86.69s1.5-.16,1.9-.48.6-.73.6-1.21-.19-.89-.58-1.22-.86-.59-1.41-.79c-.55-.2-1.11-.41-1.67-.63-.56-.22-1.03-.57-1.42-1.05s-.58-1.08-.58-1.81c0-1.07.38-1.93,1.13-2.57s1.78-.96,3.08-.96,2.33.23,3.12.69l-.5,1.59c-.91-.32-1.76-.47-2.53-.47s-1.35.14-1.73.43c-.38.28-.57.67-.57,1.15s.2.88.59,1.19c.39.32.87.57,1.43.76.56.19,1.12.4,1.67.63.55.23,1.02.58,1.42,1.05.39.47.59,1.06.59,1.77,0,1.04-.39,1.92-1.16,2.65-.77.73-1.88,1.09-3.31,1.09-.66,0-1.33-.09-2-.26-.67-.17-1.17-.38-1.5-.62l.54-1.61Z"/><path class="cls-1" d="m366.53,197.36c0-4.31,1.73-6.46,5.18-6.46.87,0,1.62.18,2.27.54v-4.9h2.15v16.75h-1.68l-.31-1.16c-.99.79-2.15,1.18-3.47,1.18s-2.34-.54-3.06-1.61-1.09-2.52-1.09-4.35Zm5.16-4.68c-1.97,0-2.96,1.55-2.96,4.66,0,2.86.8,4.28,2.41,4.28,1.15,0,2.1-.35,2.84-1.04v-7.48c-.66-.28-1.43-.43-2.29-.43Z"/><path class="cls-1" d="m381.88,203.42c-1.03,0-1.84-.3-2.45-.9s-.91-1.4-.91-2.41c0-.66.14-1.22.43-1.68.28-.46.65-.8,1.11-1.02.82-.39,1.68-.59,2.58-.59s1.73.04,2.51.12v-1.85c0-.91-.15-1.54-.46-1.88-.31-.34-.9-.51-1.76-.51s-1.9.21-3.1.64l-.5-1.49c.46-.28,1.06-.51,1.81-.69.75-.17,1.4-.26,1.95-.26,1.53,0,2.61.33,3.24.99s.95,1.77.95,3.34v5.75c0,.55.19.83.57.83.25,0,.6-.07,1.04-.21l.36,1.32c-.54.35-1.23.52-2.08.52s-1.47-.4-1.85-1.21c-.35.33-.83.61-1.46.84-.62.23-1.28.34-1.97.34Zm.45-1.68c.99,0,1.93-.28,2.82-.85v-2.74c-.38-.06-.99-.09-1.85-.09-1.85,0-2.78.62-2.79,1.85,0,1.23.61,1.85,1.82,1.85Z"/><path class="cls-1" d="m390.19,206.49c.87,0,1.57-.24,2.12-.73.54-.49,1.02-1.36,1.43-2.6l-4.38-11.88,2.25-.14,3.1,9.72,2.79-9.72h2.22l-3.93,11.73c-.62,1.86-1.33,3.2-2.14,4.01s-1.87,1.22-3.16,1.22c-.52,0-1.06-.06-1.61-.17l.26-1.51c.25.05.6.07,1.04.07Z"/><path class="cls-1" d="m405.52,195.8c0,3.47-1.22,6.97-3.67,10.5l-1.56-1.02c2.05-3.3,3.08-6.46,3.08-9.49s-1.03-6.19-3.08-9.49l1.56-1.02c2.44,3.53,3.67,7.03,3.67,10.5Z"/><path class="cls-1" d="m119.21,223.11h-4.12v-2.01h10.48v2.01h-4.12v13.79h-2.25v-13.79Z"/><path class="cls-1" d="m127.15,221.41c0-.39.14-.73.43-1.01s.62-.41,1.02-.41.73.14,1.01.41.41.61.41,1.01-.14.74-.41,1.03c-.28.29-.61.44-1.01.44s-.73-.15-1.02-.44c-.28-.29-.43-.63-.43-1.03Zm2.58,15.5h-2.15v-11.88l2.15-.21v12.09Z"/><path class="cls-1" d="m141.94,228.79v8.11h-2.13v-8.09c0-.73-.09-1.29-.28-1.7-.19-.41-.57-.62-1.15-.62s-1.18.15-1.81.45c-.63.3-1.14.68-1.51,1.14v8.82h-2.13v-11.97h1.77l.24,1.44c.44-.43,1.02-.81,1.74-1.16s1.42-.52,2.09-.52c1.44,0,2.37.58,2.82,1.75.47-.44,1.09-.84,1.85-1.21.76-.36,1.47-.54,2.13-.54,2.11,0,3.17,1.33,3.17,4v8.21h-2.13v-8.09c0-.74-.1-1.31-.28-1.72-.19-.4-.56-.6-1.11-.6s-1.14.15-1.75.45c-.61.3-1.14.65-1.56,1.04.03.19.05.46.05.8Z"/><path class="cls-1" d="m156.54,237.21c-1.77,0-3.08-.6-3.94-1.81-.86-1.21-1.29-2.72-1.29-4.54s.46-3.3,1.37-4.45c.91-1.14,2.17-1.72,3.76-1.72,1.34,0,2.36.37,3.06,1.12.7.75,1.05,1.74,1.05,2.97,0,.55-.12,1.26-.35,2.13h-6.96c.03,1.34.32,2.43.87,3.26.55.84,1.38,1.25,2.47,1.25s2.13-.22,3.11-.66l.54,1.47c-1.13.65-2.37.97-3.71.97Zm2.08-8.02c0-.85-.17-1.52-.52-2.01-.35-.49-.83-.73-1.44-.73s-1.12.11-1.53.32-.71.48-.93.82c-.38.63-.61,1.21-.71,1.75l5.13.05v-.19Z"/><path class="cls-1" d="m168.41,234.55c.28-.28.62-.41,1.02-.41s.73.14,1.02.41c.28.28.43.61.43,1.02s-.14.75-.43,1.04c-.28.29-.62.44-1.02.44s-.73-.15-1.02-.44-.43-.64-.43-1.04.14-.74.43-1.02Zm.02-7.1c.28-.28.62-.41,1.02-.41s.73.14,1.02.41c.28.28.43.62.43,1.02s-.14.75-.43,1.04c-.28.29-.62.44-1.02.44s-.73-.15-1.02-.44c-.28-.29-.43-.64-.43-1.04s.14-.74.43-1.02Z"/><path class="cls-1" d="m184.76,236.88h-3.29v-12.66l-2.91,1.25-1.04-2.34,4.68-2.03h2.55v15.78Z"/><path class="cls-1" d="m186.92,236.91v-2.48c1.7-1.86,3.1-3.45,4.2-4.77,1.1-1.32,1.77-2.19,2.01-2.63.24-.43.37-.96.37-1.57s-.18-1.1-.54-1.44c-.36-.35-.96-.52-1.79-.52s-1.79.24-2.9.71l-.73-2.37c1.44-.71,2.86-1.07,4.27-1.07s2.54.41,3.37,1.23c.84.82,1.25,1.91,1.25,3.26,0,.84-.17,1.6-.52,2.31s-.89,1.54-1.62,2.52c-.73.98-1.88,2.33-3.44,4.07h6.1l-.21,2.74h-9.82Z"/><path class="cls-1" d="m198.86,235.11c0-.54.19-.99.57-1.37.38-.38.84-.57,1.37-.57s.99.19,1.37.57c.38.38.57.83.57,1.36s-.19.99-.57,1.38c-.38.39-.84.59-1.37.59s-.99-.19-1.37-.58c-.38-.39-.57-.85-.57-1.38Zm.05-7.03c0-.54.19-.99.57-1.37.38-.38.84-.57,1.37-.57s.99.19,1.37.57c.38.38.57.83.57,1.36s-.19.99-.57,1.38c-.38.39-.84.59-1.37.59s-.99-.19-1.37-.58c-.38-.39-.57-.85-.57-1.38Z"/><path class="cls-1" d="m212.71,236.81c-.65.27-1.52.4-2.59.4s-1.99-.23-2.74-.69c-1.59-.98-2.39-3.47-2.39-7.48s.83-6.5,2.48-7.52c.77-.49,1.77-.73,3-.73,1.85,0,3.21.6,4.08,1.8.88,1.2,1.31,3.33,1.31,6.39s-.48,5.29-1.44,6.51c-.49.62-1.06,1.06-1.72,1.33Zm-.57-12.03c-.34-.78-.91-1.17-1.72-1.17s-1.38.39-1.71,1.17c-.34.78-.51,2.19-.51,4.23s.17,3.45.51,4.24c.34.78.91,1.17,1.71,1.17s1.38-.39,1.72-1.17c.34-.78.51-2.19.51-4.24s-.17-3.45-.51-4.23Z"/><path class="cls-1" d="m225.63,236.81c-.65.27-1.52.4-2.59.4s-1.99-.23-2.74-.69c-1.59-.98-2.39-3.47-2.39-7.48s.83-6.5,2.48-7.52c.77-.49,1.77-.73,3-.73,1.85,0,3.21.6,4.08,1.8.88,1.2,1.31,3.33,1.31,6.39s-.48,5.29-1.44,6.51c-.49.62-1.06,1.06-1.72,1.33Zm-.57-12.03c-.34-.78-.91-1.17-1.72-1.17s-1.38.39-1.71,1.17c-.34.78-.51,2.19-.51,4.23s.17,3.45.51,4.24c.34.78.91,1.17,1.71,1.17s1.38-.39,1.72-1.17c.34-.78.51-2.19.51-4.24s-.17-3.45-.51-4.23Z"/><path class="cls-1" d="m245.07,222.47c.96.85,1.44,2.09,1.44,3.7s-.54,2.86-1.61,3.73c-.55.44-1.22.76-2.01.95-.79.19-1.85.28-3.17.28h-.59v5.77h-3.41v-15.8h4.57c1.2,0,2.16.1,2.87.31s1.35.56,1.9,1.06Zm-2.67,5.65c.54-.36.8-1.04.8-2.02s-.27-1.65-.82-1.99c-.54-.34-1.42-.51-2.64-.51h-.61v5.02h.26c1.56,0,2.56-.17,3-.5Z"/><path class="cls-1" d="m257.34,234.9h-2.48l-3.26-9.32-.38,11.33h-3.15l.92-15.8h3.69l3.41,10.17,3.43-10.17h3.69l.92,15.8h-3.17l-.38-11.31-3.24,9.3Z"/><path class="cls-1" d="m271.73,233v-5.94l-2.13-.14v-1.94l2.2-.19v-2.77l3.31-.28v3.03h3.45l-.19,2.29h-3.29v6.25c0,.46.07.78.21.98.14.2.44.3.9.3s.97-.07,1.54-.21l.5,2.34c-.77.33-1.56.5-2.35.5s-1.39-.05-1.8-.14-.73-.2-.99-.33c-.26-.13-.48-.31-.66-.56s-.32-.46-.4-.65c-.09-.19-.15-.46-.2-.8-.06-.47-.09-1.05-.09-1.73Z"/><path class="cls-1" d="m288.55,235.69c-.98,1.02-2.26,1.53-3.86,1.53s-2.86-.5-3.8-1.51c-.94-1.01-1.41-2.61-1.41-4.8s.49-3.8,1.46-4.81c.97-1.02,2.24-1.53,3.82-1.53,3.5,0,5.25,2.11,5.25,6.32,0,2.19-.49,3.8-1.47,4.81Zm-1.75-4.85c0-1.44-.17-2.42-.52-2.95-.35-.52-.86-.78-1.53-.78s-1.18.26-1.54.78c-.35.52-.53,1.52-.53,3,0,2.52.69,3.79,2.06,3.79.65,0,1.15-.28,1.51-.84s.54-1.56.54-3Z"/><path class="cls-1" d="m308.09,232.74h-2.46v4.16h-3.15v-4.16h-6.84v-1.75l6.29-9.91h3.69v9.42h2.46v2.25Zm-5.61-2.25l-.02-5.54-3.34,5.54h3.36Z"/><path class="cls-1" d="m309.82,235.11c0-.54.19-.99.57-1.37.38-.38.84-.57,1.37-.57s.99.19,1.37.57c.38.38.57.83.57,1.36s-.19.99-.57,1.38c-.38.39-.84.59-1.37.59s-.99-.19-1.37-.58c-.38-.39-.57-.85-.57-1.38Zm.05-7.03c0-.54.19-.99.57-1.37.38-.38.84-.57,1.37-.57s.99.19,1.37.57c.38.38.57.83.57,1.36s-.19.99-.57,1.38c-.38.39-.84.59-1.37.59s-.99-.19-1.37-.58c-.38-.39-.57-.85-.57-1.38Z"/><path class="cls-1" d="m323.67,236.81c-.65.27-1.52.4-2.59.4s-1.99-.23-2.74-.69c-1.59-.98-2.39-3.47-2.39-7.48s.83-6.5,2.48-7.52c.77-.49,1.77-.73,3-.73,1.85,0,3.21.6,4.08,1.8.88,1.2,1.31,3.33,1.31,6.39s-.48,5.29-1.44,6.51c-.49.62-1.06,1.06-1.72,1.33Zm-.57-12.03c-.34-.78-.91-1.17-1.72-1.17s-1.38.39-1.71,1.17c-.34.78-.51,2.19-.51,4.23s.17,3.45.51,4.24c.34.78.91,1.17,1.71,1.17s1.38-.39,1.72-1.17c.34-.78.51-2.19.51-4.24s-.17-3.45-.51-4.23Z"/><path class="cls-1" d="m336.58,236.81c-.65.27-1.52.4-2.59.4s-1.99-.23-2.74-.69c-1.59-.98-2.39-3.47-2.39-7.48s.83-6.5,2.48-7.52c.77-.49,1.77-.73,3-.73,1.85,0,3.21.6,4.08,1.8.88,1.2,1.31,3.33,1.31,6.39s-.48,5.29-1.44,6.51c-.49.62-1.06,1.06-1.72,1.33Zm-.57-12.03c-.34-.78-.91-1.17-1.72-1.17s-1.38.39-1.71,1.17c-.34.78-.51,2.19-.51,4.23s.17,3.45.51,4.24c.34.78.91,1.17,1.71,1.17s1.38-.39,1.72-1.17c.34-.78.51-2.19.51-4.24s-.17-3.45-.51-4.23Z"/><path class="cls-1" d="m356.02,222.47c.96.85,1.44,2.09,1.44,3.7s-.54,2.86-1.61,3.73c-.55.44-1.22.76-2.01.95-.79.19-1.85.28-3.17.28h-.59v5.77h-3.41v-15.8h4.57c1.2,0,2.16.1,2.87.31s1.35.56,1.9,1.06Zm-2.67,5.65c.54-.36.8-1.04.8-2.02s-.27-1.65-.82-1.99c-.54-.34-1.42-.51-2.64-.51h-.61v5.02h.26c1.56,0,2.56-.17,3-.5Z"/><path class="cls-1" d="m368.3,234.9h-2.48l-3.26-9.32-.38,11.33h-3.15l.92-15.8h3.69l3.41,10.17,3.43-10.17h3.69l.92,15.8h-3.17l-.38-11.31-3.24,9.3Z"/><path class="cls-1" d="m39.61,254.9l3.83,13.2,3.83-13.2h2.46l-5.09,15.8h-2.41l-5.09-15.8h2.46Z"/><path class="cls-1" d="m55.41,271.01c-1.77,0-3.08-.6-3.94-1.81-.86-1.21-1.29-2.72-1.29-4.54s.46-3.3,1.37-4.45c.91-1.14,2.17-1.72,3.76-1.72,1.34,0,2.36.37,3.06,1.12.7.75,1.05,1.74,1.05,2.97,0,.55-.12,1.26-.35,2.13h-6.96c.03,1.34.32,2.43.87,3.26.55.84,1.38,1.25,2.47,1.25s2.13-.22,3.11-.66l.54,1.47c-1.13.65-2.37.97-3.71.97Zm2.08-8.02c0-.85-.17-1.52-.52-2.01-.35-.49-.83-.73-1.44-.73s-1.12.11-1.53.32-.71.48-.93.82c-.38.63-.61,1.21-.71,1.75l5.13.05v-.19Z"/><path class="cls-1" d="m71.14,262.49v8.21h-2.13v-8.09c0-.73-.09-1.29-.28-1.7-.19-.41-.57-.62-1.15-.62s-1.2.15-1.87.46c-.67.31-1.19.68-1.57,1.12v8.82h-2.13v-11.97h1.77l.24,1.44c.44-.43,1.04-.81,1.79-1.16.75-.35,1.47-.52,2.16-.52,1.18,0,2.01.35,2.47,1.05.46.7.7,1.68.7,2.95Z"/><path class="cls-1" d="m77.65,271.01c-1.29,0-2.19-.35-2.7-1.05s-.76-1.71-.76-3.02v-8.21h2.13v8.16c0,.79.1,1.37.31,1.74s.62.56,1.24.56,1.23-.1,1.82-.3c.59-.2,1.08-.47,1.45-.82v-9.27h2.13v12.11h-1.73l-.24-1.28c-.46.38-1.02.7-1.68.97-.66.27-1.33.4-1.99.4Z"/><path class="cls-1" d="m91.14,271.01c-1.77,0-3.08-.6-3.94-1.81-.86-1.21-1.29-2.72-1.29-4.54s.46-3.3,1.37-4.45c.91-1.14,2.17-1.72,3.76-1.72,1.34,0,2.36.37,3.06,1.12.7.75,1.05,1.74,1.05,2.97,0,.55-.12,1.26-.35,2.13h-6.96c.03,1.34.32,2.43.87,3.26.55.84,1.38,1.25,2.47,1.25s2.13-.22,3.11-.66l.54,1.47c-1.13.65-2.37.97-3.71.97Zm2.08-8.02c0-.85-.17-1.52-.52-2.01-.35-.49-.83-.73-1.44-.73s-1.12.11-1.53.32-.71.48-.93.82c-.38.63-.61,1.21-.71,1.75l5.13.05v-.19Z"/><path class="cls-1" d="m103.01,268.35c.28-.28.62-.41,1.02-.41s.73.14,1.02.41c.28.28.43.61.43,1.02s-.14.75-.43,1.04c-.28.29-.62.44-1.02.44s-.73-.15-1.02-.44c-.28-.29-.43-.64-.43-1.04s.14-.74.43-1.02Zm.02-7.1c.28-.28.62-.41,1.02-.41s.73.14,1.02.41c.28.28.43.62.43,1.02s-.14.75-.43,1.04c-.28.29-.62.44-1.02.44s-.73-.15-1.02-.44c-.28-.29-.43-.64-.43-1.04s.14-.74.43-1.02Z"/><path class="cls-1" d="m116.87,254.9v15.8h-3.41v-15.8h3.41Zm.52,7.74l4.59-7.74h4.02l-4.9,7.62,5.94,8.19h-4.14l-5.51-8.07Z"/><path class="cls-1" d="m135.33,269.59c-1.21.95-2.5,1.42-3.87,1.42s-2.29-.35-2.79-1.05-.75-1.7-.75-2.99v-8.4h3.31v7.81c0,.63.09,1.11.28,1.44.19.33.66.5,1.41.5s1.45-.24,2.09-.73v-9.01h3.31v12.44h-2.72l-.28-1.42Z"/><path class="cls-1" d="m151.79,270.3c-.8.44-1.68.66-2.64.66s-1.66-.36-2.12-1.09c-.92.76-1.99,1.14-3.22,1.14s-2.16-.31-2.79-.93c-.63-.62-.95-1.47-.95-2.54,0-.71.15-1.32.45-1.82.3-.5.69-.87,1.16-1.11.87-.41,1.77-.62,2.71-.62s1.69.02,2.26.07v-1.16c0-.82-.17-1.35-.5-1.58-.33-.24-.9-.36-1.69-.36s-1.69.17-2.69.5l-.69-2.08c.58-.35,1.3-.61,2.14-.79.84-.18,1.56-.27,2.16-.27,1.61,0,2.75.34,3.44,1.03.69.69,1.03,1.86,1.03,3.51v4.97c0,.44.2.66.59.66.2,0,.5-.05.87-.14l.45,1.96Zm-7.07-1.49c.66,0,1.31-.2,1.94-.61v-2.48c-.44-.03-.83-.05-1.16-.05-1.56,0-2.34.5-2.34,1.51,0,1.09.52,1.63,1.56,1.63Z"/><path class="cls-1" d="m159.06,270.49c-.8.35-1.58.52-2.34.52s-1.38-.09-1.87-.26c-.49-.17-.86-.37-1.1-.59-.24-.22-.43-.54-.56-.97s-.2-.78-.22-1.08c-.02-.29-.04-.7-.04-1.22v-12.75h3.34v12.94c0,.46.07.78.2.97.13.19.41.28.82.28s.84-.06,1.28-.17l.5,2.32Z"/><path class="cls-1" d="m171.17,270.3c-.8.44-1.68.66-2.64.66s-1.66-.36-2.12-1.09c-.92.76-1.99,1.14-3.22,1.14s-2.16-.31-2.79-.93c-.63-.62-.95-1.47-.95-2.54,0-.71.15-1.32.45-1.82.3-.5.69-.87,1.16-1.11.87-.41,1.77-.62,2.71-.62s1.69.02,2.26.07v-1.16c0-.82-.17-1.35-.5-1.58-.33-.24-.9-.36-1.69-.36s-1.69.17-2.69.5l-.69-2.08c.58-.35,1.3-.61,2.14-.79.84-.18,1.56-.27,2.16-.27,1.61,0,2.75.34,3.44,1.03.69.69,1.03,1.86,1.03,3.51v4.97c0,.44.2.66.59.66.2,0,.5-.05.87-.14l.45,1.96Zm-7.07-1.49c.66,0,1.31-.2,1.94-.61v-2.48c-.44-.03-.83-.05-1.16-.05-1.56,0-2.34.5-2.34,1.51,0,1.09.52,1.63,1.56,1.63Z"/><path class="cls-1" d="m180.37,267.96h6.03v2.74h-9.46v-15.8h3.43v13.06Z"/><path class="cls-1" d="m195.23,269.59c-1.21.95-2.5,1.42-3.87,1.42s-2.29-.35-2.79-1.05-.75-1.7-.75-2.99v-8.4h3.31v7.81c0,.63.09,1.11.28,1.44.19.33.66.5,1.41.5s1.45-.24,2.09-.73v-9.01h3.31v12.44h-2.72l-.28-1.42Z"/><path class="cls-1" d="m205.44,258.83c.72-.32,1.48-.47,2.28-.47s1.43.13,1.87.4c.44.27.8.68,1.06,1.23.43-.44,1.01-.82,1.74-1.15s1.47-.49,2.21-.49c1.36,0,2.27.35,2.76,1.05.48.7.72,1.7.72,2.99v8.3h-3.31v-7.71c0-1.01-.21-1.61-.64-1.8-.2-.1-.48-.14-.83-.14-.88,0-1.63.29-2.25.88.02.11.02.28.02.5v8.28h-3.31v-7.71c0-1.01-.21-1.61-.64-1.8-.2-.1-.48-.14-.83-.14-.88,0-1.63.29-2.25.88v8.78h-3.31v-12.14h2.72l.28,1.35c.41-.41.97-.77,1.69-1.09Z"/><path class="cls-1" d="m226.74,258.35c1.47,0,2.58.54,3.34,1.63s1.14,2.56,1.14,4.42c0,4.4-1.81,6.6-5.42,6.6-.6,0-1.25-.14-1.96-.43v4.78l-3.31.38v-17.18h2.84l.28.97c1.01-.79,2.04-1.18,3.1-1.18Zm-1.49,9.98c1.8,0,2.7-1.28,2.7-3.83,0-2.3-.75-3.45-2.25-3.45-.6,0-1.22.2-1.87.59v6.53c.44.11.91.17,1.42.17Z"/><path class="cls-1" d="m240.58,269.59c-1.21.95-2.5,1.42-3.87,1.42s-2.29-.35-2.79-1.05-.75-1.7-.75-2.99v-8.4h3.31v7.81c0,.63.09,1.11.28,1.44.19.33.66.5,1.41.5s1.45-.24,2.09-.73v-9.01h3.31v12.44h-2.72l-.28-1.42Z"/><path class="cls-1" d="m252.12,261c-1.29,0-2.2.37-2.72,1.11v8.59h-3.31v-12.14h2.74l.26,1.54c.91-1.2,2.08-1.8,3.5-1.8.39,0,.76.04,1.09.12l-.54,2.72c-.35-.1-.69-.14-1.02-.14Z"/><path class="cls-1" d="m260.89,256.33c.7-.59,1.45-1.02,2.25-1.29s1.74-.4,2.83-.4,2.38.21,3.88.62l-.5,2.46c-1.06-.25-2.16-.38-3.31-.38s-2.1.4-2.84,1.19c-.74.8-1.11,2.18-1.11,4.15,0,3.68,1.22,5.51,3.67,5.51.49,0,1-.05,1.54-.14v-2.93h-2.22v-2.48h5.32v7.33c-1.73.69-3.5,1.04-5.3,1.04s-3.31-.66-4.54-1.98c-1.23-1.32-1.88-3.41-1.94-6.28,0-1.5.2-2.8.61-3.89s.97-1.94,1.67-2.53Z"/><path class="cls-1" d="m281.27,269.48c-.98,1.02-2.26,1.53-3.86,1.53s-2.86-.51-3.8-1.51c-.94-1.01-1.41-2.61-1.41-4.8s.49-3.8,1.46-4.81c.97-1.02,2.24-1.53,3.82-1.53,3.5,0,5.25,2.11,5.25,6.32,0,2.19-.49,3.8-1.47,4.81Zm-1.75-4.85c0-1.44-.17-2.42-.52-2.94-.35-.52-.86-.78-1.53-.78s-1.18.26-1.54.78c-.35.52-.53,1.52-.53,3,0,2.52.69,3.78,2.06,3.78.65,0,1.15-.28,1.51-.84.36-.56.54-1.56.54-3Z"/><path class="cls-1" d="m290.92,270.49c-.8.35-1.58.52-2.34.52s-1.38-.09-1.87-.26c-.49-.17-.86-.37-1.1-.59-.24-.22-.43-.54-.56-.97s-.2-.78-.22-1.08c-.02-.29-.04-.7-.04-1.22v-12.75h3.34v12.94c0,.46.07.78.2.97.13.19.41.28.82.28s.84-.06,1.28-.17l.5,2.32Z"/><path class="cls-1" d="m300.98,256.2c-.66-.16-1.45-.24-2.37-.24s-1.52.18-1.82.53c-.3.35-.45.93-.45,1.74v.36h3.62l-.21,2.27h-3.41v14.24l-3.31-.33v-13.91l-2.22-.14v-1.94l2.25-.17v-.69c0-1.62.44-2.81,1.33-3.55.88-.74,2.26-1.11,4.12-1.11.95,0,2,.19,3.17.57l-.69,2.37Z"/><path class="cls-1" d="m306.84,257.89c0-1.03.39-1.85,1.16-2.45.77-.6,1.76-.9,2.96-.9s2.59.29,4.19.88l-.78,2.29c-1.21-.52-2.27-.78-3.16-.78s-1.34.41-1.34,1.23c0,.58.38,1.33,1.13,2.22l4.05,4.87c.68-1.33,1.08-2.87,1.21-4.64h2.55c-.09,2.6-.8,4.77-2.11,6.51.84.73,1.98,1.44,3.43,2.15l-1.25,2.2c-.58-.25-1.27-.6-2.07-1.05-.8-.45-1.45-.87-1.95-1.27-1.17,1.23-2.59,1.85-4.26,1.85s-3.02-.41-4.03-1.23c-1.02-.82-1.53-2.01-1.53-3.57,0-2,1.13-3.58,3.38-4.73-1.06-1.36-1.59-2.55-1.59-3.58Zm1.68,6.56c-.32.52-.47,1.09-.47,1.69s.22,1.14.65,1.61c.43.46,1.12.7,2.06.7s1.78-.35,2.52-1.04l-3.45-4.14c-.55.27-.99.66-1.3,1.18Z"/><path class="cls-1" d="m336.06,270.59c-1.25.28-2.4.43-3.47.43s-1.99-.14-2.77-.41-1.5-.72-2.16-1.34c-1.4-1.31-2.11-3.48-2.11-6.51,0-1.5.2-2.8.61-3.89.41-1.1.97-1.94,1.68-2.54,1.33-1.12,2.93-1.68,4.8-1.68,1.18,0,2.37.17,3.57.52l-.54,2.44c-.9-.17-1.73-.26-2.51-.26-1.28,0-2.29.4-3.03,1.19-.74.8-1.11,2.19-1.11,4.19s.38,3.41,1.13,4.23,1.81,1.24,3.15,1.24c.93,0,1.77-.06,2.53-.19l.21,2.58Z"/><path class="cls-1" d="m346.33,269.48c-.98,1.02-2.26,1.53-3.86,1.53s-2.86-.51-3.8-1.51c-.94-1.01-1.41-2.61-1.41-4.8s.49-3.8,1.46-4.81c.97-1.02,2.24-1.53,3.82-1.53,3.5,0,5.25,2.11,5.25,6.32,0,2.19-.49,3.8-1.47,4.81Zm-1.75-4.85c0-1.44-.17-2.42-.52-2.94-.35-.52-.86-.78-1.53-.78s-1.18.26-1.54.78c-.35.52-.53,1.52-.53,3,0,2.52.69,3.78,2.06,3.78.65,0,1.15-.28,1.51-.84.36-.56.54-1.56.54-3Z"/><path class="cls-1" d="m357.16,269.59c-1.21.95-2.5,1.42-3.87,1.42s-2.29-.35-2.79-1.05-.75-1.7-.75-2.99v-8.4h3.31v7.81c0,.63.09,1.11.28,1.44.19.33.66.5,1.41.5s1.45-.24,2.09-.73v-9.01h3.31v12.44h-2.72l-.28-1.42Z"/><path class="cls-1" d="m369.61,258.35c1.37,0,2.31.35,2.8,1.05s.75,1.7.75,2.99v8.3h-3.31v-7.71c0-.62-.1-1.09-.3-1.43s-.67-.51-1.43-.51-1.44.29-2.06.88v8.78h-3.38v-12.14h2.79l.28,1.35c.46-.43,1.04-.79,1.74-1.1s1.41-.46,2.12-.46Z"/><path class="cls-1" d="m376.82,266.8v-5.94l-2.13-.14v-1.94l2.2-.19v-2.77l3.31-.28v3.03h3.45l-.19,2.29h-3.29v6.25c0,.46.07.78.21.98.14.2.44.29.9.29s.97-.07,1.54-.21l.5,2.34c-.77.33-1.56.5-2.35.5s-1.39-.05-1.8-.14-.73-.2-.99-.33-.48-.31-.66-.56c-.18-.24-.32-.46-.4-.65-.09-.19-.15-.46-.2-.8-.06-.47-.09-1.05-.09-1.73Z"/><path class="cls-1" d="m391.16,261c-1.29,0-2.2.37-2.72,1.11v8.59h-3.31v-12.14h2.74l.26,1.54c.91-1.2,2.08-1.8,3.5-1.8.39,0,.76.04,1.09.12l-.54,2.72c-.35-.1-.69-.14-1.02-.14Z"/><path class="cls-1" d="m394.8,275.74c-.71,0-1.54-.14-2.48-.43l.5-2.29s.24.06.71.13c.47.07.78.11.92.11.88,0,1.51-.16,1.88-.49.37-.32.71-1.12,1.01-2.38l-4.42-11.52,3.15-.4,2.72,8.37,2.41-8.28h3.19l-3.83,11.14c-.82,2.37-1.6,3.96-2.33,4.79s-1.87,1.24-3.42,1.24Z"/><path class="cls-1" d="m420.05,270.59c-1.25.28-2.4.43-3.47.43s-1.99-.14-2.77-.41-1.5-.72-2.16-1.34c-1.4-1.31-2.11-3.48-2.11-6.51,0-1.5.2-2.8.61-3.89.41-1.1.97-1.94,1.68-2.54,1.33-1.12,2.93-1.68,4.8-1.68,1.18,0,2.37.17,3.57.52l-.54,2.44c-.9-.17-1.73-.26-2.51-.26-1.28,0-2.29.4-3.03,1.19-.74.8-1.11,2.19-1.11,4.19s.38,3.41,1.13,4.23,1.81,1.24,3.15,1.24c.93,0,1.77-.06,2.53-.19l.21,2.58Z"/><path class="cls-1" d="m428.3,270.49c-.8.35-1.58.52-2.34.52s-1.38-.09-1.87-.26c-.49-.17-.86-.37-1.1-.59-.24-.22-.43-.54-.56-.97s-.2-.78-.22-1.08c-.02-.29-.04-.7-.04-1.22v-12.75h3.34v12.94c0,.46.07.78.2.97.13.19.41.28.82.28s.84-.06,1.28-.17l.5,2.32Z"/><path class="cls-1" d="m436.8,269.59c-1.21.95-2.5,1.42-3.87,1.42s-2.29-.35-2.79-1.05-.75-1.7-.75-2.99v-8.4h3.31v7.81c0,.63.09,1.11.28,1.44.19.33.66.5,1.41.5s1.45-.24,2.09-.73v-9.01h3.31v12.44h-2.72l-.28-1.42Z"/><path class="cls-1" d="m445.6,254.12v5.23c.33-.27.78-.5,1.34-.7.56-.2,1.12-.3,1.69-.3,1.29,0,2.36.49,3.2,1.48.84.99,1.25,2.39,1.25,4.22,0,2.26-.46,3.98-1.37,5.17-.91,1.19-2.38,1.79-4.4,1.79-.87,0-1.8-.08-2.79-.25s-1.73-.36-2.22-.58v-16.06h3.31Zm1.23,14.22c1.09,0,1.85-.33,2.27-.99s.64-1.62.64-2.89-.17-2.14-.51-2.65c-.34-.5-.86-.76-1.55-.76s-1.39.21-2.08.64v6.53c.43.08.84.12,1.23.12Z"/><path class="cls-1" d="m152.21,289.55c1.07.69,1.61,1.76,1.61,3.2s-.51,2.47-1.54,3.1c.91.41,1.55.91,1.9,1.5.36.59.53,1.37.53,2.33,0,1.5-.45,2.68-1.36,3.54-.91.86-2.28,1.29-4.13,1.29h-5.2v-15.8h3.45c1.21,0,2.17.05,2.86.15.69.1,1.32.34,1.87.7Zm-4.8,1.66v3.62h1.58c1.03-.08,1.54-.72,1.54-1.92,0-.88-.35-1.41-1.04-1.59-.32-.08-.84-.12-1.59-.12h-.5Zm1.42,10.6c1.73,0,2.6-.74,2.6-2.22,0-.87-.25-1.46-.75-1.79s-1.21-.49-2.14-.49h-1.13v4.5h1.42Z"/><path class="cls-1" d="m167.71,304.1c-.8.44-1.68.66-2.64.66s-1.66-.36-2.12-1.09c-.92.76-1.99,1.14-3.22,1.14s-2.16-.31-2.79-.93c-.63-.62-.95-1.47-.95-2.54,0-.71.15-1.32.45-1.82.3-.5.69-.87,1.16-1.11.87-.41,1.77-.61,2.71-.61s1.69.02,2.26.07v-1.16c0-.82-.17-1.35-.5-1.59s-.9-.35-1.69-.35-1.69.17-2.69.5l-.69-2.08c.58-.35,1.3-.61,2.14-.79.84-.18,1.56-.27,2.16-.27,1.61,0,2.75.34,3.44,1.03.69.69,1.03,1.86,1.03,3.51v4.97c0,.44.2.66.59.66.2,0,.5-.05.87-.14l.45,1.96Zm-7.07-1.49c.66,0,1.31-.2,1.94-.61v-2.48c-.44-.03-.83-.05-1.16-.05-1.56,0-2.34.5-2.34,1.51,0,1.09.52,1.63,1.56,1.63Z"/><path class="cls-1" d="m175.75,292.15c1.37,0,2.31.35,2.8,1.05s.75,1.7.75,2.99v8.3h-3.31v-7.71c0-.61-.1-1.09-.3-1.43-.2-.34-.67-.51-1.43-.51s-1.44.29-2.06.87v8.78h-3.38v-12.14h2.79l.28,1.35c.46-.43,1.04-.79,1.74-1.1s1.41-.46,2.12-.46Z"/><path class="cls-1" d="m188.74,304.05c-.8.5-1.83.76-3.09.76s-2.3-.49-3.14-1.48c-.84-.99-1.25-2.39-1.25-4.22,0-4.64,2.01-6.96,6.03-6.96.85,0,1.73.09,2.65.26.91.17,1.62.39,2.11.64v16.7l-3.31-.21v-5.49Zm-1.35-9.23c-1.04,0-1.77.33-2.18.99-.41.66-.62,1.62-.62,2.89s.17,2.15.51,2.66c.34.51.85.77,1.53.77s1.38-.16,2.11-.47v-6.65c-.41-.13-.86-.19-1.35-.19Z"/><path class="cls-1" d="m201.87,303.39c-1.21.95-2.5,1.42-3.87,1.42s-2.29-.35-2.79-1.05-.75-1.7-.75-2.99v-8.4h3.31v7.81c0,.63.09,1.11.28,1.44.19.33.66.5,1.41.5s1.45-.24,2.09-.73v-9.01h3.31v12.44h-2.72l-.28-1.42Z"/><path class="cls-1" d="m210,298.78c.03,2.37,1.07,3.55,3.12,3.55.96,0,1.92-.18,2.86-.54l.57,2.25c-1.21.52-2.56.78-4.05.78-3.74,0-5.61-2.2-5.61-6.6,0-1.73.46-3.18,1.4-4.33.93-1.15,2.27-1.73,4.02-1.73,1.4,0,2.49.37,3.25,1.12.76.75,1.15,1.79,1.15,3.13,0,.79-.1,1.58-.31,2.37h-6.41Zm4.07-1.8v-.14c0-1.56-.55-2.34-1.66-2.34-1.33,0-2.12.83-2.39,2.48h4.05Z"/><path class="cls-1" d="m219.97,300.6v-5.94l-2.13-.14v-1.94l2.2-.19v-2.77l3.31-.28v3.03h3.45l-.19,2.29h-3.29v6.25c0,.46.07.78.21.98.14.2.44.29.9.29s.97-.07,1.54-.21l.5,2.34c-.77.33-1.56.5-2.35.5s-1.39-.05-1.8-.14-.73-.2-.99-.33-.48-.31-.66-.56c-.18-.24-.32-.46-.4-.65-.09-.19-.15-.46-.2-.8-.06-.47-.09-1.05-.09-1.73Z"/><path class="cls-1" d="m241.49,294.94v-6.25h3.38v15.8h-3.38v-6.81h-5.18v6.81h-3.38v-15.8h3.38v6.25h5.18Z"/><path class="cls-1" d="m258.5,304.1c-.8.44-1.68.66-2.64.66s-1.66-.36-2.12-1.09c-.92.76-1.99,1.14-3.22,1.14s-2.16-.31-2.79-.93c-.63-.62-.95-1.47-.95-2.54,0-.71.15-1.32.45-1.82.3-.5.69-.87,1.16-1.11.87-.41,1.77-.61,2.71-.61s1.69.02,2.26.07v-1.16c0-.82-.17-1.35-.5-1.59s-.9-.35-1.69-.35-1.69.17-2.69.5l-.69-2.08c.58-.35,1.3-.61,2.14-.79.84-.18,1.56-.27,2.16-.27,1.61,0,2.75.34,3.44,1.03.69.69,1.03,1.86,1.03,3.51v4.97c0,.44.2.66.59.66.2,0,.5-.05.87-.14l.45,1.96Zm-7.07-1.49c.66,0,1.31-.2,1.94-.61v-2.48c-.44-.03-.83-.05-1.16-.05-1.56,0-2.34.5-2.34,1.51,0,1.09.52,1.63,1.56,1.63Z"/><path class="cls-1" d="m265.77,304.29c-.8.35-1.58.52-2.34.52s-1.38-.09-1.87-.26c-.49-.17-.86-.37-1.1-.59-.24-.22-.43-.54-.56-.97s-.2-.78-.22-1.08c-.02-.29-.04-.7-.04-1.22v-12.75h3.34v12.94c0,.46.07.78.2.97.13.19.41.28.82.28s.84-.06,1.28-.17l.5,2.32Z"/><path class="cls-1" d="m273.08,304.29c-.8.35-1.58.52-2.34.52s-1.38-.09-1.87-.26c-.49-.17-.86-.37-1.1-.59-.24-.22-.43-.54-.56-.97s-.2-.78-.22-1.08c-.02-.29-.04-.7-.04-1.22v-12.75h3.34v12.94c0,.46.07.78.2.97.13.19.41.28.82.28s.84-.06,1.28-.17l.5,2.32Z"/><path class="cls-1" d="m277.05,303.1c0,1.66-.7,3.13-2.11,4.42h-2.44c1.29-1.5,1.94-2.86,1.94-4.07,0-.52-.14-1.09-.4-1.7h2.72c.19.41.28.86.28,1.35Z"/><path class="cls-1" d="m287.48,301.76h6.03v2.74h-9.46v-15.8h3.43v13.06Z"/><path class="cls-1" d="m297.49,298.78c.03,2.37,1.07,3.55,3.12,3.55.96,0,1.92-.18,2.86-.54l.57,2.25c-1.21.52-2.56.78-4.05.78-3.74,0-5.61-2.2-5.61-6.6,0-1.73.46-3.18,1.4-4.33.93-1.15,2.27-1.73,4.02-1.73,1.4,0,2.49.37,3.25,1.12.76.75,1.15,1.79,1.15,3.13,0,.79-.1,1.58-.31,2.37h-6.41Zm4.07-1.8v-.14c0-1.56-.55-2.34-1.66-2.34-1.33,0-2.12.83-2.39,2.48h4.05Z"/><path class="cls-1" d="m310.86,301.85l2.53-9.49h3.34l-3.78,12.14h-4.16l-3.71-12.14h3.34l2.46,9.49Z"/><path class="cls-1" d="m320.51,298.78c.03,2.37,1.07,3.55,3.12,3.55.96,0,1.92-.18,2.86-.54l.57,2.25c-1.21.52-2.56.78-4.05.78-3.74,0-5.61-2.2-5.61-6.6,0-1.73.46-3.18,1.4-4.33.93-1.15,2.27-1.73,4.02-1.73,1.4,0,2.49.37,3.25,1.12.76.75,1.15,1.79,1.15,3.13,0,.79-.1,1.58-.31,2.37h-6.41Zm4.07-1.8v-.14c0-1.56-.55-2.34-1.66-2.34-1.33,0-2.12.83-2.39,2.48h4.05Z"/><path class="cls-1" d="m335.39,304.29c-.8.35-1.58.52-2.34.52s-1.38-.09-1.87-.26c-.49-.17-.86-.37-1.1-.59-.24-.22-.43-.54-.56-.97s-.2-.78-.22-1.08c-.02-.29-.04-.7-.04-1.22v-12.75h3.34v12.94c0,.46.07.78.2.97.13.19.41.28.82.28s.84-.06,1.28-.17l.5,2.32Z"/><path class="cls-1" d="m346.82,304.48h-3.29v-12.66l-2.91,1.25-1.04-2.34,4.68-2.04h2.55v15.78Z"/></g></svg>