<?xml version="1.0" encoding="UTF-8"?><svg id="Layer_2" xmlns="http://www.w3.org/2000/svg" xmlns:xlink="http://www.w3.org/1999/xlink" viewBox="0 0 542.97 193.78"><defs><style>.cls-1{fill:url(#linear-gradient-2);}.cls-2{fill:url(#linear-gradient-17);}.cls-3{fill:url(#linear-gradient-15);}.cls-4{letter-spacing:0em;}.cls-5{fill:url(#linear-gradient-18);}.cls-6{fill:url(#linear-gradient-14);}.cls-7{fill:url(#linear-gradient-20);}.cls-8{fill:url(#linear-gradient-6);}.cls-9{fill:url(#linear-gradient-11);}.cls-10{letter-spacing:0em;}.cls-11{filter:url(#drop-shadow-1);}.cls-12{letter-spacing:0em;}.cls-13{fill:url(#linear-gradient-10);}.cls-14{letter-spacing:0em;}.cls-15{letter-spacing:-.01em;}.cls-16{fill:url(#linear-gradient-16);}.cls-17{fill:url(#linear-gradient-21);}.cls-18{fill:url(#linear-gradient-25);}.cls-19{letter-spacing:0em;}.cls-20{fill:url(#linear-gradient-5);}.cls-21{fill:url(#linear-gradient-7);}.cls-22{fill:url(#linear-gradient-24);}.cls-23{fill:url(#linear-gradient-9);}.cls-24{fill:url(#linear-gradient-22);}.cls-25{fill:url(#linear-gradient-3);}.cls-26{fill:url(#linear-gradient);}.cls-27{letter-spacing:-.01em;}.cls-28{fill:url(#linear-gradient-23);}.cls-29{fill:url(#linear-gradient-19);}.cls-30{fill:url(#linear-gradient-4);}.cls-31{fill:url(#linear-gradient-8);}.cls-32{letter-spacing:0em;}.cls-33{fill:url(#linear-gradient-12);}.cls-34{fill:url(#linear-gradient-13);}.cls-35{fill:#fff;font-family:Montserrat-Regular, Montserrat;font-size:16px;}</style><filter id="drop-shadow-1" filterUnits="userSpaceOnUse"><feOffset dx="9.11" dy="9.11"/><feGaussianBlur result="blur" stdDeviation="6.51"/><feFlood flood-color="#231f20" flood-opacity=".5"/><feComposite in2="blur" operator="in"/><feComposite in="SourceGraphic"/></filter><linearGradient id="linear-gradient" x1="41.58" y1="1.69" x2="41.58" y2="29.37" gradientUnits="userSpaceOnUse"><stop offset="0" stop-color="#f6e9a1"/><stop offset=".48" stop-color="#edc34d"/><stop offset=".5" stop-color="#edc24a"/><stop offset="1" stop-color="#a8762f"/></linearGradient><linearGradient id="linear-gradient-2" x1="67.82" y1="1.69" x2="67.82" y2="29.37" xlink:href="#linear-gradient"/><linearGradient id="linear-gradient-3" x1="94.51" y1="1.69" x2="94.51" y2="29.37" xlink:href="#linear-gradient"/><linearGradient id="linear-gradient-4" x1="122.77" y1="1.69" x2="122.77" y2="29.37" xlink:href="#linear-gradient"/><linearGradient id="linear-gradient-5" x1="157.45" y1="1.69" x2="157.45" y2="29.37" xlink:href="#linear-gradient"/><linearGradient id="linear-gradient-6" x1="192.09" y1="1.69" x2="192.09" y2="29.37" xlink:href="#linear-gradient"/><linearGradient id="linear-gradient-7" x1="219.3" y1="1.69" x2="219.3" y2="29.37" xlink:href="#linear-gradient"/><linearGradient id="linear-gradient-8" x1="268.38" y1="1.69" x2="268.38" y2="29.37" xlink:href="#linear-gradient"/><linearGradient id="linear-gradient-9" x1="301.94" y1="1.69" x2="301.94" y2="29.37" xlink:href="#linear-gradient"/><linearGradient id="linear-gradient-10" x1="333.52" y1="1.69" x2="333.52" y2="29.37" xlink:href="#linear-gradient"/><linearGradient id="linear-gradient-11" x1="357.2" y1="1.69" x2="357.2" y2="29.37" xlink:href="#linear-gradient"/><linearGradient id="linear-gradient-12" x1="401.06" y1="1.69" x2="401.06" y2="29.37" xlink:href="#linear-gradient"/><linearGradient id="linear-gradient-13" x1="429.75" y1="1.69" x2="429.75" y2="29.37" xlink:href="#linear-gradient"/><linearGradient id="linear-gradient-14" x1="457.31" y1="1.69" x2="457.31" y2="29.37" xlink:href="#linear-gradient"/><linearGradient id="linear-gradient-15" x1="484.87" y1="1.69" x2="484.87" y2="29.37" xlink:href="#linear-gradient"/><linearGradient id="linear-gradient-16" x1="91.33" y1="34.58" x2="91.33" y2="136.25" xlink:href="#linear-gradient"/><linearGradient id="linear-gradient-17" x1="173.03" y1="34.58" x2="173.03" y2="136.25" xlink:href="#linear-gradient"/><linearGradient id="linear-gradient-18" x1="222.95" y1="34.58" x2="222.95" y2="136.25" xlink:href="#linear-gradient"/><linearGradient id="linear-gradient-19" x1="270.9" y1="34.58" x2="270.9" y2="136.25" xlink:href="#linear-gradient"/><linearGradient id="linear-gradient-20" x1="306.2" y1="34.58" x2="306.2" y2="136.25" xlink:href="#linear-gradient"/><linearGradient id="linear-gradient-21" x1="330.84" y1="34.58" x2="330.84" y2="136.25" xlink:href="#linear-gradient"/><linearGradient id="linear-gradient-22" x1="371.3" y1="34.58" x2="371.3" y2="136.25" xlink:href="#linear-gradient"/><linearGradient id="linear-gradient-23" x1="413.6" y1="34.58" x2="413.6" y2="136.25" xlink:href="#linear-gradient"/><linearGradient id="linear-gradient-24" x1="457.59" y1="34.58" x2="457.59" y2="136.25" xlink:href="#linear-gradient"/><linearGradient id="linear-gradient-25" x1="500.8" y1="34.58" x2="500.8" y2="136.25" xlink:href="#linear-gradient"/></defs><g id="Layer_1-2"><g class="cls-11"><path class="cls-26" d="m35.57,22.86c-.07-.32-.1-.93-.1-1.83s.17-1.87.51-2.89h.31c-.02.25-.03.5-.03.75,0,1.38.42,2.53,1.26,3.45.84.92,1.95,1.38,3.33,1.38s2.6-.43,3.52-1.29c.92-.86,1.38-1.94,1.38-3.24s-.44-2.36-1.32-3.18l-6.52-6.04c-1.22-1.13-1.83-2.5-1.83-4.11s.54-2.98,1.61-4.13c1.08-1.14,2.53-1.72,4.36-1.72.86,0,1.83.11,2.92.34h1.32v4.18h-.31c0-1.06-.37-1.91-1.1-2.55-.74-.63-1.68-.95-2.84-.95s-2.12.38-2.9,1.15c-.78.77-1.17,1.73-1.17,2.89s.45,2.15,1.36,2.99l6.69,6.18c1.13,1.04,1.7,2.47,1.7,4.28s-.58,3.3-1.73,4.47-2.7,1.75-4.62,1.75c-1,0-2.06-.15-3.18-.46-1.12-.31-1.99-.78-2.6-1.41Z"/><path class="cls-1" d="m60.46,23.91c.54,0,1-.17,1.38-.53.37-.35.57-.78.59-1.27V5.98c0-.5-.19-.92-.58-1.26-.39-.34-.85-.51-1.39-.51h-.48v-.34h9.92c.93,0,1.74-.07,2.45-.2.7-.14,1.15-.25,1.36-.34v3.87l-.37-.03v-.51c0-.47-.16-.88-.48-1.22-.32-.34-.73-.51-1.22-.51h-7.06v8.63h5.81c.45,0,.8-.14,1.04-.41s.36-.61.36-1.02v-.44h.37v4.75h-.37v-.44c0-.63-.24-1.06-.71-1.29-.18-.07-.37-.11-.58-.14h-5.91v8.63h5.33c1.04,0,1.92-.18,2.63-.54.71-.36,1.26-.79,1.63-1.29s.75-1.15,1.14-1.97h.34l-1.87,4.86h-13.79v-.34h.48Z"/><path class="cls-25" d="m87.16,23.91c.54,0,1-.17,1.38-.53.37-.35.57-.78.59-1.27V6.05c-.02-.5-.23-.93-.63-1.29s-.87-.54-1.41-.54h-.41v-.34h7.03v.34h-.41c-.54,0-1.01.18-1.41.54-.4.36-.59.79-.59,1.29v17.15h5.3c1.04,0,1.92-.18,2.65-.54.72-.36,1.27-.79,1.65-1.29.37-.5.74-1.15,1.1-1.97h.34l-1.87,4.86h-13.79v-.34h.48Z"/><path class="cls-30" d="m133.93,23.91h.27v.34h-6.96v-.34h.27c.43,0,.76-.15.98-.44.23-.29.34-.57.34-.83s-.05-.51-.14-.76l-1.87-4.52h-8.59l-1.87,4.42c-.11.29-.17.57-.17.83s.11.54.34.85c.23.31.57.46,1.02.46h.27v.34h-6.49v-.34h.27c.48,0,.96-.16,1.44-.49.49-.33.89-.82,1.21-1.48,4.96-10.6,7.54-16.14,7.74-16.64.38-.95.59-1.58.61-1.9h.31l8.39,18.54c.66,1.31,1.53,1.97,2.62,1.97Zm-15.25-7.57h7.74l-3.8-9.31-3.94,9.31Z"/><path class="cls-20" d="m171.6,23.91h.51v.34h-7.06v-.31h.51c.34,0,.64-.13.9-.39s.37-.57.32-.93l-1.77-13.99-6.42,12.63c-.63,1.38-1.03,2.54-1.19,3.46h-.34l-8.19-15.79-1.53,13.69c-.05.34.06.65.32.92.26.27.57.41.93.41h.48v.31h-6.28v-.34h.51c.82,0,1.45-.29,1.9-.88.23-.29.36-.64.41-1.05l2.65-18.58h.34l8.97,17.25,8.66-17.25h.31l2.75,18.65c.09.57.35,1.02.78,1.36.43.34.94.51,1.53.51Z"/><path class="cls-8" d="m203.25,23.91h.27v.34h-6.96v-.34h.27c.43,0,.76-.15.98-.44.23-.29.34-.57.34-.83s-.05-.51-.14-.76l-1.87-4.52h-8.59l-1.87,4.42c-.11.29-.17.57-.17.83s.11.54.34.85c.23.31.57.46,1.02.46h.27v.34h-6.49v-.34h.27c.48,0,.96-.16,1.44-.49.49-.33.89-.82,1.21-1.48,4.96-10.6,7.54-16.14,7.74-16.64.38-.95.59-1.58.61-1.9h.31l8.39,18.54c.66,1.31,1.53,1.97,2.62,1.97Zm-15.25-7.57h7.74l-3.8-9.31-3.94,9.31Z"/><path class="cls-21" d="m220.4,4.86v17.25c.02.7.36,1.22,1.02,1.56.29.16.62.24.98.24h.37v.34h-7v-.34h.41c.54,0,1.01-.18,1.39-.54.38-.36.59-.79.61-1.29V4.86h-6.15c-.52,0-.93.17-1.24.51-.31.34-.46.75-.46,1.22v.54h-.37v-3.84c.45.18,1.09.32,1.92.41s1.44.14,1.85.14h11.07c1.63,0,2.9-.18,3.8-.54v3.84h-.37v-.54c0-.48-.16-.88-.48-1.22-.32-.34-.73-.51-1.22-.51h-6.15Z"/><path class="cls-31" d="m273.15,23.91c.59,0,1.09-.2,1.51-.61.42-.41.64-.91.66-1.49v-8.8h-13.89v8.76c0,.59.21,1.09.65,1.51.43.42.94.63,1.53.63h.44v.34h-7.44v-.34h.44c.59,0,1.09-.21,1.51-.63s.64-.92.66-1.51V2.92c-.02-.59-.24-1.09-.66-1.5-.42-.41-.92-.61-1.51-.61h-.44v-.34h7.44v.34h-.44c-.59,0-1.09.2-1.51.61-.42.41-.64.91-.66,1.5v9.07h13.89V2.92c-.02-.82-.38-1.43-1.09-1.83-.34-.18-.7-.27-1.09-.27h-.44v-.34h7.44v.34h-.44c-.59,0-1.09.21-1.51.63s-.64.92-.66,1.51v18.82c.02.59.24,1.09.66,1.51.42.42.92.63,1.51.63h.44v.34h-7.44v-.34h.44Z"/><path class="cls-23" d="m313.09,23.91h.27v.34h-6.96v-.34h.27c.43,0,.76-.15.98-.44s.34-.57.34-.83-.05-.51-.14-.76l-1.87-4.52h-8.59l-1.87,4.42c-.11.29-.17.57-.17.83s.11.54.34.85c.23.31.57.46,1.02.46h.27v.34h-6.49v-.34h.27c.48,0,.96-.16,1.44-.49.49-.33.89-.82,1.21-1.48,4.96-10.6,7.54-16.14,7.74-16.64.38-.95.59-1.58.61-1.9h.31l8.39,18.54c.66,1.31,1.53,1.97,2.62,1.97Zm-15.25-7.57h7.74l-3.8-9.31-3.94,9.31Z"/><path class="cls-13" d="m329.91,4.93h-1.8v17.15c.02.7.34,1.24.95,1.6.29.16.62.24.99.24h.44l.03.34h-6.96v-.34h.48c.52,0,.97-.17,1.34-.53.37-.35.56-.78.56-1.27V5.98c0-.5-.19-.92-.56-1.26-.37-.34-.82-.51-1.34-.51h-.48v-.34h8.53c2.13,0,3.81.49,5.04,1.46,1.23.97,1.85,2.25,1.85,3.84s-.5,2.91-1.49,3.97c-1,1.06-2.26,1.68-3.8,1.83.73.32,1.6,1.2,2.62,2.65-.02,0,.37.5,1.17,1.5.8,1,1.45,1.77,1.94,2.33.49.56.89.98,1.21,1.27.84.79,1.8,1.19,2.89,1.19v.34h-1.05c-1.79,0-3.19-.35-4.21-1.05-.77-.52-1.47-1.17-2.11-1.94-.14-.18-.71-.98-1.72-2.39-1.01-1.41-1.55-2.17-1.61-2.26-1.22-1.52-2.37-2.28-3.43-2.28v-.34c2.65,0,4.25-.14,4.79-.41.75-.38,1.26-.79,1.53-1.22.57-.91.85-1.9.85-2.99,0-1.38-.41-2.45-1.22-3.19-.81-.75-1.91-1.15-3.29-1.22-.61-.02-1.31-.03-2.11-.03Z"/><path class="cls-9" d="m353.82,23.91c.61,0,1.14-.18,1.6-.54.45-.36.68-.79.68-1.29V6.05c0-.5-.23-.93-.68-1.29-.45-.36-1-.54-1.63-.54h-.44v-.34h7.68v.34h-.44c-.61,0-1.14.17-1.58.51-.44.34-.68.76-.73,1.26v16.13c.02.5.26.92.71,1.27.45.35.98.53,1.6.53h.44l.03.34h-7.71v-.34h.48Z"/><path class="cls-33" d="m397.4,1.53h-2.17v20.24c0,.59.21,1.09.63,1.51.42.42.93.63,1.55.63h.41l.03.34h-7.44v-.34h.44c.59,0,1.09-.2,1.51-.61.42-.41.64-.91.66-1.49V2.96c-.02-.59-.24-1.09-.66-1.51-.42-.42-.92-.63-1.51-.63h-.44v-.34h9.17c2.06,0,3.68.57,4.86,1.72,1.18,1.14,1.77,2.63,1.77,4.45s-.56,3.4-1.68,4.72c-1.12,1.32-2.49,1.99-4.09,1.99.34.16.74.47,1.21.93.46.46.88.95,1.24,1.44,1.95,2.78,3.21,4.5,3.8,5.15.59.65,1.01,1.09,1.26,1.32.25.24.52.47.81.7.29.23.59.41.88.54.66.32,1.36.47,2.1.47v.34h-1.87c-.97,0-1.88-.18-2.72-.53-.84-.35-1.47-.71-1.89-1.09-.42-.37-.78-.74-1.09-1.09-.31-.35-1.15-1.52-2.53-3.51-1.38-1.99-2.19-3.13-2.41-3.41-.23-.28-.46-.56-.71-.83-.72-.77-1.45-1.15-2.17-1.15v-.34c.18.02.42.03.71.03s.66-.01,1.09-.03c2.81-.07,4.57-1.25,5.3-3.53.14-.45.2-.88.2-1.27v-.76c-.05-1.52-.44-2.74-1.19-3.67-.75-.93-1.75-1.43-3.02-1.49-.54-.02-1.22-.03-2.04-.03Z"/><path class="cls-34" d="m440.9,23.91h.27v.34h-6.96v-.34h.27c.43,0,.76-.15.98-.44s.34-.57.34-.83-.05-.51-.14-.76l-1.87-4.52h-8.59l-1.87,4.42c-.11.29-.17.57-.17.83s.11.54.34.85.57.46,1.02.46h.27v.34h-6.49v-.34h.27c.48,0,.96-.16,1.44-.49.49-.33.89-.82,1.21-1.48,4.96-10.6,7.54-16.14,7.74-16.64.38-.95.59-1.58.61-1.9h.31l8.39,18.54c.66,1.31,1.53,1.97,2.62,1.97Zm-15.25-7.57h7.74l-3.8-9.31-3.94,9.31Z"/><path class="cls-6" d="m468.35,4.21h-.41c-.61,0-1.2.16-1.75.49-.56.33-1.01.74-1.38,1.24l-6.52,9.88v6.25c0,.5.19.93.58,1.29.38.36.85.54,1.39.54h.41v.34h-6.96v-.34h.41c.54,0,1.01-.18,1.39-.54s.58-.79.58-1.29v-6.28l-6.28-9.88c-.77-1.13-1.81-1.7-3.13-1.7h-.41v-.34h7.88v.34h-.41c-.43,0-.74.14-.93.41-.19.27-.29.5-.29.7s.02.37.07.53l4.96,8.8,5.26-8.76c.07-.18.1-.37.1-.56s-.1-.43-.29-.7c-.19-.27-.52-.41-.97-.41h-.41v-.34h7.1v.34Z"/><path class="cls-3" d="m496.03,23.91h.27v.34h-6.96v-.34h.27c.43,0,.76-.15.98-.44s.34-.57.34-.83-.05-.51-.14-.76l-1.87-4.52h-8.59l-1.87,4.42c-.11.29-.17.57-.17.83s.11.54.34.85.57.46,1.02.46h.27v.34h-6.49v-.34h.27c.48,0,.96-.16,1.44-.49.49-.33.89-.82,1.21-1.48,4.96-10.6,7.54-16.14,7.74-16.64.38-.95.59-1.58.61-1.9h.31l8.39,18.54c.66,1.31,1.53,1.97,2.62,1.97Zm-15.25-7.57h7.74l-3.8-9.31-3.94,9.31Z"/><path class="cls-16" d="m144.64,85.68l13.7-.29c3.39,0,5.08.25,5.08.73,0,1.27-6.87,2.39-20.62,3.37-8.76,17.77-13.13,29.87-13.13,36.31,0,4.49,1.36,6.74,4.1,6.74,1.03,0,2.33-.66,3.88-1.98s2.49-1.98,2.82-1.98.49.24.49.73c-.47,1.76-1.91,3.22-4.31,4.39-2.4,1.17-4.43,1.76-6.07,1.76s-2.94-.1-3.88-.29c-2.26-.88-3.39-3.71-3.39-8.49,0-9.86,3.62-22.4,10.87-37.63l-16.95.44c-12.62,12.79-25.28,24.01-37.99,33.68-19.02,14.35-33.89,21.52-44.63,21.52-.66,0-1.32-.05-1.98-.15-14.5-1.27-21.75-8.98-21.75-23.13,0-8.39,2.54-17.28,7.63-26.65,6.78-12.49,16.05-23.16,27.82-31.99,11.77-8.83,22.31-13.25,31.63-13.25s13.98,3.56,13.98,10.69c0,4.78-1.41,10.1-4.24,15.96-2.82,5.86-5.7,9.57-8.61,11.13-.28.1-.59.15-.92.15s-.49-.1-.49-.29l4.66-7.91c3.2-5.17,4.8-9.71,4.8-13.62s-.83-7.05-2.47-9.44c-1.65-2.39-4.26-3.59-7.84-3.59-7.34,0-16.12,4.25-26.34,12.74-10.22,8.49-17.98,18.94-23.3,31.33-5.32,12.4-7.98,22.06-7.98,28.99,0,10.44,5.13,15.67,15.39,15.67s23.07-6.54,39.82-19.62c7.44-5.76,19.53-16.64,36.29-32.65-3.3.2-6.36.54-9.18,1.02-6.03,1.17-8.85.98-8.47-.59.38-3.61,2.16-5.42,5.37-5.42,6.21.78,11.44,1.17,15.68,1.17,8.1-7.71,20.19-20.35,36.29-37.92,10.83-11.81,17.42-17.72,19.77-17.72,1.03,0,1.55.83,1.55,2.49s-.42,4.25-1.27,7.76c-.85,3.51-1.79,5.66-2.82,6.44-2.17,1.56-4.19,3.69-6.07,6.37-1.88,2.69-4.57,7.71-8.05,15.08-3.48,7.37-6.45,13.35-8.9,17.94Zm11.3-35.73l-36.15,35.14h8.33c1.98.1,4.42.15,7.34.15,2.73-5.56,9.55-17.33,20.48-35.29Z"/><path class="cls-2" d="m160.18,129.16c-4.8,0-7.2-3.22-7.2-9.66,0-5.27,2.78-12.57,8.33-21.89,5.55-9.32,10.03-14.03,13.42-14.13.94,0,2,.39,3.18,1.17,1.18.78,1.77,1.56,1.77,2.34-.47.68-1.04,1.44-1.69,2.27-.66.83-1.37,1.73-2.12,2.71-.75.98-1.79,2.37-3.11,4.17-1.32,1.81-2.59,3.54-3.81,5.2-7.06,9.47-10.59,15.99-10.59,19.55s1.18,5.34,3.53,5.34c1.98,0,4.66-1.12,8.05-3.37,7.91-5.07,14.17-10.64,18.78-16.69,1.69-2.24,2.85-3.37,3.46-3.37s.92.39.92,1.17-1.08,2.34-3.25,4.69c-2.17,2.34-3.88,4.2-5.15,5.56-1.27,1.37-2.14,2.27-2.61,2.71-.47.44-1.34,1.27-2.61,2.49-1.27,1.22-2.24,2.07-2.9,2.56-.66.49-1.6,1.22-2.82,2.2-1.22.98-2.31,1.68-3.25,2.12-.94.44-2.03.95-3.25,1.54-1.98.88-4.33,1.32-7.06,1.32Zm29.59-59.96c1.27.93,1.91,2.03,1.91,3.29s-.59,2.37-1.77,3.29c-1.18.93-2.47,1.39-3.88,1.39s-2.71-.54-3.88-1.61c-1.18-1.07-1.77-2.29-1.77-3.66,0-2.73,1.79-4.1,5.37-4.1,1.41,0,2.75.46,4.02,1.39Z"/><path class="cls-5" d="m233.47,83.19c10.54-17.77,17.89-26.65,22.03-26.65.66,0,1.58.22,2.75.66,1.18.44,1.77,1.1,1.77,1.98,0,.49-.24,1.12-.71,1.9-7.53,9.57-13.13,16.74-16.81,21.52-11.11,14.55-17.23,24.99-18.36,31.33-.28,1.37-.42,2.73-.42,4.1,0,4.39,1.74,6.59,5.23,6.59,6.97,0,16.05-6.69,27.26-20.06.94-.97,1.74-1.54,2.4-1.68.66-.15.99.02.99.51s-.28,1.07-.85,1.76c-10.92,13.57-20.62,21.14-29.09,22.7-.47.1-1.13.15-1.98.15-2.92,0-5.11-1.05-6.57-3.15-1.46-2.1-2.19-4.37-2.19-6.81,0-2.73.52-5.76,1.55-9.08l-11.44,11.86c-5.18,4.98-9.25,7.47-12.22,7.47s-5.44-.83-7.41-2.49c-2.35-1.85-3.53-4.44-3.53-7.76,0-7.12,4.8-15.64,14.4-25.55,9.6-9.91,18.4-14.86,26.41-14.86,2.63,0,4.47.73,5.51,2.2.38.49.8,1.61,1.27,3.37Zm-41.66,36.61c0,3.51,1.18,5.27,3.53,5.27,4.05,0,10.78-5.76,20.19-17.28,1.69-2.05,7.34-9.71,16.95-22.99-.66-1.17-1.79-1.76-3.39-1.76-5.84,0-13.51,4.61-23.02,13.84-9.51,9.22-14.26,16.86-14.26,22.92Z"/><path class="cls-29" d="m258.05,129.16c-4.8,0-7.2-3.22-7.2-9.66,0-5.27,2.78-12.57,8.33-21.89,5.55-9.32,10.03-14.03,13.42-14.13.94,0,2,.39,3.18,1.17,1.18.78,1.76,1.56,1.76,2.34-.47.68-1.04,1.44-1.69,2.27-.66.83-1.37,1.73-2.12,2.71-.75.98-1.79,2.37-3.11,4.17-1.32,1.81-2.59,3.54-3.81,5.2-7.06,9.47-10.59,15.99-10.59,19.55s1.18,5.34,3.53,5.34c1.98,0,4.66-1.12,8.05-3.37,7.91-5.07,14.17-10.64,18.78-16.69,1.69-2.24,2.85-3.37,3.46-3.37s.92.39.92,1.17-1.08,2.34-3.25,4.69c-2.17,2.34-3.88,4.2-5.15,5.56-1.27,1.37-2.14,2.27-2.61,2.71-.47.44-1.34,1.27-2.61,2.49-1.27,1.22-2.24,2.07-2.89,2.56-.66.49-1.6,1.22-2.82,2.2-1.22.98-2.31,1.68-3.25,2.12-.94.44-2.03.95-3.25,1.54-1.98.88-4.33,1.32-7.06,1.32Zm29.59-59.96c1.27.93,1.91,2.03,1.91,3.29s-.59,2.37-1.76,3.29c-1.18.93-2.47,1.39-3.88,1.39s-2.71-.54-3.88-1.61c-1.18-1.07-1.77-2.29-1.77-3.66,0-2.73,1.79-4.1,5.37-4.1,1.41,0,2.75.46,4.02,1.39Z"/><path class="cls-7" d="m290.38,120.23c0,2.93,1.55,4.39,4.66,4.39s7.11-1.71,12-5.12c4.89-3.42,9.65-8.05,14.26-13.91,1.13-1.56,2.02-2.34,2.68-2.34s.99.29.99.88-1.93,3.13-5.79,7.61c-9.42,10.74-17.28,16.11-23.58,16.11-3.11,0-5.74-.75-7.91-2.27-2.17-1.51-3.25-3.86-3.25-7.03s.8-6.86,2.4-11.05c2.73-6.64,7.11-14.98,13.13-25.04,11.02-18.55,18.83-27.82,23.44-27.82.94,0,1.91.37,2.89,1.1.99.73,1.53,1.54,1.62,2.42-2.17,3.03-6.33,8.84-12.5,17.43-6.17,8.59-10.43,14.77-12.78,18.52-2.35,3.76-4.12,6.57-5.3,8.42-1.18,1.86-2.05,3.29-2.61,4.32-.56,1.02-1.22,2.37-1.98,4.03-1.6,3.32-2.4,6.44-2.4,9.37Z"/><path class="cls-17" d="m376.81,55.95c0,3.03-.85,4.54-2.54,4.54-.47,0-.94-.39-1.41-1.17-.85-1.56-2.26-2.34-4.24-2.34-4.33,0-8.38,3.22-12.15,9.66-.75,1.27-3.11,5.86-7.06,13.76h1.69c10.26,0,17.09-.15,20.48-.44.38.1.56.29.56.59,0,.78-3.34,1.86-10.03,3.22-6.31,1.08-11.49,2-15.53,2.78-2.92,6.25-6.45,13.67-10.59,22.26-8.47,16.4-14.08,26.6-16.8,30.6-8.19,12.1-16.19,18.16-24.01,18.16-2.73,0-5.11-1.2-7.13-3.59-2.02-2.39-3.08-5.05-3.18-7.98.28-1.17.71-1.76,1.27-1.76.28,0,.47.34.56,1.02.56,2.54,1.51,4.49,2.82,5.86,1.32,1.37,2.68,2.05,4.1,2.05,8,0,15.3-5.13,21.89-15.37,3.76-5.86,8.9-16.4,15.39-31.63l7.63-19.04c-9.42-.1-14.12-1.27-14.12-3.51,0-.97.45-1.81,1.34-2.49.89-.68,1.67-1.02,2.33-1.02l13.27.29c9.23-21.28,17.7-31.92,25.42-31.92,2.92,0,5.88,1.46,8.9,4.39.75.78,1.13,1.81,1.13,3.07Z"/><path class="cls-24" d="m358.45,129.16c-4.8,0-7.2-3.22-7.2-9.66,0-5.27,2.78-12.57,8.33-21.89,5.55-9.32,10.03-14.03,13.42-14.13.94,0,2,.39,3.18,1.17,1.18.78,1.76,1.56,1.76,2.34-.47.68-1.04,1.44-1.69,2.27-.66.83-1.37,1.73-2.12,2.71-.75.98-1.79,2.37-3.11,4.17-1.32,1.81-2.59,3.54-3.81,5.2-7.06,9.47-10.59,15.99-10.59,19.55s1.18,5.34,3.53,5.34c1.98,0,4.66-1.12,8.05-3.37,7.91-5.07,14.17-10.64,18.78-16.69,1.69-2.24,2.85-3.37,3.46-3.37s.92.39.92,1.17-1.08,2.34-3.25,4.69c-2.17,2.34-3.88,4.2-5.15,5.56-1.27,1.37-2.14,2.27-2.61,2.71-.47.44-1.34,1.27-2.61,2.49-1.27,1.22-2.24,2.07-2.89,2.56-.66.49-1.6,1.22-2.82,2.2-1.22.98-2.31,1.68-3.25,2.12-.94.44-2.03.95-3.25,1.54-1.98.88-4.33,1.32-7.06,1.32Zm29.59-59.96c1.27.93,1.91,2.03,1.91,3.29s-.59,2.37-1.76,3.29c-1.18.93-2.47,1.39-3.88,1.39s-2.71-.54-3.88-1.61c-1.18-1.07-1.77-2.29-1.77-3.66,0-2.73,1.79-4.1,5.37-4.1,1.41,0,2.75.46,4.02,1.39Z"/><path class="cls-28" d="m422.14,80.4l20.34-.29c.28.2.42.34.42.44,0,.88-5.86,2.1-17.58,3.66-11.72,1.56-18.05,2.49-18.99,2.78-1.79,1.66-5.08,6.61-9.89,14.86-4.8,8.25-7.2,14.28-7.2,18.08s2.4,5.42,7.2,5.42c2.26,0,5.23-.73,8.9-2.2,3.67-1.46,6.5-2.83,8.47-4.1,5.27-3.42,10.92-8.44,16.95-15.08,1.32-1.37,2.21-2.05,2.68-2.05.28,0,.42.29.42.88s-.71,1.76-2.12,3.51c-4.9,6.25-10.4,11.28-16.52,15.08-7.34,4.69-14.36,7.03-21.04,7.03-2.92,0-5.3-.66-7.13-1.98-1.84-1.32-2.75-3.98-2.75-7.98s1.69-9.49,5.08-16.47c3.39-6.98,5.98-12.18,7.77-15.59-1.32.29-2.45.44-3.39.44-2.73,0-4.1-1.12-4.1-3.37,0-1.66,1.13-2.83,3.39-3.51.28,0,.71-.05,1.27-.15h8.19c1.69-2.24,3.62-4.83,5.79-7.76,2.63-3.51,4.42-5.27,5.37-5.27s2.12.39,3.53,1.17c1.41.78,2.12,1.71,2.12,2.78s-2.26,4.25-6.78,9.52c2.45.1,5.65.15,9.6.15Z"/><path class="cls-22" d="m456.04,128.29c-7.06,0-10.59-4.05-10.59-12.15,0-4.1,1.03-8.59,3.11-13.47,2.07-4.88,4.33-8.98,6.78-12.3-.47.1-1.08.15-1.84.15-2.26,0-4.14-1.66-5.65-4.98l-10.45,14.06c-5.84,7.52-9.23,11.27-10.17,11.27-.47,0-.71-.19-.71-.59,0-.97.8-2.39,2.4-4.25,8.19-9.86,13.98-18.2,17.37-25.04,2.16-8.49,4.89-12.74,8.19-12.74,2.16,0,3.25.98,3.25,2.93s-1.18,4.44-3.53,7.47l-3.39,4.69c0,2.05,1.46,3.07,4.38,3.07,1.69,0,3.58-.63,5.65-1.9l3.67-2.34c.19-.1.66-.15,1.41-.15s1.55.49,2.4,1.46c.85.98,1.13,1.86.85,2.64l-9.74,12.74c-6.03,8.01-9.04,14.33-9.04,18.96s2.07,6.96,6.21,6.96,9.65-2.39,15.96-7.17c3.76-2.83,7.2-6,10.31-9.52,2.92-3.51,4.52-5.27,4.8-5.27.66,0,.99.37.99,1.1s-.42,1.59-1.27,2.56l-4.52,5.27c-2.54,2.73-5.37,5.37-8.47,7.91-7.44,5.76-13.56,8.64-18.36,8.64Z"/><path class="cls-18" d="m487.95,129.16c-4.8,0-7.2-3.22-7.2-9.66,0-5.27,2.78-12.57,8.33-21.89,5.55-9.32,10.03-14.03,13.42-14.13.94,0,2,.39,3.18,1.17,1.18.78,1.76,1.56,1.76,2.34-.47.68-1.04,1.44-1.69,2.27-.66.83-1.37,1.73-2.12,2.71-.75.98-1.79,2.37-3.11,4.17-1.32,1.81-2.59,3.54-3.81,5.2-7.06,9.47-10.59,15.99-10.59,19.55s1.18,5.34,3.53,5.34c1.98,0,4.66-1.12,8.05-3.37,7.91-5.07,14.17-10.64,18.78-16.69,1.69-2.24,2.85-3.37,3.46-3.37s.92.39.92,1.17-1.08,2.34-3.25,4.69c-2.17,2.34-3.88,4.2-5.15,5.56-1.27,1.37-2.14,2.27-2.61,2.71-.47.44-1.34,1.27-2.61,2.49-1.27,1.22-2.24,2.07-2.89,2.56-.66.49-1.6,1.22-2.82,2.2-1.22.98-2.31,1.68-3.25,2.12-.94.44-2.03.95-3.25,1.54-1.98.88-4.33,1.32-7.06,1.32Zm29.59-59.96c1.27.93,1.91,2.03,1.91,3.29s-.59,2.37-1.76,3.29c-1.18.93-2.47,1.39-3.88,1.39s-2.71-.54-3.88-1.61c-1.18-1.07-1.77-2.29-1.77-3.66,0-2.73,1.79-4.1,5.37-4.1,1.41,0,2.75.46,4.02,1.39Z"/></g><text class="cls-35" transform="translate(0 189.78)"><tspan x="0" y="0">F</tspan><tspan class="cls-27" x="9.66" y="0">r</tspan><tspan class="cls-4" x="15.86" y="0">om </tspan><tspan class="cls-12" x="46.9" y="0">T</tspan><tspan x="56.48" y="0">he Manageme</tspan><tspan class="cls-32" x="172.4" y="0">n</tspan><tspan x="182.62" y="0">t and </tspan><tspan class="cls-15" x="228.56" y="0">S</tspan><tspan x="238.45" y="0">t</tspan><tspan class="cls-10" x="245.13" y="0">a</tspan><tspan x="254.46" y="0">ff </tspan><tspan class="cls-14" x="271.2" y="0">o</tspan><tspan x="281.5" y="0">f Allied Telesis Mal</tspan><tspan class="cls-19" x="430.39" y="0">ay</tspan><tspan x="448.78" y="0">sia Sdn Bhd</tspan></text></g></svg>