<?xml version="1.0" encoding="UTF-8"?><svg id="Layer_2" xmlns="http://www.w3.org/2000/svg" xmlns:xlink="http://www.w3.org/1999/xlink" viewBox="0 0 548.76 320.41"><defs><style>.cls-1{fill:none;stroke:#606161;stroke-width:.84px;}.cls-1,.cls-2{stroke-miterlimit:10;}.cls-3{fill:#fff;}.cls-4{fill:#acd036;}.cls-5{fill:#5e5f5e;}.cls-6{filter:url(#drop-shadow-1);}.cls-7{fill:#606161;}.cls-2{fill:url(#radial-gradient);stroke:url(#linear-gradient);stroke-width:1.42px;}.cls-8{fill:#f38d1f;}.cls-9{fill:#e41e25;}</style><radialGradient id="radial-gradient" cx="274.38" cy="160.2" fx="274.38" fy="160.2" r="254.2" gradientTransform="translate(-47.65) scale(1.17 1)" gradientUnits="userSpaceOnUse"><stop offset="0" stop-color="#1f76bc"/><stop offset=".69" stop-color="#1f3f68"/><stop offset="1" stop-color="#202641"/></radialGradient><linearGradient id="linear-gradient" x1="0" y1="160.2" x2="548.76" y2="160.2" gradientUnits="userSpaceOnUse"><stop offset="0" stop-color="#d27f39"/><stop offset=".08" stop-color="#d89849"/><stop offset=".24" stop-color="#e3c565"/><stop offset=".36" stop-color="#eae077"/><stop offset=".43" stop-color="#edeb7e"/><stop offset=".5" stop-color="#eae57a"/><stop offset=".59" stop-color="#e2d572"/><stop offset=".69" stop-color="#d5bb64"/><stop offset=".8" stop-color="#c39650"/><stop offset=".91" stop-color="#ad6737"/><stop offset="1" stop-color="#9a4022"/></linearGradient><filter id="drop-shadow-1" filterUnits="userSpaceOnUse"><feOffset dx="5.59" dy="5.59"/><feGaussianBlur result="blur" stdDeviation="1.66"/><feFlood flood-color="#231f20" flood-opacity=".3"/><feComposite in2="blur" operator="in"/><feComposite in="SourceGraphic"/></filter></defs><g id="Layer_1-2"><rect class="cls-2" x=".71" y=".71" width="547.34" height="318.99"/><path class="cls-3" d="m312.39,266.03s-16.19-32.94-70.8-68.12c0,0,.99-13.93-12.25-26.88-13.23-12.95-33.08-8.59-33.08-8.59,0,0-23.22-29.14,4.08-60.8,27.31-31.67,65.6-29.4,78.12-29.62,12.52-.22-2.96-9.15-2.96-9.15,0,0-55.37-2.89-84.83,31.27-29.46,34.16-10.15,71.13-3.39,76.38,0,0-8.43,36.22,44.3,32.84,0,0,56.86,41.66,68.87,66.25l11.92-3.57Z"/><path class="cls-3" d="m365.34,72.8h-2.18l-2.97-4.05-1.49,1.63v2.42h-1.81v-9.46h1.81v4.72l4.27-4.72h2.13l-3.63,4,3.86,5.46Z"/><path class="cls-3" d="m368.98,70.66c.42.42.99.64,1.7.64s1.27-.21,1.68-.64c.41-.42.61-1.01.61-1.76v-5.57h1.81v5.57c0,.82-.17,1.53-.5,2.14s-.81,1.07-1.43,1.4-1.34.49-2.18.49-1.58-.16-2.21-.49-1.11-.79-1.44-1.4-.5-1.32-.5-2.14v-5.57h1.81v5.57c0,.75.21,1.33.64,1.76Z"/><path class="cls-3" d="m383.65,72.8l-.84-2h-4.62l-.84,2h-1.88l4.15-9.46h1.88l4.09,9.46h-1.95Zm-4.81-3.55h3.32l-1.65-3.97-1.68,3.97Z"/><path class="cls-3" d="m386.74,63.34h1.81v7.82h4.08v1.64h-5.89v-9.46Z"/><path class="cls-3" d="m401.12,72.8l-.84-2h-4.62l-.84,2h-1.88l4.15-9.46h1.88l4.09,9.46h-1.95Zm-4.81-3.55h3.32l-1.65-3.97-1.68,3.97Z"/><path class="cls-3" d="m407.52,63.34h1.81v7.82h4.08v1.64h-5.89v-9.46Z"/><path class="cls-3" d="m417.1,70.66c.42.42.99.64,1.7.64s1.27-.21,1.68-.64c.41-.42.61-1.01.61-1.76v-5.57h1.81v5.57c0,.82-.17,1.53-.5,2.14s-.81,1.07-1.43,1.4-1.34.49-2.18.49-1.58-.16-2.21-.49-1.11-.79-1.44-1.4-.5-1.32-.5-2.14v-5.57h1.81v5.57c0,.75.21,1.33.64,1.76Z"/><path class="cls-3" d="m425.05,63.34h2.07l3.13,6.09,3.11-6.09h2.07v9.46h-1.66v-6.78l-2.95,5.81h-1.16l-2.96-5.81v6.78h-1.65v-9.46Z"/><path class="cls-3" d="m444.39,64.19c.65.57.98,1.37.98,2.4s-.33,1.92-.98,2.52c-.65.6-1.57.9-2.76.9h-2.07v2.78h-1.81v-9.46h3.88c1.19,0,2.11.28,2.76.85Zm-1.28,3.78c.37-.3.55-.74.55-1.32s-.18-1.01-.55-1.3c-.36-.29-.89-.43-1.57-.43h-1.97v3.5h1.97c.68,0,1.21-.15,1.57-.45Z"/><path class="cls-3" d="m449.14,70.66c.42.42.99.64,1.7.64s1.27-.21,1.68-.64c.41-.42.61-1.01.61-1.76v-5.57h1.81v5.57c0,.82-.17,1.53-.5,2.14s-.81,1.07-1.43,1.4-1.34.49-2.18.49-1.58-.16-2.21-.49-1.11-.79-1.44-1.4-.5-1.32-.5-2.14v-5.57h1.81v5.57c0,.75.21,1.33.64,1.76Z"/><path class="cls-3" d="m463,72.8l-1.63-2.8c-.07,0-.18.01-.34.01h-2.14v2.78h-1.81v-9.46h3.95c1.22,0,2.17.28,2.84.85.67.57,1,1.37,1,2.4,0,.74-.16,1.37-.48,1.89-.32.52-.79.91-1.4,1.18l2.08,3.13h-2.07Zm-4.11-4.38h2.14c.68,0,1.21-.15,1.57-.45.36-.3.54-.74.54-1.32s-.18-1.01-.54-1.3c-.36-.29-.88-.43-1.57-.43h-2.14v3.5Z"/><path class="cls-3" d="m372.93,81.38c-.46-.22-.92-.32-1.38-.32-.59,0-1.12.14-1.61.42-.49.28-.87.66-1.15,1.16-.28.49-.42,1.03-.42,1.61s.14,1.12.42,1.61c.28.49.66.88,1.15,1.16s1.02.43,1.61.43c.45,0,.9-.1,1.36-.3.46-.2.86-.47,1.21-.82l1.07,1.19c-.5.5-1.07.9-1.73,1.2-.66.29-1.32.44-2,.44-.91,0-1.74-.22-2.5-.65-.76-.43-1.35-1.02-1.78-1.76-.43-.74-.65-1.57-.65-2.47s.22-1.72.66-2.46c.44-.74,1.04-1.32,1.8-1.74.76-.42,1.61-.64,2.53-.64.68,0,1.34.14,1.99.41.65.27,1.2.64,1.66,1.12l-1.05,1.32c-.33-.39-.73-.69-1.18-.91Z"/><path class="cls-3" d="m376.67,79.55h1.81v9.46h-1.81v-9.46Z"/><path class="cls-3" d="m379.75,79.55h7.72v1.61h-2.95v7.85h-1.82v-7.85h-2.95v-1.61Z"/><path class="cls-3" d="m396.36,79.55l-3.45,6.36v3.09h-1.81v-3.03l-3.53-6.43h1.84l2.58,4.45,2.54-4.45h1.82Z"/><path class="cls-3" d="m406.5,81.38c-.46-.22-.92-.32-1.38-.32-.59,0-1.12.14-1.61.42-.49.28-.87.66-1.15,1.16-.28.49-.42,1.03-.42,1.61s.14,1.12.42,1.61c.28.49.66.88,1.15,1.16s1.02.43,1.61.43c.45,0,.9-.1,1.36-.3.46-.2.86-.47,1.21-.82l1.07,1.19c-.5.5-1.07.9-1.73,1.2-.66.29-1.32.44-2,.44-.91,0-1.74-.22-2.5-.65-.76-.43-1.35-1.02-1.78-1.76-.43-.74-.65-1.57-.65-2.47s.22-1.72.66-2.46c.44-.74,1.04-1.32,1.8-1.74.76-.42,1.61-.64,2.53-.64.68,0,1.34.14,1.99.41.65.27,1.2.64,1.66,1.12l-1.05,1.32c-.33-.39-.73-.69-1.18-.91Z"/><path class="cls-3" d="m410.23,79.55h6.93v1.58h-5.12v2.34h4.59v1.58h-4.59v2.38h5.28v1.58h-7.09v-9.46Z"/><path class="cls-3" d="m425.76,79.55h1.76v9.46h-1.72l-4.86-6.51v6.51h-1.77v-9.46h1.72l4.88,6.53v-6.53Z"/><path class="cls-3" d="m428.79,79.55h7.72v1.61h-2.95v7.85h-1.82v-7.85h-2.95v-1.61Z"/><path class="cls-3" d="m443.7,89.01l-1.63-2.8c-.07,0-.18.01-.34.01h-2.14v2.78h-1.81v-9.46h3.95c1.22,0,2.17.28,2.84.85.67.57,1,1.37,1,2.4,0,.74-.16,1.37-.48,1.89-.32.52-.79.91-1.4,1.18l2.08,3.13h-2.07Zm-4.11-4.38h2.14c.68,0,1.21-.15,1.57-.45.36-.3.54-.74.54-1.32s-.18-1.01-.54-1.3c-.36-.29-.88-.43-1.57-.43h-2.14v3.5Z"/><path class="cls-3" d="m447.55,79.55h6.93v1.58h-5.12v2.34h4.59v1.58h-4.59v2.38h5.28v1.58h-7.09v-9.46Z"/><path class="cls-3" d="m219.37,103.93c-.51-.16-.96-.24-1.35-.24-.43,0-.77.08-1.03.24-.25.16-.38.39-.38.68,0,.26.09.48.26.65s.4.32.66.43c.27.11.63.24,1.09.37.64.19,1.16.38,1.57.57.41.19.76.47,1.05.84s.43.86.43,1.46-.16,1.08-.47,1.51c-.31.43-.74.75-1.28.98-.55.23-1.17.34-1.87.34-.74,0-1.46-.14-2.16-.41s-1.32-.64-1.84-1.1l.76-1.54c.48.44,1.01.79,1.61,1.04s1.15.38,1.66.38.9-.1,1.19-.29c.29-.19.43-.46.43-.79,0-.27-.09-.49-.26-.67s-.4-.32-.67-.43c-.27-.11-.64-.23-1.11-.37-.64-.19-1.16-.37-1.57-.55-.41-.18-.75-.45-1.04-.82-.29-.36-.43-.84-.43-1.44,0-.55.15-1.03.44-1.44.29-.41.71-.73,1.24-.95.54-.23,1.16-.34,1.86-.34.61,0,1.22.09,1.82.27.6.18,1.13.42,1.6.73l-.73,1.58c-.49-.3-.98-.53-1.49-.69Z"/><path class="cls-3" d="m229.32,111.64l-1.63-2.8c-.07,0-.18.01-.34.01h-2.14v2.78h-1.81v-9.46h3.95c1.22,0,2.17.28,2.84.85.67.57,1,1.37,1,2.4,0,.74-.16,1.37-.48,1.89-.32.52-.79.91-1.4,1.18l2.08,3.13h-2.07Zm-4.11-4.38h2.14c.68,0,1.21-.15,1.57-.45.36-.3.54-.74.54-1.32s-.18-1.01-.54-1.3c-.36-.29-.88-.43-1.57-.43h-2.14v3.5Z"/><path class="cls-3" d="m233.17,102.19h1.81v9.46h-1.81v-9.46Z"/><path class="cls-3" d="m240.62,102.19h1.81v4.04h4.72v-4.04h1.81v9.46h-1.81v-3.84h-4.72v3.84h-1.81v-9.46Z"/><path class="cls-3" d="m258.29,111.64l-.84-2h-4.62l-.84,2h-1.88l4.15-9.46h1.88l4.09,9.46h-1.95Zm-4.81-3.55h3.32l-1.65-3.97-1.68,3.97Z"/><path class="cls-3" d="m267.3,111.64l-1.63-2.8c-.07,0-.18.01-.34.01h-2.14v2.78h-1.81v-9.46h3.95c1.22,0,2.17.28,2.84.85.67.57,1,1.37,1,2.4,0,.74-.16,1.37-.48,1.89-.32.52-.79.91-1.4,1.18l2.08,3.13h-2.07Zm-4.11-4.38h2.14c.68,0,1.21-.15,1.57-.45.36-.3.54-.74.54-1.32s-.18-1.01-.54-1.3c-.36-.29-.88-.43-1.57-.43h-2.14v3.5Z"/><path class="cls-3" d="m270.1,102.19h7.72v1.61h-2.95v7.85h-1.82v-7.85h-2.95v-1.61Z"/><path class="cls-3" d="m285.14,111.64l-.84-2h-4.62l-.84,2h-1.88l4.15-9.46h1.88l4.09,9.46h-1.95Zm-4.81-3.55h3.32l-1.65-3.97-1.68,3.97Z"/><path class="cls-3" d="m288.24,102.19h2.07l3.13,6.09,3.11-6.09h2.07v9.46h-1.66v-6.78l-2.95,5.81h-1.16l-2.96-5.81v6.78h-1.65v-9.46Z"/><path class="cls-3" d="m307.94,111.64l-.84-2h-4.62l-.84,2h-1.88l4.15-9.46h1.88l4.09,9.46h-1.95Zm-4.81-3.55h3.32l-1.65-3.97-1.68,3.97Z"/><path class="cls-3" d="m315.42,103.93c-.51-.16-.96-.24-1.35-.24-.43,0-.77.08-1.03.24-.25.16-.38.39-.38.68,0,.26.09.48.26.65s.4.32.66.43c.27.11.63.24,1.09.37.64.19,1.16.38,1.57.57.41.19.76.47,1.05.84s.43.86.43,1.46-.16,1.08-.47,1.51c-.31.43-.74.75-1.28.98-.55.23-1.17.34-1.87.34-.74,0-1.46-.14-2.16-.41s-1.32-.64-1.84-1.1l.76-1.54c.48.44,1.01.79,1.61,1.04s1.15.38,1.66.38.9-.1,1.19-.29c.29-.19.43-.46.43-.79,0-.27-.09-.49-.26-.67s-.4-.32-.67-.43c-.27-.11-.64-.23-1.11-.37-.64-.19-1.16-.37-1.57-.55-.41-.18-.75-.45-1.04-.82-.29-.36-.43-.84-.43-1.44,0-.55.15-1.03.44-1.44.29-.41.71-.73,1.24-.95.54-.23,1.16-.34,1.86-.34.61,0,1.22.09,1.82.27.6.18,1.13.42,1.6.73l-.73,1.58c-.49-.3-.98-.53-1.49-.69Z"/><path class="cls-3" d="m79.56,121.4c.58.42.87,1,.87,1.73,0,.52-.15.97-.44,1.34-.29.37-.7.62-1.21.75.63.12,1.12.39,1.48.81.36.42.53.95.53,1.58,0,.81-.31,1.45-.94,1.91-.63.46-1.48.7-2.56.7h-4.32v-9.46h4.2c1.01,0,1.8.21,2.39.64Zm-1.38,2.92c.27-.21.4-.5.4-.87s-.13-.64-.4-.84c-.27-.2-.63-.29-1.1-.28h-2.3v2.3h2.3c.47,0,.84-.1,1.1-.31Zm.25,4.01c.32-.23.49-.54.49-.95s-.16-.69-.49-.91c-.32-.22-.77-.33-1.35-.32h-2.3v2.5h2.3c.58,0,1.03-.1,1.35-.32Z"/><path class="cls-3" d="m84.83,128.09c.42.42.99.64,1.7.64s1.27-.21,1.68-.64c.41-.42.61-1.01.61-1.76v-5.57h1.81v5.57c0,.82-.17,1.53-.5,2.14s-.81,1.07-1.43,1.4-1.34.49-2.18.49-1.58-.16-2.21-.49-1.11-.79-1.44-1.4-.5-1.32-.5-2.14v-5.57h1.81v5.57c0,.75.21,1.33.64,1.76Z"/><path class="cls-3" d="m101.22,130.22h-2.18l-2.97-4.05-1.49,1.63v2.42h-1.81v-9.46h1.81v4.72l4.27-4.72h2.13l-3.63,4,3.86,5.46Z"/><path class="cls-3" d="m102.58,120.76h1.81v9.46h-1.81v-9.46Z"/><path class="cls-3" d="m105.66,120.76h7.72v1.61h-2.95v7.85h-1.82v-7.85h-2.95v-1.61Z"/><path class="cls-3" d="m126.42,130.22h-2.18l-2.97-4.05-1.49,1.63v2.42h-1.81v-9.46h1.81v4.72l4.27-4.72h2.13l-3.63,4,3.86,5.46Z"/><path class="cls-3" d="m127.78,120.76h1.81v9.46h-1.81v-9.46Z"/><path class="cls-3" d="m138.92,130.22l-.84-2h-4.62l-.84,2h-1.88l4.15-9.46h1.88l4.09,9.46h-1.95Zm-4.81-3.55h3.32l-1.65-3.97-1.68,3.97Z"/><path class="cls-3" d="m147.93,130.22l-1.63-2.8c-.07,0-.18.01-.34.01h-2.14v2.78h-1.81v-9.46h3.95c1.22,0,2.17.28,2.84.85.67.57,1,1.37,1,2.4,0,.74-.16,1.37-.48,1.89-.32.52-.79.91-1.4,1.18l2.08,3.13h-2.07Zm-4.11-4.38h2.14c.68,0,1.21-.15,1.57-.45.36-.3.54-.74.54-1.32s-.18-1.01-.54-1.3c-.36-.29-.88-.43-1.57-.43h-2.14v3.5Z"/><path class="cls-3" d="m158.78,130.22l-.84-2h-4.62l-.84,2h-1.88l4.15-9.46h1.88l4.09,9.46h-1.95Zm-4.81-3.55h3.32l-1.65-3.97-1.68,3.97Z"/><path class="cls-3" d="m219.06,126.48h1.1v6.49h-1.19l-3.68-4.74v4.74h-1.1v-6.49h1.1l3.77,4.85v-4.85Z"/><path class="cls-3" d="m225.82,132.98h-.95v-.66c-.41.49-.96.73-1.64.73-.51,0-.94-.15-1.28-.44-.34-.29-.51-.68-.51-1.17s.18-.85.54-1.09c.36-.24.84-.36,1.46-.36h1.35v-.19c0-.66-.37-.98-1.1-.98-.46,0-.94.17-1.43.5l-.47-.65c.6-.48,1.28-.72,2.04-.72.58,0,1.06.15,1.43.44.37.29.55.76.55,1.39v3.19Zm-1.04-1.84v-.42h-1.17c-.75,0-1.12.24-1.12.71,0,.24.09.43.28.55.19.13.44.19.78.19s.62-.09.87-.28c.25-.19.37-.44.37-.75Z"/><path class="cls-3" d="m228.49,128.87v2.51c0,.24.06.42.19.56s.3.21.52.21.44-.11.64-.33l.43.73c-.37.33-.77.49-1.21.49s-.82-.15-1.13-.46c-.31-.31-.47-.72-.47-1.24v-2.48h-.62v-.84h.62v-1.55h1.04v1.55h1.3v.84h-1.3Z"/><path class="cls-3" d="m231.16,127.05c-.13-.13-.19-.29-.19-.47s.07-.33.19-.46c.13-.13.29-.19.47-.19s.33.06.46.19c.13.13.2.29.2.46s-.07.33-.2.47-.28.19-.46.19-.33-.07-.47-.19Zm.98,5.93h-1.04v-4.94h1.04v4.94Z"/><path class="cls-3" d="m237.77,132.31c-.49.49-1.12.74-1.86.74s-1.36-.25-1.86-.74-.74-1.1-.74-1.81.25-1.31.74-1.81,1.11-.74,1.86-.74,1.36.25,1.86.74c.5.49.74,1.09.74,1.81s-.25,1.31-.74,1.81Zm-2.98-.64c.29.3.67.45,1.12.45s.82-.15,1.12-.45c.29-.3.44-.69.44-1.17s-.15-.87-.44-1.17-.67-.45-1.12-.45-.83.15-1.12.45c-.29.3-.44.69-.44,1.17s.15.87.44,1.17Z"/><path class="cls-3" d="m240.74,130.3v2.68h-1.04v-4.94h1.04v.9c.17-.3.4-.54.69-.72.29-.17.61-.26.95-.26.56,0,1.01.17,1.35.51.34.34.52.83.52,1.48v3.03h-1.04v-2.71c0-.91-.38-1.37-1.13-1.37-.36,0-.67.12-.94.36-.27.24-.4.59-.4,1.04Z"/><path class="cls-3" d="m249.7,132.98h-.95v-.66c-.41.49-.96.73-1.64.73-.51,0-.94-.15-1.28-.44-.34-.29-.51-.68-.51-1.17s.18-.85.54-1.09c.36-.24.85-.36,1.46-.36h1.35v-.19c0-.66-.37-.98-1.1-.98-.46,0-.94.17-1.43.5l-.46-.65c.6-.48,1.28-.72,2.04-.72.58,0,1.06.15,1.43.44.37.29.55.76.55,1.39v3.19Zm-1.04-1.84v-.42h-1.17c-.75,0-1.12.24-1.12.71,0,.24.09.43.28.55.18.13.44.19.78.19s.62-.09.87-.28.37-.44.37-.75Z"/><path class="cls-3" d="m252.19,132.98h-1.04v-6.89h1.04v6.89Z"/><path class="cls-3" d="m258.35,127.34c-.32,0-.58.07-.79.19-.2.13-.31.33-.31.59s.1.46.31.6c.2.14.64.29,1.31.45.67.16,1.17.39,1.5.68.34.29.51.72.51,1.29s-.21,1.03-.64,1.38c-.43.35-.99.53-1.68.53-1.02,0-1.92-.35-2.7-1.05l.69-.83c.66.57,1.34.85,2.04.85.35,0,.63-.08.84-.23.21-.15.31-.35.31-.6s-.1-.45-.29-.59-.53-.27-1.01-.38c-.48-.11-.84-.22-1.09-.32-.25-.1-.47-.22-.66-.38-.38-.29-.58-.74-.58-1.34s.22-1.06.65-1.39c.44-.32.98-.49,1.62-.49.41,0,.83.07,1.24.2s.76.33,1.06.58l-.59.83c-.19-.17-.45-.32-.78-.43-.33-.11-.65-.17-.97-.17Z"/><path class="cls-3" d="m264.28,133.05c-.69,0-1.28-.23-1.77-.7-.5-.47-.74-1.08-.74-1.83s.26-1.37.78-1.84c.52-.47,1.15-.71,1.89-.71s1.37.26,1.89.77l-.61.75c-.43-.37-.86-.56-1.29-.56s-.81.14-1.13.43c-.32.29-.48.66-.48,1.11s.16.84.47,1.16.7.47,1.17.47.9-.21,1.3-.63l.61.67c-.6.61-1.29.91-2.08.91Z"/><path class="cls-3" d="m267.51,127.05c-.13-.13-.2-.29-.2-.47s.07-.33.2-.46c.13-.13.28-.19.46-.19s.33.06.47.19.19.29.19.46-.06.33-.19.47c-.13.13-.29.19-.47.19s-.33-.07-.46-.19Zm.98,5.93h-1.04v-4.94h1.04v4.94Z"/><path class="cls-3" d="m274.59,130.96h-3.87c.02.36.19.65.49.87s.65.33,1.04.33c.62,0,1.09-.2,1.41-.59l.59.65c-.53.55-1.23.83-2.08.83-.69,0-1.28-.23-1.77-.69-.49-.46-.73-1.08-.73-1.86s.25-1.39.74-1.85c.5-.46,1.08-.69,1.75-.69s1.24.2,1.71.61c.47.41.71.96.71,1.68v.72Zm-3.87-.82h2.83c0-.41-.13-.73-.39-.96-.26-.22-.58-.33-.96-.33s-.72.12-1.03.35c-.3.23-.46.55-.46.94Z"/><path class="cls-3" d="m276.77,130.3v2.68h-1.04v-4.94h1.04v.9c.17-.3.4-.54.69-.72s.61-.26.95-.26c.56,0,1.01.17,1.35.51.34.34.51.83.51,1.48v3.03h-1.04v-2.71c0-.91-.38-1.37-1.13-1.37-.36,0-.67.12-.94.36-.27.24-.4.59-.4,1.04Z"/><path class="cls-3" d="m283.92,133.05c-.69,0-1.28-.23-1.77-.7s-.74-1.08-.74-1.83.26-1.37.78-1.84c.52-.47,1.15-.71,1.89-.71s1.37.26,1.89.77l-.61.75c-.43-.37-.86-.56-1.29-.56s-.81.14-1.13.43c-.32.29-.48.66-.48,1.11s.16.84.47,1.16c.32.32.7.47,1.17.47s.9-.21,1.3-.63l.61.67c-.6.61-1.29.91-2.08.91Z"/><path class="cls-3" d="m291.68,130.96h-3.87c.02.36.19.65.49.87s.65.33,1.04.33c.62,0,1.09-.2,1.41-.59l.59.65c-.53.55-1.23.83-2.08.83-.69,0-1.28-.23-1.77-.69-.49-.46-.73-1.08-.73-1.86s.25-1.39.74-1.85c.49-.46,1.08-.69,1.75-.69s1.24.2,1.71.61.71.96.71,1.68v.72Zm-3.87-.82h2.83c0-.41-.13-.73-.39-.96-.26-.22-.58-.33-.96-.33s-.72.12-1.03.35c-.3.23-.46.55-.46.94Z"/><path class="cls-3" d="m298.48,131.98c.38,0,.7-.06.98-.19.27-.13.56-.33.85-.61l.71.72c-.69.76-1.52,1.14-2.5,1.14s-1.8-.32-2.44-.95c-.65-.63-.97-1.43-.97-2.4s.33-1.77.99-2.42c.66-.64,1.49-.97,2.5-.97s1.85.37,2.52,1.12l-.7.76c-.31-.3-.6-.5-.88-.62-.28-.12-.6-.18-.97-.18-.66,0-1.21.21-1.65.64-.45.42-.67.97-.67,1.63s.22,1.21.66,1.65c.44.44.97.66,1.57.66Z"/><path class="cls-3" d="m306.8,130.96h-3.87c.02.36.19.65.49.87s.65.33,1.04.33c.62,0,1.09-.2,1.41-.59l.59.65c-.53.55-1.23.83-2.08.83-.69,0-1.28-.23-1.77-.69-.49-.46-.73-1.08-.73-1.86s.25-1.39.74-1.85c.49-.46,1.08-.69,1.75-.69s1.24.2,1.71.61.71.96.71,1.68v.72Zm-3.87-.82h2.83c0-.41-.13-.73-.39-.96-.26-.22-.58-.33-.96-.33s-.72.12-1.03.35c-.3.23-.46.55-.46.94Z"/><path class="cls-3" d="m308.98,130.3v2.68h-1.04v-4.94h1.04v.9c.17-.3.4-.54.69-.72s.61-.26.95-.26c.56,0,1.01.17,1.35.51.34.34.52.83.52,1.48v3.03h-1.04v-2.71c0-.91-.38-1.37-1.13-1.37-.36,0-.67.12-.94.36s-.4.59-.4,1.04Z"/><path class="cls-3" d="m315.16,128.87v2.51c0,.24.06.42.19.56s.3.21.52.21.44-.11.64-.33l.43.73c-.37.33-.77.49-1.21.49s-.82-.15-1.13-.46c-.31-.31-.47-.72-.47-1.24v-2.48h-.62v-.84h.62v-1.55h1.04v1.55h1.3v.84h-1.3Z"/><path class="cls-3" d="m320.35,129.01c-.51,0-.9.17-1.16.5-.26.33-.39.78-.39,1.35v2.12h-1.04v-4.94h1.04v.99c.17-.31.4-.56.68-.76.29-.2.59-.3.91-.31v1.05h-.05Z"/><path class="cls-3" d="m326.05,130.96h-3.87c.02.36.19.65.49.87s.65.33,1.04.33c.62,0,1.09-.2,1.41-.59l.59.65c-.53.55-1.23.83-2.08.83-.69,0-1.28-.23-1.77-.69-.49-.46-.73-1.08-.73-1.86s.25-1.39.74-1.85c.49-.46,1.08-.69,1.75-.69s1.24.2,1.71.61.71.96.71,1.68v.72Zm-3.87-.82h2.83c0-.41-.13-.73-.39-.96-.26-.22-.58-.33-.96-.33s-.72.12-1.03.35c-.3.23-.46.55-.46.94Z"/><path class="cls-3" d="m236.33,151.45c-.32,0-.58.07-.79.19-.2.13-.31.33-.31.59s.1.46.31.6c.2.14.64.29,1.31.45s1.17.39,1.51.68c.34.29.51.72.51,1.29s-.21,1.03-.64,1.38c-.43.35-.99.53-1.68.53-1.02,0-1.92-.35-2.7-1.05l.69-.83c.66.57,1.34.85,2.04.85.35,0,.63-.08.84-.23.21-.15.31-.35.31-.6s-.1-.45-.29-.59c-.19-.14-.53-.27-1.01-.38-.48-.11-.84-.22-1.09-.32-.25-.1-.47-.22-.66-.38-.38-.29-.58-.74-.58-1.34s.22-1.06.65-1.39c.44-.32.98-.49,1.62-.49.41,0,.83.07,1.24.2s.76.33,1.06.58l-.59.83c-.19-.17-.45-.32-.78-.43-.33-.11-.65-.17-.97-.17Z"/><path class="cls-3" d="m244.66,155.07h-3.87c.02.36.19.65.49.87s.65.33,1.04.33c.62,0,1.09-.2,1.41-.59l.59.65c-.53.55-1.23.83-2.08.83-.69,0-1.28-.23-1.77-.69-.49-.46-.73-1.08-.73-1.86s.25-1.39.74-1.85c.49-.46,1.08-.69,1.75-.69s1.24.2,1.71.61.71.96.71,1.68v.72Zm-3.87-.82h2.83c0-.41-.13-.73-.39-.96-.26-.22-.58-.33-.96-.33s-.72.12-1.03.35c-.3.23-.46.55-.46.94Z"/><path class="cls-3" d="m248,157.16c-.69,0-1.28-.23-1.77-.7-.5-.47-.74-1.08-.74-1.83s.26-1.37.78-1.84c.52-.47,1.15-.71,1.89-.71s1.37.26,1.89.77l-.61.75c-.43-.37-.86-.56-1.29-.56s-.81.14-1.13.43c-.32.29-.48.66-.48,1.11s.16.84.47,1.16.7.47,1.17.47.9-.21,1.3-.63l.61.67c-.6.61-1.29.91-2.08.91Z"/><path class="cls-3" d="m254.61,154.82v-2.68h1.04v4.94h-1.04v-.9c-.17.3-.4.54-.69.72-.29.17-.61.26-.95.26-.56,0-1.01-.17-1.35-.51s-.52-.83-.52-1.48v-3.03h1.04v2.71c0,.91.38,1.36,1.13,1.36.36,0,.67-.12.94-.36s.4-.59.4-1.04Z"/><path class="cls-3" d="m259.75,153.12c-.51,0-.9.17-1.16.5-.26.33-.39.78-.39,1.35v2.12h-1.04v-4.94h1.04v.99c.17-.31.4-.56.68-.76.29-.2.59-.3.91-.31v1.05h-.05Z"/><path class="cls-3" d="m260.91,151.16c-.13-.13-.19-.29-.19-.47s.07-.33.19-.46c.13-.13.29-.19.46-.19s.33.06.47.19c.13.13.19.29.19.46s-.07.33-.19.47c-.13.13-.29.19-.47.19s-.33-.07-.46-.19Zm.98,5.93h-1.04v-4.94h1.04v4.94Z"/><path class="cls-3" d="m264.67,152.98v2.51c0,.24.06.42.19.56s.3.21.52.21.44-.11.64-.33l.43.73c-.37.33-.77.49-1.21.49s-.82-.15-1.13-.46c-.31-.31-.47-.72-.47-1.24v-2.48h-.62v-.84h.62v-1.55h1.04v1.55h1.3v.84h-1.3Z"/><path class="cls-3" d="m267.34,151.16c-.13-.13-.19-.29-.19-.47s.07-.33.19-.46c.13-.13.29-.19.46-.19s.33.06.47.19c.13.13.19.29.19.46s-.07.33-.19.47c-.13.13-.29.19-.47.19s-.33-.07-.46-.19Zm.98,5.93h-1.04v-4.94h1.04v4.94Z"/><path class="cls-3" d="m274.42,155.07h-3.87c.02.36.19.65.49.87s.65.33,1.04.33c.62,0,1.09-.2,1.41-.59l.59.65c-.53.55-1.23.83-2.08.83-.69,0-1.28-.23-1.77-.69-.49-.46-.73-1.08-.73-1.86s.25-1.39.74-1.85c.49-.46,1.08-.69,1.75-.69s1.24.2,1.71.61.71.96.71,1.68v.72Zm-3.87-.82h2.83c0-.41-.13-.73-.39-.96-.26-.22-.58-.33-.96-.33s-.72.12-1.03.35c-.3.23-.46.55-.46.94Z"/><path class="cls-3" d="m279.08,155.61c0,.47-.17.85-.51,1.13-.34.28-.78.42-1.31.42-.36,0-.73-.07-1.12-.19-.39-.13-.73-.31-1.03-.55l.5-.81c.58.43,1.13.65,1.67.65.24,0,.42-.05.56-.16.14-.11.2-.25.2-.41,0-.25-.33-.47-.98-.67-.05-.02-.09-.03-.11-.04-1.03-.28-1.54-.74-1.54-1.39,0-.46.18-.82.53-1.1s.82-.41,1.39-.41,1.11.17,1.62.5l-.39.77c-.4-.27-.84-.4-1.31-.4-.25,0-.45.05-.6.14s-.23.22-.23.4c0,.16.08.28.24.35.11.06.27.11.47.16s.38.1.53.15c.16.05.31.11.45.17.15.06.3.15.47.26.33.22.5.57.5,1.04Z"/><path class="cls-3" d="m237.32,167.24c.38,0,.7-.06.98-.19.27-.13.56-.33.85-.61l.71.72c-.69.76-1.52,1.14-2.5,1.14s-1.8-.32-2.44-.95-.97-1.43-.97-2.4.33-1.77.99-2.42c.66-.64,1.49-.97,2.5-.97s1.85.37,2.52,1.12l-.7.76c-.31-.3-.6-.5-.88-.62-.28-.12-.6-.18-.97-.18-.66,0-1.21.21-1.65.64-.45.42-.67.97-.67,1.63s.22,1.21.66,1.65c.44.44.97.66,1.57.66Z"/><path class="cls-3" d="m245.04,167.57c-.5.49-1.12.74-1.86.74s-1.36-.25-1.86-.74c-.5-.49-.74-1.1-.74-1.81s.25-1.31.74-1.81c.49-.49,1.11-.74,1.86-.74s1.36.25,1.86.74.74,1.09.74,1.81-.25,1.31-.74,1.81Zm-2.98-.64c.29.3.67.45,1.12.45s.83-.15,1.12-.45c.29-.3.44-.69.44-1.17s-.15-.87-.44-1.17c-.29-.3-.67-.45-1.12-.45s-.82.15-1.12.45-.44.69-.44,1.17.15.87.44,1.17Z"/><path class="cls-3" d="m248.01,165.56v2.68h-1.04v-4.94h1.04v.9c.15-.3.37-.54.67-.72.3-.17.62-.26.97-.26.78,0,1.31.32,1.59.97.49-.64,1.1-.97,1.83-.97.56,0,1.01.17,1.35.51s.52.83.52,1.48v3.03h-1.04v-2.71c0-.91-.38-1.37-1.13-1.37-.35,0-.66.11-.92.34s-.4.56-.41.99v2.75h-1.04v-2.71c0-.47-.08-.82-.25-1.04-.17-.22-.43-.33-.79-.33s-.67.12-.94.36-.4.59-.4,1.04Z"/><path class="cls-3" d="m257.43,165.56v2.68h-1.04v-4.94h1.04v.9c.15-.3.37-.54.67-.72.3-.17.62-.26.97-.26.78,0,1.31.32,1.59.97.49-.64,1.1-.97,1.83-.97.56,0,1.01.17,1.35.51s.52.83.52,1.48v3.03h-1.04v-2.71c0-.91-.38-1.37-1.13-1.37-.35,0-.66.11-.92.34s-.4.56-.41.99v2.75h-1.04v-2.71c0-.47-.08-.82-.25-1.04-.17-.22-.43-.33-.79-.33s-.67.12-.94.36-.4.59-.4,1.04Z"/><path class="cls-3" d="m265.87,162.31c-.13-.13-.19-.29-.19-.47s.07-.33.19-.46c.13-.13.29-.19.46-.19s.33.06.47.19c.13.13.19.29.19.46s-.07.33-.19.47c-.13.13-.29.19-.47.19s-.33-.07-.46-.19Zm.98,5.93h-1.04v-4.94h1.04v4.94Z"/><path class="cls-3" d="m271.87,166.76c0,.47-.17.85-.51,1.13-.34.28-.78.42-1.31.42-.36,0-.73-.07-1.12-.19-.39-.13-.73-.31-1.03-.55l.5-.81c.58.43,1.13.65,1.67.65.24,0,.42-.05.56-.16.14-.11.2-.25.2-.41,0-.25-.33-.47-.98-.67-.05-.02-.09-.03-.11-.04-1.03-.28-1.54-.74-1.54-1.39,0-.46.18-.82.53-1.1s.82-.41,1.39-.41,1.11.17,1.62.5l-.39.77c-.4-.27-.84-.4-1.31-.4-.25,0-.45.05-.6.14s-.23.22-.23.4c0,.16.08.28.24.35.11.06.27.11.47.16s.38.1.53.15c.16.05.31.11.45.17.15.06.3.15.47.26.33.22.5.57.5,1.04Z"/><path class="cls-3" d="m276.57,166.76c0,.47-.17.85-.51,1.13-.34.28-.78.42-1.31.42-.36,0-.73-.07-1.12-.19-.39-.13-.73-.31-1.03-.55l.5-.81c.58.43,1.13.65,1.67.65.24,0,.42-.05.56-.16.14-.11.2-.25.2-.41,0-.25-.33-.47-.98-.67-.05-.02-.09-.03-.11-.04-1.03-.28-1.54-.74-1.54-1.39,0-.46.18-.82.53-1.1s.82-.41,1.39-.41,1.11.17,1.62.5l-.39.77c-.4-.27-.84-.4-1.31-.4-.25,0-.45.05-.6.14s-.23.22-.23.4c0,.16.08.28.24.35.11.06.27.11.47.16s.38.1.53.15c.16.05.31.11.45.17.15.06.3.15.47.26.33.22.5.57.5,1.04Z"/><path class="cls-3" d="m277.82,162.31c-.13-.13-.19-.29-.19-.47s.07-.33.19-.46c.13-.13.29-.19.46-.19s.33.06.47.19c.13.13.19.29.19.46s-.07.33-.19.47c-.13.13-.29.19-.47.19s-.33-.07-.46-.19Zm.98,5.93h-1.04v-4.94h1.04v4.94Z"/><path class="cls-3" d="m284.43,167.57c-.5.49-1.12.74-1.86.74s-1.36-.25-1.86-.74-.74-1.1-.74-1.81.25-1.31.74-1.81,1.12-.74,1.86-.74,1.36.25,1.86.74.74,1.09.74,1.81-.25,1.31-.74,1.81Zm-2.98-.64c.29.3.67.45,1.12.45s.83-.15,1.12-.45c.29-.3.44-.69.44-1.17s-.15-.87-.44-1.17c-.29-.3-.67-.45-1.12-.45s-.83.15-1.12.45c-.29.3-.44.69-.44,1.17s.15.87.44,1.17Z"/><path class="cls-3" d="m287.4,165.56v2.68h-1.04v-4.94h1.04v.9c.17-.3.4-.54.69-.72s.61-.26.95-.26c.56,0,1.01.17,1.35.51.34.34.52.83.52,1.48v3.03h-1.04v-2.71c0-.91-.38-1.37-1.13-1.37-.36,0-.67.12-.94.36s-.4.59-.4,1.04Z"/><path class="cls-3" d="m261.01,178.37h1.1v6.49h-1.1v-6.49Z"/><path class="cls-3" d="m268.78,178.37h1.1v6.49h-1.19l-3.68-4.74v4.74h-1.1v-6.49h1.1l3.77,4.85v-4.85Z"/><path class="cls-3" d="m274.13,179.37v5.49h-1.1v-5.49h-1.97v-1h5.03v1h-1.97Z"/><path class="cls-3" d="m277.69,183.38l-.65,1.48h-1.17l2.86-6.49h1.17l2.86,6.49h-1.17l-.65-1.48h-3.25Zm2.8-1.01l-1.18-2.68-1.18,2.68h2.36Z"/><path class="cls-3" d="m288.54,178.37h1.1v6.49h-1.19l-3.68-4.74v4.74h-1.1v-6.49h1.1l3.77,4.85v-4.85Z"/><path class="cls-3" d="m102.57,147.7h-2.84v-6.49h2.53c.44,0,.82.05,1.14.16s.56.25.71.43c.3.33.45.71.45,1.13,0,.51-.16.89-.48,1.13-.12.09-.2.14-.24.16-.04.02-.12.06-.23.11.4.09.72.27.96.54s.36.62.36,1.03c0,.45-.16.85-.47,1.2-.37.4-.99.6-1.88.6Zm-1.75-3.8h1.39c.79,0,1.19-.27,1.19-.81,0-.31-.1-.53-.29-.67-.19-.14-.49-.2-.89-.2h-1.4v1.68Zm0,2.79h1.72c.4,0,.71-.06.92-.19s.32-.37.32-.72c0-.58-.46-.86-1.38-.86h-1.58v1.77Z"/><path class="cls-3" d="m109.59,145.44v-2.68h1.04v4.94h-1.04v-.9c-.17.3-.4.54-.69.72-.29.17-.61.26-.95.26-.56,0-1.01-.17-1.35-.51s-.52-.83-.52-1.48v-3.03h1.04v2.71c0,.91.38,1.36,1.13,1.36.36,0,.67-.12.94-.36.27-.24.4-.59.4-1.04Z"/><path class="cls-3" d="m113.18,147.7h-1.04v-6.89h1.04v4.05l2.01-2.1h1.34l-1.88,1.96,2.02,2.98h-1.26l-1.47-2.16-.75.76v1.4Z"/><path class="cls-3" d="m117.6,141.78c-.13-.13-.19-.29-.19-.47s.07-.33.19-.46c.13-.13.29-.19.47-.19s.33.06.46.19.19.29.19.46-.06.33-.19.47c-.13.13-.29.19-.46.19s-.33-.07-.47-.19Zm.98,5.93h-1.04v-4.94h1.04v4.94Z"/><path class="cls-3" d="m121.36,143.6v2.51c0,.24.06.42.19.56s.3.21.52.21.44-.11.64-.33l.43.73c-.37.33-.77.49-1.21.49s-.82-.15-1.13-.46c-.31-.31-.47-.72-.47-1.24v-2.48h-.62v-.84h.62v-1.55h1.04v1.55h1.3v.84h-1.3Z"/><path class="cls-3" d="m126.65,141.21h1.1v3.17l2.97-3.17h1.39l-2.61,2.84,2.65,3.65h-1.3l-2.16-2.84-.95,1.02v1.82h-1.1v-6.49Z"/><path class="cls-3" d="m133.11,141.78c-.13-.13-.2-.29-.2-.47s.07-.33.2-.46.28-.19.46-.19.33.06.46.19c.13.13.2.29.2.46s-.07.33-.2.47-.28.19-.46.19-.33-.07-.46-.19Zm.98,5.93h-1.04v-4.94h1.04v4.94Z"/><path class="cls-3" d="m139.59,147.7h-.95v-.66c-.41.49-.96.73-1.64.73-.51,0-.94-.15-1.28-.44-.34-.29-.51-.68-.51-1.17s.18-.85.54-1.09c.36-.24.85-.36,1.46-.36h1.35v-.19c0-.66-.37-.98-1.1-.98-.46,0-.94.17-1.43.5l-.46-.65c.6-.48,1.28-.72,2.04-.72.58,0,1.06.15,1.43.44.37.29.55.76.55,1.39v3.19Zm-1.04-1.84v-.42h-1.17c-.75,0-1.12.24-1.12.71,0,.24.09.43.28.55s.44.19.78.19.62-.09.87-.28c.25-.19.37-.44.37-.75Z"/><path class="cls-3" d="m143.64,143.74c-.51,0-.9.17-1.16.5-.26.33-.39.78-.39,1.35v2.12h-1.04v-4.94h1.04v.99c.17-.31.39-.56.68-.76.29-.2.59-.3.91-.31v1.05h-.05Z"/><path class="cls-3" d="m148.69,147.7h-.95v-.66c-.41.49-.96.73-1.64.73-.51,0-.94-.15-1.28-.44s-.51-.68-.51-1.17.18-.85.54-1.09c.36-.24.85-.36,1.46-.36h1.35v-.19c0-.66-.37-.98-1.1-.98-.46,0-.94.17-1.43.5l-.46-.65c.6-.48,1.28-.72,2.04-.72.58,0,1.06.15,1.43.44.37.29.55.76.55,1.39v3.19Zm-1.04-1.84v-.42h-1.17c-.75,0-1.12.24-1.12.71,0,.24.09.43.28.55.19.13.44.19.78.19s.62-.09.87-.28c.25-.19.37-.44.37-.75Z"/><path class="cls-3" d="m80.35,152.36v1.03h-3.46v1.72h3.11v.97h-3.11v1.74h3.58v1.03h-4.67v-6.49h4.56Z"/><path class="cls-3" d="m83.73,158.93c-.62,0-1.17-.24-1.64-.72s-.7-1.1-.7-1.86.24-1.37.71-1.83c.47-.46,1.04-.69,1.7-.69s1.2.31,1.61.94v-.86h1.04v6.74h-1.04v-2.55c-.5.55-1.05.82-1.68.82Zm-1.3-2.53c0,.47.15.86.46,1.16s.66.45,1.07.45.76-.15,1.04-.45c.28-.3.43-.69.43-1.16s-.14-.86-.43-1.18-.64-.47-1.05-.47-.77.16-1.07.47c-.3.31-.45.71-.45,1.18Z"/><path class="cls-3" d="m91.41,156.58v-2.68h1.04v4.94h-1.04v-.9c-.17.3-.4.54-.69.72s-.61.26-.95.26c-.56,0-1.01-.17-1.35-.51-.34-.34-.52-.83-.52-1.48v-3.03h1.04v2.71c0,.91.38,1.36,1.13,1.36.36,0,.67-.12.94-.36s.4-.59.4-1.04Z"/><path class="cls-3" d="m98.55,156.84h-3.87c.02.36.19.65.49.87s.65.33,1.04.33c.62,0,1.09-.2,1.41-.59l.59.65c-.53.55-1.23.83-2.08.83-.69,0-1.28-.23-1.77-.69-.49-.46-.73-1.08-.73-1.86s.25-1.39.74-1.85c.49-.46,1.08-.69,1.75-.69s1.24.2,1.71.61.71.96.71,1.68v.72Zm-3.87-.82h2.83c0-.41-.13-.73-.39-.96-.26-.22-.58-.33-.96-.33s-.72.12-1.03.35c-.3.23-.46.55-.46.94Z"/><path class="cls-3" d="m103.22,157.37c0,.47-.17.85-.51,1.13-.34.28-.78.42-1.31.42-.36,0-.73-.07-1.12-.19-.39-.13-.73-.31-1.03-.55l.5-.81c.58.43,1.13.65,1.67.65.24,0,.42-.05.56-.16.14-.11.2-.25.2-.41,0-.25-.33-.47-.98-.67-.05-.02-.09-.03-.11-.04-1.03-.28-1.54-.74-1.54-1.39,0-.46.18-.82.53-1.1s.82-.41,1.39-.41,1.11.17,1.62.5l-.39.77c-.4-.27-.84-.4-1.31-.4-.25,0-.45.05-.6.14-.16.09-.23.22-.23.4,0,.16.08.28.24.35.11.06.27.11.47.16s.38.1.53.15c.16.05.31.11.45.17.15.06.3.15.47.26.33.22.5.57.5,1.04Z"/><path class="cls-3" d="m105.68,154.74v2.51c0,.24.06.42.19.56s.3.21.52.21.44-.11.64-.33l.43.73c-.37.33-.77.49-1.21.49s-.82-.15-1.13-.46c-.31-.31-.47-.72-.47-1.24v-2.48h-.62v-.84h.62v-1.55h1.04v1.55h1.3v.84h-1.3Z"/><path class="cls-3" d="m110.87,154.88c-.51,0-.9.17-1.16.5-.26.33-.39.78-.39,1.35v2.12h-1.04v-4.94h1.04v.99c.17-.31.4-.56.68-.76.29-.2.59-.3.92-.31v1.05h-.05Z"/><path class="cls-3" d="m112.03,152.92c-.13-.13-.2-.29-.2-.47s.07-.33.2-.46.28-.19.46-.19.33.06.46.19c.13.13.2.29.2.46s-.07.33-.2.47-.28.19-.46.19-.33-.07-.46-.19Zm.98,5.93h-1.04v-4.94h1.04v4.94Z"/><path class="cls-3" d="m118.52,158.85h-.95v-.66c-.41.49-.96.73-1.64.73-.51,0-.94-.15-1.28-.44-.34-.29-.51-.68-.51-1.17s.18-.85.54-1.09c.36-.24.85-.36,1.46-.36h1.35v-.19c0-.66-.37-.98-1.1-.98-.46,0-.94.17-1.43.5l-.46-.65c.6-.48,1.28-.72,2.04-.72.58,0,1.06.15,1.43.44.37.29.55.76.55,1.39v3.19Zm-1.04-1.84v-.42h-1.17c-.75,0-1.12.24-1.12.71,0,.24.09.43.28.55s.44.19.78.19.62-.09.87-.28c.25-.19.37-.44.37-.75Z"/><path class="cls-3" d="m121.01,156.18v2.68h-1.04v-4.94h1.04v.9c.17-.3.4-.54.69-.72.29-.17.61-.26.95-.26.56,0,1.01.17,1.35.51.34.34.52.83.52,1.48v3.03h-1.04v-2.71c0-.91-.38-1.37-1.13-1.37-.36,0-.67.12-.94.36s-.4.59-.4,1.04Z"/><path class="cls-3" d="m131.62,157.86c.38,0,.7-.06.98-.19.27-.13.56-.33.85-.61l.71.72c-.69.76-1.52,1.14-2.5,1.14s-1.8-.32-2.44-.95-.97-1.43-.97-2.4.33-1.77.99-2.42c.66-.64,1.49-.97,2.5-.97s1.85.37,2.52,1.12l-.7.76c-.31-.3-.6-.5-.88-.62-.28-.12-.6-.18-.97-.18-.66,0-1.21.21-1.65.64-.45.42-.67.97-.67,1.63s.22,1.21.66,1.65c.44.44.97.66,1.57.66Z"/><path class="cls-3" d="m136.39,158.85h-1.04v-6.89h1.04v6.89Z"/><path class="cls-3" d="m141.35,156.58v-2.68h1.04v4.94h-1.04v-.9c-.17.3-.4.54-.69.72-.29.17-.61.26-.95.26-.56,0-1.01-.17-1.35-.51s-.52-.83-.52-1.48v-3.03h1.04v2.71c0,.91.38,1.36,1.13,1.36.36,0,.67-.12.94-.36.27-.24.4-.59.4-1.04Z"/><path class="cls-3" d="m146.54,153.83c.66,0,1.23.23,1.7.69.47.46.71,1.07.71,1.83s-.23,1.38-.7,1.86-1.01.72-1.63.72-1.18-.27-1.68-.82v.74h-1.04v-6.89h1.04v2.81c.41-.63.94-.94,1.61-.94Zm-1.63,2.55c0,.47.14.86.43,1.16.29.3.63.45,1.04.45s.76-.15,1.07-.45.46-.68.46-1.16-.15-.87-.45-1.18c-.3-.31-.65-.47-1.07-.47s-.76.16-1.05.47c-.28.31-.43.7-.43,1.18Z"/><path class="cls-3" d="m109.9,171.24h1.1v3.17l2.97-3.17h1.39l-2.61,2.84,2.65,3.65h-1.3l-2.16-2.84-.95,1.02v1.82h-1.1v-6.49Z"/><path class="cls-3" d="m116.44,177.73v-6.49h1.1v5.45h2.96v1.04h-4.06Z"/><path class="cls-3" d="m126.19,174.57h1.1v2.22c-.61.68-1.49,1.01-2.63,1.01-.96,0-1.76-.32-2.41-.95s-.97-1.43-.97-2.4.33-1.77.99-2.42c.66-.64,1.46-.97,2.39-.97s1.71.27,2.33.82l-.58.84c-.25-.22-.51-.37-.77-.45-.26-.08-.56-.13-.9-.13-.66,0-1.21.21-1.65.64-.45.42-.67.98-.67,1.67s.22,1.24.65,1.66c.43.42.96.63,1.57.63s1.13-.13,1.55-.4v-1.78Z"/><path class="cls-3" d="m131.69,176.74c.38,0,.7-.06.97-.19.27-.13.56-.33.86-.61l.71.72c-.69.76-1.52,1.14-2.5,1.14s-1.8-.32-2.44-.95c-.65-.63-.97-1.43-.97-2.4s.33-1.77.99-2.42c.66-.64,1.49-.97,2.5-.97s1.85.37,2.52,1.12l-.7.76c-.31-.3-.6-.5-.88-.62-.28-.12-.6-.18-.97-.18-.66,0-1.21.21-1.65.64-.45.42-.67.97-.67,1.63s.22,1.21.66,1.65c.44.44.97.66,1.58.66Z"/><path class="cls-3" d="m138.53,176.74c.38,0,.7-.06.97-.19.27-.13.56-.33.86-.61l.71.72c-.69.76-1.52,1.14-2.5,1.14s-1.8-.32-2.44-.95c-.65-.63-.97-1.43-.97-2.4s.33-1.77.99-2.42c.66-.64,1.49-.97,2.5-.97s1.85.37,2.52,1.12l-.7.76c-.31-.3-.6-.5-.88-.62-.28-.12-.6-.18-.97-.18-.66,0-1.21.21-1.65.64-.45.42-.67.97-.67,1.63s.22,1.21.66,1.65c.44.44.97.66,1.58.66Z"/><path class="cls-3" d="m59.31,235.69v1.78h2.88v1.01h-2.88v2.68h-1.1v-6.49h4.33v1.02h-3.23Z"/><path class="cls-3" d="m66.26,237.2c-.51,0-.9.17-1.16.5-.26.33-.39.78-.39,1.35v2.12h-1.04v-4.94h1.04v.99c.17-.31.39-.56.68-.76.29-.2.59-.3.91-.31v1.05h-.05Z"/><path class="cls-3" d="m71.4,240.5c-.5.49-1.12.74-1.86.74s-1.36-.25-1.86-.74-.74-1.1-.74-1.81.25-1.31.74-1.81,1.12-.74,1.86-.74,1.36.25,1.86.74c.49.49.74,1.09.74,1.81s-.25,1.31-.74,1.81Zm-2.98-.64c.29.3.67.45,1.12.45s.82-.15,1.12-.45c.29-.3.44-.69.44-1.17s-.15-.87-.44-1.17-.67-.45-1.12-.45-.83.15-1.12.45c-.29.3-.44.69-.44,1.17s.15.87.44,1.17Z"/><path class="cls-3" d="m74.36,238.49v2.68h-1.04v-4.94h1.04v.9c.15-.3.37-.54.67-.72s.62-.26.97-.26c.78,0,1.31.32,1.59.97.49-.64,1.1-.97,1.83-.97.56,0,1.01.17,1.35.51.34.34.52.83.52,1.48v3.03h-1.04v-2.71c0-.91-.38-1.37-1.13-1.37-.35,0-.66.11-.92.34s-.4.56-.41.99v2.75h-1.04v-2.71c0-.47-.08-.82-.25-1.04-.17-.22-.43-.33-.79-.33s-.67.12-.94.36-.4.59-.4,1.04Z"/><path class="cls-3" d="m90.35,235.52c.63.57.94,1.36.94,2.36s-.3,1.81-.91,2.4-1.54.88-2.79.88h-2.15v-6.49h2.23c1.16,0,2.06.28,2.69.85Zm-.17,2.39c0-1.49-.85-2.23-2.55-2.23h-1.1v4.45h1.22c.79,0,1.39-.19,1.81-.56.42-.37.63-.93.63-1.66Z"/><path class="cls-3" d="m96.56,241.16h-.95v-.66c-.41.49-.96.73-1.64.73-.51,0-.94-.15-1.28-.44-.34-.29-.51-.68-.51-1.17s.18-.85.54-1.09c.36-.24.85-.36,1.46-.36h1.35v-.19c0-.66-.37-.98-1.1-.98-.46,0-.94.17-1.43.5l-.46-.65c.6-.48,1.28-.72,2.04-.72.58,0,1.06.15,1.43.44.37.29.55.76.55,1.39v3.19Zm-1.04-1.84v-.42h-1.17c-.75,0-1.12.24-1.12.71,0,.24.09.43.28.55s.44.19.78.19.62-.09.87-.28c.25-.19.37-.44.37-.75Z"/><path class="cls-3" d="m99.05,238.49v2.68h-1.04v-4.94h1.04v.9c.15-.3.37-.54.67-.72s.62-.26.97-.26c.78,0,1.31.32,1.59.97.49-.64,1.1-.97,1.83-.97.56,0,1.01.17,1.35.51.34.34.52.83.52,1.48v3.03h-1.04v-2.71c0-.91-.38-1.37-1.13-1.37-.35,0-.66.11-.92.34s-.4.56-.41.99v2.75h-1.04v-2.71c0-.47-.08-.82-.25-1.04-.17-.22-.43-.33-.79-.33s-.67.12-.94.36-.4.59-.4,1.04Z"/><path class="cls-3" d="m111.43,241.16h-.95v-.66c-.41.49-.96.73-1.64.73-.51,0-.94-.15-1.28-.44s-.51-.68-.51-1.17.18-.85.54-1.09c.36-.24.85-.36,1.46-.36h1.35v-.19c0-.66-.37-.98-1.1-.98-.46,0-.94.17-1.43.5l-.46-.65c.6-.48,1.28-.72,2.04-.72.58,0,1.06.15,1.43.44.37.29.55.76.55,1.39v3.19Zm-1.04-1.84v-.42h-1.17c-.75,0-1.12.24-1.12.71,0,.24.09.43.28.55.19.13.44.19.78.19s.62-.09.87-.28c.25-.19.37-.44.37-.75Z"/><path class="cls-3" d="m113.92,238.49v2.68h-1.04v-4.94h1.04v.9c.17-.3.4-.54.69-.72.29-.17.61-.26.95-.26.56,0,1.01.17,1.35.51s.52.83.52,1.48v3.03h-1.04v-2.71c0-.91-.38-1.37-1.13-1.37-.36,0-.67.12-.94.36-.27.24-.4.59-.4,1.04Z"/><path class="cls-3" d="m122.4,239.69c0,.47-.17.85-.51,1.13-.34.28-.78.42-1.31.42-.36,0-.73-.07-1.12-.19-.39-.13-.73-.31-1.03-.55l.5-.81c.58.43,1.13.65,1.67.65.24,0,.42-.05.56-.16.14-.11.2-.25.2-.41,0-.25-.33-.47-.98-.67-.05-.02-.09-.03-.11-.04-1.03-.28-1.54-.74-1.54-1.39,0-.46.18-.82.53-1.1.36-.28.82-.41,1.39-.41s1.11.17,1.62.5l-.39.77c-.4-.27-.84-.4-1.31-.4-.25,0-.45.05-.6.14s-.23.22-.23.4c0,.16.08.28.24.35.11.06.27.11.47.16s.38.1.53.15c.15.05.31.11.45.17s.3.15.47.26c.33.22.5.57.5,1.04Z"/><path class="cls-3" d="m127.58,241.16h-.95v-.66c-.41.49-.96.73-1.64.73-.51,0-.94-.15-1.28-.44s-.51-.68-.51-1.17.18-.85.54-1.09c.36-.24.85-.36,1.46-.36h1.35v-.19c0-.66-.37-.98-1.1-.98-.46,0-.94.17-1.43.5l-.46-.65c.6-.48,1.28-.72,2.04-.72.58,0,1.06.15,1.43.44.37.29.55.76.55,1.39v3.19Zm-1.04-1.84v-.42h-1.17c-.75,0-1.12.24-1.12.71,0,.24.09.43.28.55.19.13.44.19.78.19s.62-.09.87-.28c.25-.19.37-.44.37-.75Z"/><path class="cls-3" d="m131.62,237.2c-.51,0-.9.17-1.16.5-.26.33-.39.78-.39,1.35v2.12h-1.04v-4.94h1.04v.99c.17-.31.4-.56.68-.76.29-.2.59-.3.92-.31v1.05h-.05Z"/><path class="cls-3" d="m136.68,241.16h-.95v-.66c-.41.49-.96.73-1.64.73-.51,0-.94-.15-1.28-.44s-.51-.68-.51-1.17.18-.85.54-1.09c.36-.24.85-.36,1.46-.36h1.35v-.19c0-.66-.37-.98-1.1-.98-.46,0-.94.17-1.43.5l-.46-.65c.6-.48,1.28-.72,2.04-.72.58,0,1.06.15,1.43.44.37.29.55.76.55,1.39v3.19Zm-1.04-1.84v-.42h-1.17c-.75,0-1.12.24-1.12.71,0,.24.09.43.28.55.19.13.44.19.78.19s.62-.09.87-.28c.25-.19.37-.44.37-.75Z"/><path class="cls-3" d="m76.53,250.82c.3.35.7.52,1.21.52s.91-.17,1.21-.52c.3-.35.45-.82.45-1.41v-3.6h1.1v3.64c0,.94-.26,1.66-.77,2.16-.51.5-1.17.76-1.98.76s-1.46-.25-1.98-.76c-.51-.5-.77-1.22-.77-2.16v-3.64h1.1v3.6c0,.59.15,1.06.45,1.41Z"/><path class="cls-3" d="m83.27,248.2v2.51c0,.24.06.42.19.56s.3.21.52.21.44-.11.64-.33l.43.73c-.37.33-.77.49-1.21.49s-.82-.15-1.13-.46c-.31-.31-.47-.72-.47-1.24v-2.48h-.62v-.84h.62v-1.55h1.04v1.55h1.3v.84h-1.3Z"/><path class="cls-3" d="m89.88,252.31h-.95v-.66c-.41.49-.96.73-1.64.73-.51,0-.94-.15-1.28-.44-.34-.29-.51-.68-.51-1.17s.18-.85.54-1.09c.36-.24.85-.36,1.46-.36h1.35v-.19c0-.66-.37-.98-1.1-.98-.46,0-.94.17-1.43.5l-.46-.65c.6-.48,1.28-.72,2.04-.72.58,0,1.06.15,1.43.44.37.29.55.76.55,1.39v3.19Zm-1.04-1.84v-.42h-1.17c-.75,0-1.12.24-1.12.71,0,.24.09.43.28.55s.44.19.78.19.62-.09.87-.28c.25-.19.37-.44.37-.75Z"/><path class="cls-3" d="m92.37,249.63v2.68h-1.04v-4.94h1.04v.9c.15-.3.37-.54.67-.72s.62-.26.97-.26c.78,0,1.31.32,1.59.97.49-.64,1.1-.97,1.83-.97.56,0,1.01.17,1.35.51.34.34.52.83.52,1.48v3.03h-1.04v-2.71c0-.91-.38-1.37-1.13-1.37-.35,0-.66.11-.92.34s-.4.56-.41.99v2.75h-1.04v-2.71c0-.47-.08-.82-.25-1.04-.17-.22-.43-.33-.79-.33s-.67.12-.94.36-.4.59-.4,1.04Z"/><path class="cls-3" d="m104.75,252.31h-.95v-.66c-.41.49-.96.73-1.64.73-.51,0-.94-.15-1.28-.44s-.51-.68-.51-1.17.18-.85.54-1.09c.36-.24.85-.36,1.46-.36h1.35v-.19c0-.66-.37-.98-1.1-.98-.46,0-.94.17-1.43.5l-.46-.65c.6-.48,1.28-.72,2.04-.72.58,0,1.06.15,1.43.44.37.29.55.76.55,1.39v3.19Zm-1.04-1.84v-.42h-1.17c-.75,0-1.12.24-1.12.71,0,.24.09.43.28.55.19.13.44.19.78.19s.62-.09.87-.28c.25-.19.37-.44.37-.75Z"/><path class="cls-3" d="m112.28,244.78h.93l-4.02,8.62h-.93l4.02-8.62Z"/><path class="cls-3" d="m119.34,246.82v5.49h-1.1v-5.49h-1.97v-1h5.04v1h-1.97Z"/><path class="cls-3" d="m124.96,246.82v5.49h-1.1v-5.49h-1.97v-1h5.03v1h-1.97Z"/><path class="cls-3" d="m133.03,246.67c.63.57.94,1.36.94,2.36s-.3,1.81-.91,2.4-1.54.88-2.79.88h-2.15v-6.49h2.23c1.16,0,2.06.28,2.69.85Zm-.17,2.39c0-1.49-.85-2.23-2.55-2.23h-1.1v4.45h1.22c.79,0,1.39-.19,1.81-.56.42-.37.63-.93.63-1.66Z"/><path class="cls-3" d="m135.38,245.82h1.1v6.49h-1.1v-6.49Z"/><path class="cls-3" d="m432.04,175.56c.45.38.68.96.68,1.75s-.23,1.36-.69,1.73c-.46.37-1.17.55-2.12.55h-1.15v1.9h-1.1v-6.49h2.23c.98,0,1.7.19,2.15.57Zm-.78,2.68c.22-.23.33-.57.33-1.02s-.14-.77-.42-.95c-.28-.19-.72-.28-1.31-.28h-1.11v2.6h1.27c.61,0,1.02-.12,1.24-.35Z"/><path class="cls-3" d="m437.78,181.48h-.95v-.66c-.41.49-.96.73-1.64.73-.51,0-.94-.15-1.28-.44s-.51-.68-.51-1.17.18-.85.54-1.09c.36-.24.85-.36,1.46-.36h1.35v-.19c0-.66-.37-.98-1.1-.98-.46,0-.94.17-1.43.5l-.46-.65c.6-.48,1.28-.72,2.04-.72.58,0,1.06.15,1.43.44.37.29.55.76.55,1.39v3.19Zm-1.04-1.84v-.42h-1.17c-.75,0-1.12.24-1.12.71,0,.24.09.43.28.55s.44.19.78.19.62-.09.87-.28c.25-.19.37-.44.37-.75Z"/><path class="cls-3" d="m441.82,177.52c-.51,0-.9.17-1.16.5-.26.33-.39.78-.39,1.35v2.12h-1.04v-4.94h1.04v.99c.17-.31.39-.56.68-.76.29-.2.59-.3.91-.31v1.05h-.05Z"/><path class="cls-3" d="m443.95,181.48h-1.04v-6.89h1.04v6.89Z"/><path class="cls-3" d="m445.52,175.56c-.13-.13-.19-.29-.19-.47s.06-.33.19-.46.29-.19.46-.19.33.06.47.19.19.29.19.46-.06.33-.19.47c-.13.13-.29.19-.47.19s-.33-.07-.46-.19Zm.97,5.93h-1.04v-4.94h1.04v4.94Z"/><path class="cls-3" d="m449.04,178.81v2.68h-1.04v-4.94h1.04v.9c.15-.3.37-.54.67-.72.3-.17.62-.26.97-.26.78,0,1.31.32,1.59.97.49-.64,1.1-.97,1.83-.97.56,0,1.01.17,1.35.51.34.34.52.83.52,1.48v3.03h-1.04v-2.71c0-.91-.38-1.37-1.13-1.37-.35,0-.66.11-.93.34-.26.23-.4.56-.41.99v2.75h-1.04v-2.71c0-.47-.08-.82-.25-1.04-.17-.22-.43-.33-.79-.33s-.67.12-.94.36c-.27.24-.4.59-.4,1.04Z"/><path class="cls-3" d="m462.02,179.47h-3.87c.02.36.19.65.49.87s.65.33,1.04.33c.62,0,1.09-.2,1.41-.59l.6.65c-.53.55-1.23.83-2.08.83-.69,0-1.28-.23-1.77-.69s-.73-1.08-.73-1.86.25-1.39.74-1.85c.49-.46,1.08-.69,1.75-.69s1.24.2,1.71.61c.47.41.71.96.71,1.68v.72Zm-3.87-.82h2.83c0-.41-.13-.73-.39-.96-.26-.22-.58-.33-.96-.33s-.72.12-1.03.35c-.3.23-.46.55-.46.94Z"/><path class="cls-3" d="m464.2,178.81v2.68h-1.04v-4.94h1.04v.9c.17-.3.4-.54.69-.72.3-.17.61-.26.95-.26.56,0,1.01.17,1.35.51s.52.83.52,1.48v3.03h-1.04v-2.71c0-.91-.38-1.37-1.13-1.37-.36,0-.67.12-.94.36-.27.24-.4.59-.4,1.04Z"/><path class="cls-3" d="m304.52,231.4h-1.1v-6.49h1.71l1.96,4.08,1.96-4.08h1.7v6.49h-1.1v-5.07l-2.27,4.51h-.61l-2.26-4.51v5.07Z"/><path class="cls-3" d="m317,229.39h-3.87c.02.36.19.65.49.87s.65.33,1.04.33c.62,0,1.09-.2,1.41-.59l.59.65c-.53.55-1.23.83-2.08.83-.69,0-1.28-.23-1.77-.69-.49-.46-.73-1.08-.73-1.86s.25-1.39.74-1.85c.49-.46,1.08-.69,1.75-.69s1.24.2,1.71.61c.47.41.71.96.71,1.68v.72Zm-3.87-.82h2.83c0-.41-.13-.73-.39-.96-.26-.22-.58-.33-.96-.33s-.72.12-1.03.35c-.3.23-.46.55-.46.94Z"/><path class="cls-3" d="m319.19,228.73v2.68h-1.04v-4.94h1.04v.9c.17-.3.4-.54.69-.72s.61-.26.95-.26c.56,0,1.01.17,1.35.51.34.34.52.83.52,1.48v3.03h-1.04v-2.71c0-.91-.38-1.37-1.13-1.37-.36,0-.67.12-.94.36s-.4.59-.4,1.04Z"/><path class="cls-3" d="m328.15,231.4h-.95v-.66c-.41.49-.96.73-1.64.73-.51,0-.94-.15-1.28-.44-.34-.29-.51-.68-.51-1.17s.18-.85.54-1.09c.36-.24.85-.36,1.46-.36h1.35v-.19c0-.66-.37-.98-1.1-.98-.46,0-.94.17-1.43.5l-.46-.65c.6-.48,1.28-.72,2.04-.72.58,0,1.06.15,1.43.44.37.29.55.76.55,1.39v3.19Zm-1.04-1.84v-.42h-1.17c-.75,0-1.12.24-1.12.71,0,.24.09.43.28.55.19.13.44.19.78.19s.62-.09.87-.28.37-.44.37-.75Z"/><path class="cls-3" d="m332.19,227.44c-.51,0-.9.17-1.16.5-.26.33-.39.78-.39,1.35v2.12h-1.04v-4.94h1.04v.99c.17-.31.4-.56.68-.76.29-.2.59-.3.91-.31v1.05h-.05Z"/><path class="cls-3" d="m337.25,231.4h-.95v-.66c-.41.49-.96.73-1.64.73-.51,0-.94-.15-1.28-.44-.34-.29-.51-.68-.51-1.17s.18-.85.54-1.09c.36-.24.85-.36,1.46-.36h1.35v-.19c0-.66-.37-.98-1.1-.98-.46,0-.94.17-1.43.5l-.46-.65c.6-.48,1.28-.72,2.04-.72.58,0,1.06.15,1.43.44.37.29.55.76.55,1.39v3.19Zm-1.04-1.84v-.42h-1.17c-.75,0-1.12.24-1.12.71,0,.24.09.43.28.55.19.13.44.19.78.19s.62-.09.87-.28.37-.44.37-.75Z"/><path class="cls-3" d="m305.88,237.06v5.49h-1.1v-5.49h-1.97v-1h5.03v1h-1.97Z"/><path class="cls-3" d="m313.48,240.54h-3.87c.02.36.19.65.49.87s.65.33,1.04.33c.62,0,1.09-.2,1.41-.59l.59.65c-.53.55-1.23.83-2.08.83-.69,0-1.28-.23-1.77-.69-.49-.46-.73-1.08-.73-1.86s.25-1.39.74-1.85c.49-.46,1.08-.69,1.75-.69s1.24.2,1.71.61.71.96.71,1.68v.72Zm-3.87-.82h2.83c0-.41-.13-.73-.39-.96-.26-.22-.58-.33-.96-.33s-.72.12-1.03.35c-.3.23-.46.55-.46.94Z"/><path class="cls-3" d="m315.67,242.55h-1.04v-6.89h1.04v6.89Z"/><path class="cls-3" d="m321.77,240.54h-3.87c.02.36.19.65.49.87s.65.33,1.04.33c.62,0,1.09-.2,1.41-.59l.59.65c-.53.55-1.23.83-2.08.83-.69,0-1.28-.23-1.77-.69-.49-.46-.73-1.08-.73-1.86s.25-1.39.74-1.85c.49-.46,1.08-.69,1.75-.69s1.24.2,1.71.61.71.96.71,1.68v.72Zm-3.87-.82h2.83c0-.41-.13-.73-.39-.96-.26-.22-.58-.33-.96-.33s-.72.12-1.03.35c-.3.23-.46.55-.46.94Z"/><path class="cls-3" d="m323.95,242.55h-1.04v-6.89h1.04v4.05l2.01-2.1h1.34l-1.88,1.96,2.02,2.98h-1.26l-1.47-2.16-.75.76v1.4Z"/><path class="cls-3" d="m332.21,241.89c-.5.49-1.12.74-1.86.74s-1.36-.25-1.86-.74-.74-1.1-.74-1.81.25-1.31.74-1.81,1.12-.74,1.86-.74,1.36.25,1.86.74.74,1.09.74,1.81-.25,1.31-.74,1.81Zm-2.98-.64c.29.3.67.45,1.12.45s.83-.15,1.12-.45c.29-.3.44-.69.44-1.17s-.15-.87-.44-1.17c-.29-.3-.67-.45-1.12-.45s-.83.15-1.12.45c-.29.3-.44.69-.44,1.17s.15.87.44,1.17Z"/><path class="cls-3" d="m335.17,239.88v2.68h-1.04v-4.94h1.04v.9c.15-.3.37-.54.67-.72.3-.17.62-.26.97-.26.78,0,1.31.32,1.59.97.49-.64,1.1-.97,1.83-.97.56,0,1.01.17,1.35.51s.52.83.52,1.48v3.03h-1.04v-2.71c0-.91-.38-1.37-1.13-1.37-.35,0-.66.11-.92.34s-.4.56-.41.99v2.75h-1.04v-2.71c0-.47-.08-.82-.25-1.04-.17-.22-.43-.33-.79-.33s-.67.12-.94.36-.4.59-.4,1.04Z"/><path class="cls-3" d="m355.19,223.9h-1.1v-6.49h1.71l1.96,4.08,1.96-4.08h1.7v6.49h-1.1v-5.07l-2.27,4.51h-.61l-2.26-4.51v5.07Z"/><path class="cls-3" d="m363.14,217.97c-.13-.13-.19-.29-.19-.47s.07-.33.19-.46c.13-.13.29-.19.47-.19s.33.06.46.19.19.29.19.46-.06.33-.19.47c-.13.13-.29.19-.46.19s-.33-.07-.47-.19Zm.98,5.93h-1.04v-4.94h1.04v4.94Z"/><path class="cls-3" d="m366,223.27c-.46-.47-.7-1.09-.7-1.86s.24-1.38.72-1.84,1.04-.69,1.7-.69,1.19.28,1.59.84v-2.71h1.04v6.89h-1.04v-.74c-.38.55-.95.82-1.68.82-.63,0-1.17-.24-1.64-.71Zm.34-1.82c0,.47.15.86.46,1.16.3.3.66.45,1.07.45s.76-.15,1.04-.45.43-.69.43-1.16-.14-.86-.43-1.18-.64-.47-1.05-.47-.77.16-1.07.47c-.3.32-.45.71-.45,1.18Z"/><path class="cls-3" d="m377.52,223.9h-1.23l-2.61-6.49h1.23l2,4.85,2-4.85h1.23l-2.61,6.49Z"/><path class="cls-3" d="m384.52,223.9h-.95v-.66c-.41.49-.96.73-1.64.73-.51,0-.94-.15-1.28-.44-.34-.29-.51-.68-.51-1.17s.18-.85.54-1.09c.36-.24.85-.36,1.46-.36h1.35v-.19c0-.66-.37-.98-1.1-.98-.46,0-.94.17-1.43.5l-.46-.65c.6-.48,1.28-.72,2.04-.72.58,0,1.06.15,1.43.44.37.29.55.76.55,1.39v3.19Zm-1.04-1.84v-.42h-1.17c-.75,0-1.12.24-1.12.71,0,.24.09.43.28.55.19.13.44.19.78.19s.62-.09.87-.28.37-.44.37-.75Z"/><path class="cls-3" d="m387.01,223.9h-1.04v-6.89h1.04v6.89Z"/><path class="cls-3" d="m389.55,223.9h-1.04v-6.89h1.04v6.89Z"/><path class="cls-3" d="m395.65,221.88h-3.87c.02.36.19.65.49.87s.65.33,1.04.33c.62,0,1.09-.2,1.41-.59l.59.65c-.53.55-1.23.83-2.08.83-.69,0-1.28-.23-1.77-.69-.49-.46-.73-1.08-.73-1.86s.25-1.39.74-1.85c.49-.46,1.08-.69,1.75-.69s1.24.2,1.71.61.71.96.71,1.68v.72Zm-3.87-.82h2.83c0-.41-.13-.73-.39-.96-.26-.22-.58-.33-.96-.33s-.72.12-1.03.35c-.3.23-.46.55-.46.94Z"/><path class="cls-3" d="m397.36,225.87c-.45,0-.86-.16-1.23-.49l.47-.85c.22.2.44.31.67.31s.42-.08.57-.25c.15-.17.22-.35.22-.55,0-.09-.67-1.78-2-5.08h1.12l1.48,3.64,1.48-3.64h1.12l-2.4,5.87c-.14.32-.35.58-.61.76s-.56.28-.88.28Z"/><path class="cls-3" d="m218.28,251.56v1.03h-3.47v1.72h3.11v.97h-3.11v1.74h3.58v1.03h-4.67v-6.49h4.56Z"/><path class="cls-3" d="m223.65,258.05h-.95v-.66c-.41.49-.96.73-1.64.73-.51,0-.94-.15-1.28-.44-.34-.29-.51-.68-.51-1.17s.18-.85.54-1.09c.36-.24.85-.36,1.46-.36h1.35v-.19c0-.66-.37-.98-1.1-.98-.46,0-.94.17-1.43.5l-.46-.65c.6-.48,1.28-.72,2.04-.72.58,0,1.06.15,1.43.44.37.29.55.76.55,1.39v3.19Zm-1.04-1.84v-.42h-1.17c-.75,0-1.12.24-1.12.71,0,.24.09.43.28.55.19.13.44.19.78.19s.62-.09.87-.28.37-.44.37-.75Z"/><path class="cls-3" d="m228.62,256.58c0,.47-.17.85-.51,1.13-.34.28-.78.42-1.31.42-.36,0-.73-.07-1.12-.19-.39-.13-.73-.31-1.03-.55l.5-.81c.58.43,1.13.65,1.67.65.24,0,.42-.05.56-.16.14-.11.2-.25.2-.41,0-.25-.33-.47-.98-.67-.05-.02-.09-.03-.11-.04-1.03-.28-1.54-.74-1.54-1.39,0-.46.18-.82.53-1.1.36-.28.82-.41,1.39-.41s1.11.17,1.62.5l-.39.77c-.4-.27-.84-.4-1.31-.4-.25,0-.45.05-.6.14-.16.09-.23.22-.23.4,0,.16.08.28.24.35.11.06.27.11.47.16s.38.1.53.15c.16.05.31.11.45.17.15.06.3.15.47.26.33.22.5.57.5,1.04Z"/><path class="cls-3" d="m231.08,253.95v2.51c0,.24.06.42.18.56s.3.21.52.21.44-.11.64-.33l.43.73c-.36.33-.77.49-1.21.49s-.82-.15-1.13-.46c-.31-.31-.47-.72-.47-1.24v-2.48h-.62v-.84h.62v-1.55h1.04v1.55h1.3v.84h-1.3Z"/><path class="cls-3" d="m233.75,252.13c-.13-.13-.19-.29-.19-.47s.06-.33.19-.46.29-.19.46-.19.33.06.47.19.19.29.19.46-.06.33-.19.47c-.13.13-.29.19-.47.19s-.33-.07-.46-.19Zm.97,5.93h-1.04v-4.94h1.04v4.94Z"/><path class="cls-3" d="m237.27,255.38v2.68h-1.04v-4.94h1.04v.9c.17-.3.4-.54.69-.72.29-.17.61-.26.95-.26.56,0,1.01.17,1.35.51.34.34.51.83.51,1.48v3.03h-1.04v-2.71c0-.91-.38-1.37-1.13-1.37-.36,0-.67.12-.94.36-.27.24-.4.59-.4,1.04Z"/><path class="cls-3" d="m244.92,258.05v-6.49h1.1v2.81h3.22v-2.81h1.1v6.49h-1.1v-2.66h-3.22v2.66h-1.1Z"/><path class="cls-3" d="m256.12,257.39c-.5.49-1.12.74-1.86.74s-1.36-.25-1.86-.74c-.5-.49-.74-1.1-.74-1.81s.25-1.31.74-1.81c.49-.49,1.12-.74,1.86-.74s1.36.25,1.86.74c.49.49.74,1.09.74,1.81s-.25,1.31-.74,1.81Zm-2.98-.64c.29.3.67.45,1.12.45s.83-.15,1.12-.45c.29-.3.44-.69.44-1.17s-.15-.87-.44-1.17-.67-.45-1.12-.45-.82.15-1.12.45c-.3.3-.44.69-.44,1.17s.15.87.44,1.17Z"/><path class="cls-3" d="m259.25,253.95v2.51c0,.24.06.42.18.56s.3.21.52.21.44-.11.64-.33l.43.73c-.36.33-.77.49-1.21.49s-.82-.15-1.13-.46c-.31-.31-.47-.72-.47-1.24v-2.48h-.62v-.84h.62v-1.55h1.04v1.55h1.3v.84h-1.3Z"/><path class="cls-3" d="m266.45,256.04h-3.87c.02.36.19.65.49.87s.65.33,1.04.33c.62,0,1.09-.2,1.41-.59l.6.65c-.53.55-1.23.83-2.08.83-.69,0-1.28-.23-1.77-.69s-.73-1.08-.73-1.86.25-1.39.74-1.85c.49-.46,1.08-.69,1.75-.69s1.24.2,1.71.61c.47.41.71.96.71,1.68v.72Zm-3.87-.82h2.83c0-.41-.13-.73-.39-.96-.26-.22-.58-.33-.96-.33s-.72.12-1.03.35c-.3.23-.46.55-.46.94Z"/><path class="cls-3" d="m268.64,258.05h-1.04v-6.89h1.04v6.89Z"/><path class="cls-3" d="m190.16,225.77c-.32,0-.58.07-.79.19-.2.13-.31.33-.31.59s.1.46.31.6.64.29,1.3.45c.67.16,1.17.39,1.51.68s.51.72.51,1.29-.21,1.03-.64,1.38-.99.53-1.68.53c-1.02,0-1.92-.35-2.7-1.05l.69-.83c.66.57,1.34.85,2.04.85.35,0,.63-.08.84-.23.21-.15.31-.35.31-.6s-.1-.45-.29-.59c-.2-.14-.53-.27-1.01-.38-.48-.11-.84-.22-1.09-.32-.25-.1-.47-.22-.66-.38-.38-.29-.58-.74-.58-1.34s.22-1.06.65-1.39c.44-.32.98-.49,1.62-.49.41,0,.83.07,1.24.2.41.14.76.33,1.06.58l-.59.83c-.19-.17-.45-.32-.78-.43-.33-.11-.65-.17-.97-.17Z"/><path class="cls-3" d="m198.96,225.76c.63.57.94,1.36.94,2.36s-.3,1.81-.91,2.4-1.54.88-2.79.88h-2.16v-6.49h2.23c1.16,0,2.06.28,2.68.85Zm-.17,2.39c0-1.49-.85-2.23-2.55-2.23h-1.1v4.45h1.22c.79,0,1.39-.19,1.81-.56.42-.37.63-.93.63-1.66Z"/><path class="cls-3" d="m204.28,230.41c.38,0,.7-.06.98-.19.27-.13.56-.33.85-.61l.71.72c-.69.76-1.52,1.14-2.5,1.14s-1.8-.32-2.44-.95c-.65-.63-.97-1.43-.97-2.4s.33-1.77.99-2.42c.66-.64,1.49-.97,2.5-.97s1.85.37,2.52,1.12l-.7.76c-.31-.3-.6-.5-.88-.62-.28-.12-.6-.18-.97-.18-.66,0-1.21.21-1.65.64-.45.42-.67.97-.67,1.63s.22,1.21.66,1.65c.44.44.97.66,1.57.66Z"/><path class="cls-3" d="m211.11,230.41c.38,0,.7-.06.98-.19.27-.13.56-.33.85-.61l.71.72c-.69.76-1.52,1.14-2.5,1.14s-1.8-.32-2.44-.95c-.65-.63-.97-1.43-.97-2.4s.33-1.77.99-2.42c.66-.64,1.49-.97,2.5-.97s1.85.37,2.52,1.12l-.7.76c-.31-.3-.6-.5-.88-.62-.28-.12-.6-.18-.97-.18-.66,0-1.21.21-1.65.64-.45.42-.67.97-.67,1.63s.22,1.21.66,1.65c.44.44.97.66,1.57.66Z"/><path class="cls-3" d="m115,271.37c.65.57.98,1.37.98,2.4s-.33,1.92-.98,2.52c-.65.6-1.57.9-2.76.9h-2.07v2.78h-1.81v-9.46h3.88c1.19,0,2.11.28,2.76.85Zm-1.28,3.78c.37-.3.55-.74.55-1.32s-.18-1.01-.55-1.3c-.36-.29-.89-.43-1.57-.43h-1.97v3.5h1.97c.68,0,1.21-.15,1.57-.45Z"/><path class="cls-3" d="m117.48,270.52h6.93v1.58h-5.12v2.34h4.59v1.58h-4.59v2.38h5.28v1.58h-7.09v-9.46Z"/><path class="cls-3" d="m125.35,270.52h7.72v1.61h-2.95v7.85h-1.82v-7.85h-2.95v-1.61Z"/><path class="cls-3" d="m140.39,279.98l-.84-2h-4.62l-.84,2h-1.88l4.15-9.46h1.88l4.09,9.46h-1.95Zm-4.81-3.55h3.32l-1.65-3.97-1.68,3.97Z"/><path class="cls-3" d="m143.49,270.52h1.81v7.82h4.08v1.63h-5.89v-9.46Z"/><path class="cls-3" d="m150.8,270.52h1.81v9.46h-1.81v-9.46Z"/><path class="cls-3" d="m161.53,270.52h1.76v9.46h-1.72l-4.86-6.51v6.51h-1.77v-9.46h1.72l4.88,6.53v-6.53Z"/><path class="cls-3" d="m172.03,275.28h1.58v3.59c-.49.37-1.08.67-1.76.9-.68.23-1.34.34-1.99.34-.93,0-1.77-.22-2.53-.65-.76-.43-1.36-1.02-1.8-1.76-.44-.74-.66-1.57-.66-2.47s.23-1.72.68-2.45,1.07-1.32,1.84-1.74c.78-.43,1.64-.64,2.59-.64.68,0,1.34.12,2,.36.66.24,1.22.58,1.7,1l-1.03,1.34c-.36-.34-.78-.61-1.25-.8-.47-.19-.95-.28-1.43-.28-.59,0-1.14.14-1.64.43-.5.28-.89.67-1.18,1.17-.29.5-.43,1.04-.43,1.62s.15,1.14.44,1.64.69.89,1.18,1.18c.49.29,1.04.43,1.65.43.32,0,.66-.05,1.02-.16.36-.1.7-.25,1.02-.44v-2.61Z"/><path class="cls-3" d="m182.94,279.26c-.54.54-1.28.8-2.22.8-1.17,0-2.14-.47-2.92-1.42l.85-1.35c.32.33.65.59,1.01.78.36.18.69.28,1.01.28.4,0,.71-.12.93-.36.22-.24.33-.58.33-1.02v-4.84h-3.26v-1.61h5.08v6.49c0,.96-.27,1.71-.81,2.25Z"/><path class="cls-3" d="m192.62,279.98l-.84-2h-4.62l-.84,2h-1.88l4.15-9.46h1.88l4.09,9.46h-1.95Zm-4.81-3.55h3.32l-1.65-3.97-1.68,3.97Z"/><path class="cls-3" d="m202.63,270.52l-3.45,6.36v3.09h-1.81v-3.03l-3.53-6.43h1.84l2.58,4.45,2.54-4.45h1.82Z"/><path class="cls-3" d="m210.1,279.98l-.84-2h-4.62l-.84,2h-1.88l4.15-9.46h1.88l4.09,9.46h-1.95Zm-4.81-3.55h3.32l-1.65-3.97-1.68,3.97Z"/><path class="cls-3" d="m322.08,188.4c.58.42.87,1,.87,1.73,0,.52-.15.97-.44,1.34-.29.37-.7.62-1.21.75.63.12,1.12.39,1.48.81.36.42.53.95.53,1.58,0,.81-.31,1.45-.94,1.91-.63.46-1.48.7-2.56.7h-4.32v-9.46h4.2c1.01,0,1.8.21,2.39.64Zm-1.38,2.92c.27-.21.4-.49.4-.86s-.13-.64-.4-.84-.63-.29-1.1-.28h-2.3v2.3h2.3c.47,0,.84-.1,1.1-.31Zm.25,4.01c.32-.22.49-.54.49-.95s-.16-.69-.49-.91c-.32-.22-.77-.33-1.35-.32h-2.3v2.5h2.3c.58,0,1.03-.1,1.35-.32Z"/><path class="cls-3" d="m332.07,197.22l-.84-2h-4.62l-.84,2h-1.88l4.15-9.46h1.88l4.09,9.46h-1.95Zm-4.81-3.55h3.32l-1.65-3.97-1.68,3.97Z"/><path class="cls-3" d="m341.76,187.76h1.76v9.46h-1.72l-4.86-6.51v6.51h-1.77v-9.46h1.72l4.88,6.53v-6.53Z"/><path class="cls-3" d="m352.26,192.52h1.58v3.59c-.49.37-1.08.67-1.76.9-.68.23-1.34.34-1.99.34-.93,0-1.77-.22-2.53-.65-.76-.43-1.36-1.02-1.8-1.76-.44-.74-.66-1.57-.66-2.47s.23-1.72.68-2.45,1.07-1.32,1.84-1.74c.78-.43,1.64-.64,2.59-.64.68,0,1.34.12,2,.36.66.24,1.22.58,1.7,1l-1.03,1.34c-.36-.34-.78-.61-1.25-.8-.47-.19-.95-.28-1.43-.28-.59,0-1.14.14-1.64.43-.5.28-.89.67-1.18,1.17-.29.5-.43,1.04-.43,1.62s.15,1.14.44,1.64.69.89,1.18,1.18c.49.29,1.04.43,1.65.43.32,0,.66-.05,1.02-.16.36-.1.7-.25,1.02-.44v-2.61Z"/><path class="cls-3" d="m360.38,189.5c-.51-.16-.96-.24-1.35-.24-.43,0-.77.08-1.03.24s-.38.39-.38.68c0,.26.09.48.26.66s.4.32.66.43c.27.11.63.24,1.09.37.64.19,1.16.38,1.57.57.41.19.76.47,1.05.84s.43.86.43,1.46-.16,1.08-.47,1.51-.74.75-1.28.98c-.55.23-1.17.34-1.87.34-.74,0-1.46-.14-2.16-.41s-1.32-.64-1.84-1.1l.76-1.54c.48.44,1.01.79,1.61,1.04s1.15.38,1.66.38.9-.1,1.19-.29c.29-.19.43-.46.43-.79,0-.27-.09-.49-.26-.67s-.4-.32-.67-.43-.64-.23-1.11-.36c-.64-.19-1.16-.37-1.57-.55-.41-.18-.75-.45-1.04-.82-.29-.37-.43-.84-.43-1.44,0-.55.15-1.03.44-1.44s.71-.73,1.24-.95c.54-.23,1.16-.34,1.86-.34.61,0,1.22.09,1.82.27.6.18,1.13.42,1.6.73l-.73,1.58c-.49-.3-.98-.53-1.49-.69Z"/><path class="cls-3" d="m371.35,197.22l-.84-2h-4.62l-.84,2h-1.88l4.15-9.46h1.88l4.09,9.46h-1.95Zm-4.81-3.55h3.32l-1.65-3.97-1.68,3.97Z"/><path class="cls-3" d="m380.36,197.22l-1.63-2.8c-.07,0-.18.01-.34.01h-2.14v2.78h-1.81v-9.46h3.95c1.22,0,2.17.28,2.84.85.67.57,1,1.37,1,2.4,0,.74-.16,1.37-.48,1.89-.32.52-.79.91-1.4,1.18l2.08,3.13h-2.07Zm-4.11-4.38h2.14c.68,0,1.21-.15,1.57-.45.36-.3.54-.74.54-1.32s-.18-1.01-.54-1.3c-.36-.29-.88-.43-1.57-.43h-2.14v3.5Z"/><path class="cls-3" d="m137.37,318.95s175.86-56.3,355.17-111.76v11.26s-142.44,43.63-327.11,100.5h-28.07Z"/><path class="cls-3" d="m436.81,318.95h12.95s-20.27-106.13-81.92-196.21c0,0-17.45-29.49-48.77-36.74-31.32-7.25-32.87-9.19-32.87-40.58h-12.25s-7.74,44.24,34.62,49.59c0,0,27.83,4.56,46.45,31.25,16.89,24.21,61.23,102.75,81.78,192.69Z"/><polygon class="cls-3" points="361.58 255.61 440.47 298.4 438.5 307.69 345.88 259.55 361.58 255.61"/><path class="cls-3" d="m152.77,183.41l38.43,31.95s25.48,20.13,57.29,0l-9.29-7.46s-20.55,16-42.08.28l-36.6-30.45-7.74,5.68Z"/><path class="cls-3" d="m141.5,246.87s84.08,4.42,102.09-9.37c18.02-13.79,66.82-70.57,131.84-76.77,0,0,56.3-5.07,118.51,3.1v-9c-62.21-8.16-118.51-3.1-118.51-3.1-65.03,6.19-121.89,64.18-139.91,77.98-18.02,13.79-94.03,8.16-94.03,8.16v9Z"/><path class="cls-7" d="m201,178.86s-.94,4.32,2.25,7.51l2.72-2.44-4.97-5.07Z"/><path class="cls-3" d="m204.95,174.92s-.94,4.32,2.25,7.51"/><path class="cls-7" d="m206.54,171.44s7.83-1.65,11.87,2.38l-4.08,3.44-7.79-5.82Z"/><path class="cls-7" d="m219.19,195.23s-6.38.69-9.57-2.5l3.01-2.55,6.56,5.05Z"/><path class="cls-7" d="m231.31,189.08s-.93-7.88-5.93-10.62l-3.88,3.58,9.81,7.04Z"/><line class="cls-1" x1="203.26" y1="186.36" x2="218.41" y2="173.82"/><line class="cls-1" x1="209.43" y1="192.54" x2="224.58" y2="179.99"/><ellipse class="cls-8" cx="175.72" cy="202.54" rx="22.94" ry="18.77"/><path class="cls-3" d="m159.6,200.72l1.45-4.67h.98l1.45,4.67,1.64-4.67h1.18l-2.27,6.49h-1.09l-1.37-4.45h-.07l-1.37,4.45h-1.09l-2.27-6.49h1.18l1.64,4.67Z"/><path class="cls-3" d="m171.87,196.05v1.03h-3.46v1.72h3.11v.97h-3.11v1.74h3.58v1.03h-4.67v-6.49h4.56Z"/><path class="cls-3" d="m176.85,201.06l-.65,1.48h-1.17l2.86-6.49h1.17l2.86,6.49h-1.17l-.65-1.48h-3.25Zm2.81-1.01l-1.18-2.68-1.18,2.68h2.36Z"/><path class="cls-3" d="m188.01,198.16c0,1.07-.47,1.75-1.4,2.03l1.7,2.36h-1.39l-1.55-2.18h-1.44v2.18h-1.1v-6.49h2.42c.99,0,1.7.17,2.13.5.43.33.64.87.64,1.61Zm-1.46.92c.22-.19.33-.5.33-.92s-.11-.72-.34-.87c-.23-.16-.64-.24-1.23-.24h-1.39v2.32h1.36c.62,0,1.04-.1,1.26-.29Z"/><path class="cls-3" d="m194.15,196.05v1.03h-3.46v1.72h3.11v.97h-3.11v1.74h3.58v1.03h-4.67v-6.49h4.56Z"/><path class="cls-3" d="m163.55,213.69v-6.49h1.1v2.81h3.22v-2.81h1.1v6.49h-1.1v-2.66h-3.22v2.66h-1.1Z"/><path class="cls-3" d="m175.33,207.19v1.03h-3.46v1.72h3.11v.97h-3.11v1.74h3.58v1.03h-4.67v-6.49h4.56Z"/><path class="cls-3" d="m182.03,209.3c0,1.07-.47,1.75-1.4,2.03l1.7,2.36h-1.39l-1.55-2.18h-1.44v2.18h-1.1v-6.49h2.42c.99,0,1.7.17,2.13.5.43.33.64.87.64,1.61Zm-1.46.92c.22-.19.33-.5.33-.92s-.11-.72-.34-.87c-.23-.16-.64-.24-1.23-.24h-1.39v2.32h1.36c.62,0,1.04-.1,1.26-.29Z"/><path class="cls-3" d="m188.17,207.19v1.03h-3.46v1.72h3.11v.97h-3.11v1.74h3.58v1.03h-4.67v-6.49h4.56Z"/><circle class="cls-9" cx="149.39" cy="173.8" r="5.05"/><circle class="cls-4" cx="159.61" cy="148.94" r="5.05"/><circle class="cls-4" cx="203.43" cy="255.23" r="5.05"/><circle class="cls-4" cx="322.08" cy="251.09" r="5.05"/><circle class="cls-4" cx="372.93" cy="232.43" r="5.05"/><circle class="cls-4" cx="418.02" cy="178.08" r="5.05"/><circle class="cls-4" cx="250.94" cy="181.1" r="5.05"/><circle class="cls-4" cx="223.46" cy="156.71" r="5.05"/><circle class="cls-4" cx="203.43" cy="129.84" r="5.05"/><circle class="cls-9" cx="214.41" cy="208.71" r="5.05"/><path class="cls-5" d="m184.38,123.76l.05-.51c.32.06.55.05.69-.02.14-.08.23-.21.28-.39.03-.14.03-.26,0-.38-.04-.11-.11-.2-.21-.27-.1-.06-.27-.12-.5-.18l-2.84-.68.13-.55,2.81.67c.34.08.6.19.77.32.17.13.28.29.34.5.06.2.06.43,0,.67-.09.36-.26.61-.51.76-.25.14-.58.16-.99.06Z"/><path class="cls-5" d="m186.12,121.54l-3.57-2.8.18-.58,4.55-.41-.19.61-1.37.1-.52,1.69,1.09.82-.17.57Zm-1.3-1.68l.42-1.37-1.25.08c-.38.02-.69.03-.93.03.24.13.48.28.71.46l1.05.81Z"/><path class="cls-5" d="m187.38,117.57l-3.95-1.51.2-.52,3.49,1.33.74-1.95.47.18-.94,2.47Z"/><path class="cls-5" d="m188.3,115.1l-3.17-3.24.25-.55,4.57.18-.26.58-1.37-.08-.73,1.61.97.96-.25.54Zm-1.07-1.83l.6-1.31-1.25-.08c-.38-.03-.69-.06-.92-.09.22.16.44.34.64.54l.94.94Z"/><path class="cls-5" d="m190.06,111.28l-3.72-2.03.28-.5,3.98-.36-2.92-1.59.26-.47,3.72,2.03-.28.5-3.98.36,2.92,1.59-.26.47Z"/><path class="cls-5" d="m192.79,106.51l-3.51-2.36.89-1.32c.18-.27.36-.46.54-.57.18-.11.38-.17.58-.16.21,0,.4.07.56.17.15.1.26.24.34.41.08.17.1.37.07.58.2-.17.42-.26.65-.28.23-.01.44.05.65.19.16.11.29.25.39.41.09.16.15.32.15.48,0,.15-.02.32-.08.5-.06.18-.17.38-.32.61l-.9,1.34Zm-1.72-1.83l.51-.76c.14-.21.22-.36.26-.47.04-.14.05-.27,0-.38s-.12-.21-.25-.3c-.12-.08-.24-.12-.36-.12-.13,0-.24.03-.34.12-.1.08-.24.25-.41.5l-.47.7,1.06.71Zm1.62,1.09l.59-.87c.1-.15.17-.26.2-.33.05-.12.08-.23.08-.33,0-.1-.02-.21-.08-.31-.05-.1-.14-.19-.25-.27-.13-.09-.27-.13-.41-.13-.14,0-.27.05-.39.14-.12.09-.25.25-.4.47l-.55.81,1.21.81Z"/><path class="cls-5" d="m193.24,98.63l.34-.44,1.94,1.49c.34.26.58.5.72.73.14.23.19.49.17.79-.03.3-.17.6-.42.93-.24.32-.49.53-.76.65-.26.12-.53.14-.8.07-.27-.07-.58-.24-.94-.52l-1.94-1.49.34-.44,1.94,1.49c.29.22.53.36.71.41s.36.04.53-.03c.18-.07.34-.21.48-.4.25-.33.36-.62.31-.87s-.27-.54-.69-.86l-1.94-1.49Z"/><path class="cls-5" d="m197.37,100.23l-3.19-2.78.37-.42,1.58,1.38-.21-2.96.5-.57.13,2.46,3.12.25-.48.56-2.61-.27.06.97,1.11.96-.37.42Z"/><path class="cls-5" d="m199.96,97.32l-3.09-2.9.38-.41,3.09,2.9-.38.41Z"/><path class="cls-5" d="m201.64,95.58l-2.63-2.64-.99.98-.35-.35,2.38-2.37.35.35-.99.99,2.63,2.64-.4.4Z"/><path class="cls-5" d="m204.3,93.02l-2.78-3.19.42-.37,1.38,1.58.2-2.96.57-.5-.21,2.46,3.05.68-.56.49-2.54-.62-.08.96.96,1.1-.42.37Z"/><path class="cls-5" d="m207.26,90.48l-2.68-3.27.43-.35,2.68,3.27-.43.36Z"/><path class="cls-5" d="m207.93,89.9l-1.29-4.34.48-.37,3.95,2.3-.51.39-1.17-.72-1.4,1.08.41,1.3-.47.36Zm-.09-2.12l1.14-.88-1.06-.66c-.32-.2-.58-.37-.77-.51.12.25.23.51.31.78l.39,1.27Z"/><path class="cls-5" d="m211.29,87.33l-2.43-3.46,1.53-1.08c.31-.22.56-.35.77-.4.2-.05.41-.03.62.06.21.09.38.23.51.42.17.24.24.51.2.79-.04.28-.21.56-.51.84.16-.03.29-.03.4-.02.22.03.45.09.7.19l1.27.52-.58.4-.96-.4c-.28-.11-.5-.2-.67-.24s-.3-.07-.4-.07c-.1,0-.19.02-.27.05-.06.03-.15.08-.27.16l-.53.37,1.08,1.54-.46.32Zm-.9-2.26l.98-.69c.21-.15.36-.28.45-.41.09-.13.13-.26.12-.4,0-.14-.05-.26-.13-.38-.12-.16-.27-.26-.46-.28-.19-.02-.42.06-.67.24l-1.1.77.8,1.14Z"/><path class="cls-5" d="m214.23,85.26l-.93-4.44.51-.33,3.75,2.62-.54.35-1.11-.81-1.49.96.3,1.33-.5.32Zm.08-2.12l1.2-.78-1.01-.74c-.31-.23-.55-.42-.73-.57.1.26.18.52.25.8l.28,1.3Z"/><path class="cls-5" d="m312.31,180.14l-2.23-3.6,2.43-1.51.26.42-1.95,1.21.69,1.11,1.69-1.05.26.42-1.69,1.05,1.01,1.63-.48.3Z"/><path class="cls-5" d="m315.22,178.34l-2.11-3.67,1.63-.93c.33-.19.59-.3.8-.33.21-.03.41,0,.61.12.2.11.35.26.47.47.15.26.19.53.13.8-.07.28-.26.54-.59.79.16-.01.3,0,.4.01.22.05.44.13.68.26l1.21.63-.61.35-.92-.48c-.27-.14-.48-.24-.64-.31-.16-.06-.29-.1-.39-.1-.1,0-.19,0-.28.03-.06.02-.16.07-.28.14l-.56.32.93,1.63-.49.28Zm-.69-2.33l1.04-.6c.22-.13.38-.25.48-.37.1-.12.15-.25.16-.38,0-.14-.02-.27-.09-.39-.1-.17-.24-.28-.43-.32-.19-.04-.42.02-.69.17l-1.16.67.7,1.21Z"/><path class="cls-5" d="m317.63,174.59c-.33-.62-.42-1.19-.27-1.72.15-.53.48-.93,1.01-1.21.35-.18.7-.26,1.06-.25s.7.14,1,.35c.3.22.55.51.75.89.2.38.3.76.31,1.14s-.09.72-.29,1.02-.46.54-.79.71c-.35.19-.71.27-1.08.24-.37-.02-.7-.14-1-.36s-.54-.49-.71-.82Zm.51-.26c.24.45.55.74.93.87.38.13.75.1,1.12-.09.37-.2.61-.49.71-.88.1-.39.03-.82-.23-1.31-.16-.3-.35-.54-.58-.72-.22-.17-.47-.27-.73-.29-.26-.02-.52.04-.77.17-.35.19-.59.47-.71.84s-.04.84.26,1.41Z"/><path class="cls-5" d="m322.65,174.28l-1.86-3.8.76-.37,2.21,2.25c.21.21.36.37.46.47-.02-.16-.06-.4-.1-.71l-.38-3.09.68-.33,1.86,3.8-.48.24-1.55-3.18.45,3.72-.45.22-2.68-2.7,1.58,3.24-.49.24Z"/><path class="cls-5" d="m328.3,171.58l-1.71-3.87,1.46-.64c.26-.11.46-.19.61-.22.2-.05.39-.06.56-.03.17.03.33.11.48.24.15.13.27.28.35.48.15.33.16.65.05.97-.11.32-.44.6-.98.84l-.99.44.69,1.57-.51.23Zm-.38-2.26l1-.44c.33-.15.54-.31.62-.5.08-.18.08-.39-.02-.61-.07-.16-.17-.28-.31-.36s-.27-.11-.42-.09c-.1.01-.26.07-.49.18l-.99.44.61,1.38Z"/><path class="cls-5" d="m332.69,165.1l.52-.21.93,2.26c.16.39.25.72.25.99,0,.27-.08.52-.25.76-.17.24-.45.44-.83.59-.37.15-.69.21-.98.18s-.53-.15-.72-.34c-.2-.2-.38-.5-.55-.92l-.93-2.26.52-.21.93,2.26c.14.34.27.58.4.71.13.13.29.21.48.24.19.02.4,0,.62-.1.38-.16.62-.35.71-.59.09-.24.04-.6-.17-1.1l-.93-2.26Z"/><path class="cls-5" d="m334.88,167.32l.48-.23c.1.19.22.33.35.42s.31.15.52.16c.21,0,.43-.03.65-.11.2-.08.36-.17.49-.29s.21-.24.25-.37c.03-.13.03-.26-.02-.38-.05-.12-.12-.22-.23-.28s-.26-.1-.45-.1c-.12,0-.38.02-.78.08-.4.05-.68.07-.86.04-.23-.03-.41-.1-.56-.21-.15-.11-.26-.26-.33-.44-.08-.2-.09-.41-.04-.62s.16-.41.35-.58c.18-.17.41-.31.67-.41.29-.11.57-.16.83-.16s.48.08.68.22c.19.14.33.32.43.55l-.49.23c-.12-.24-.29-.39-.49-.46-.2-.07-.46-.04-.76.07-.32.12-.52.27-.62.44-.1.17-.12.34-.06.5.05.14.15.24.29.29.14.05.43.05.9-.02s.79-.09.97-.08c.27.02.49.09.66.21.17.12.3.29.38.5.08.21.1.43.05.66-.05.23-.17.44-.35.63-.19.19-.42.34-.7.45-.36.14-.68.2-.96.19-.28-.01-.53-.1-.75-.25s-.38-.37-.49-.63Z"/><path class="cls-5" d="m338.63,167.34l.11-4.53.57-.2,3.05,3.41-.6.21-.89-1.04-1.67.59v1.36s-.57.2-.57.2Zm.57-2.05l1.35-.48-.81-.96c-.25-.29-.44-.53-.58-.73.04.27.06.55.06.84l-.02,1.33Z"/><path class="cls-5" d="m343.22,165.73l-1.18-3.54-1.32.44-.16-.47,3.18-1.06.16.47-1.33.44,1.18,3.54-.53.18Z"/><path class="cls-5" d="m346.75,164.58l-1.22-4.05,1.52-.46c.31-.09.57-.13.78-.1.21.03.4.11.55.25s.26.3.32.49c.05.17.05.35,0,.53s-.15.35-.31.5c.27,0,.49.06.68.2s.31.32.38.55c.06.19.07.38.04.57-.03.19-.09.34-.18.47-.09.12-.22.24-.38.33-.16.1-.38.19-.63.26l-1.55.47Zm-.17-2.51l.88-.26c.24-.07.4-.14.5-.2.12-.08.21-.18.25-.3.04-.11.04-.24,0-.38-.04-.13-.11-.24-.2-.33-.09-.08-.21-.12-.34-.13s-.34.04-.63.13l-.81.24.37,1.22Zm.56,1.87l1.01-.3c.17-.05.29-.1.36-.13.12-.06.21-.13.28-.2.07-.08.11-.17.14-.29.02-.11.02-.24-.02-.37-.05-.15-.12-.27-.24-.36-.11-.09-.24-.13-.39-.14-.15,0-.36.03-.61.11l-.94.28.42,1.39Z"/><path class="cls-5" d="m349.96,163.61l.44-4.51.58-.16,2.8,3.62-.61.17-.82-1.1-1.7.47-.11,1.36-.57.16Zm.71-2l1.38-.38-.74-1.01c-.23-.31-.4-.56-.52-.77.02.28.02.56,0,.84l-.12,1.32Z"/><path class="cls-5" d="m354.03,162.49l-1.04-4.1.56-.14,2.97,2.68-.81-3.22.52-.13,1.04,4.1-.56.14-2.97-2.68.81,3.22-.52.13Z"/><path class="cls-5" d="m358.01,161.49l-.94-4.13,1.42-.32c.32-.07.57-.11.75-.11.25,0,.47.05.67.16.26.13.48.33.65.59.17.26.3.58.39.94.07.31.1.6.08.86-.02.26-.07.48-.15.66s-.17.34-.29.46-.26.23-.45.32c-.18.09-.4.16-.65.22l-1.49.34Zm.44-.61l.88-.2c.27-.06.48-.14.62-.22.14-.09.25-.18.32-.3.1-.16.16-.36.18-.59s0-.51-.07-.82c-.1-.43-.24-.75-.44-.95-.19-.2-.4-.32-.62-.35-.16-.02-.4,0-.73.08l-.87.2.72,3.15Z"/><path class="cls-5" d="m361.56,160.68l.75-4.47.59-.12,2.54,3.8-.63.13-.74-1.16-1.73.35-.2,1.35-.58.12Zm.85-1.95l1.41-.29-.67-1.06c-.2-.32-.36-.59-.47-.8,0,.28-.02.56-.06.84l-.21,1.31Z"/><path class="cls-5" d="m365.71,159.85l-.75-4.16,1.85-.33c.37-.07.66-.08.87-.04.21.04.38.14.53.31.15.17.24.37.29.6.05.3,0,.56-.15.8-.16.24-.43.42-.82.55.16.04.28.09.37.15.19.12.37.28.56.47l.93,1-.69.12-.71-.77c-.21-.22-.37-.39-.5-.5-.13-.11-.24-.19-.33-.23-.09-.04-.18-.06-.27-.07-.07,0-.17,0-.31.04l-.64.12.33,1.85-.55.1Zm.13-2.43l1.19-.21c.25-.05.44-.11.58-.18s.23-.18.28-.31.07-.26.04-.39c-.04-.2-.14-.35-.3-.45s-.4-.12-.71-.07l-1.32.24.25,1.38Z"/><path class="cls-5" d="m371.21,158.89l-.62-4.19,1.44-.21c.33-.05.58-.07.75-.05.25.02.47.09.66.21.25.15.45.37.6.64.15.27.26.6.31.97.05.32.05.61.01.86s-.1.47-.2.65-.2.32-.32.44-.28.21-.47.28c-.19.08-.41.13-.66.17l-1.51.22Zm.48-.58l.89-.13c.28-.04.49-.1.64-.17.15-.08.26-.17.34-.27.11-.15.19-.34.23-.57.04-.23.04-.51,0-.82-.06-.44-.19-.76-.36-.98-.18-.21-.38-.35-.59-.4-.16-.04-.4-.03-.73.02l-.88.13.47,3.2Z"/><path class="cls-5" d="m374.81,158.36l1.09-4.4.6-.08,2.24,3.98-.63.08-.65-1.21-1.76.22-.3,1.33-.59.07Zm1-1.88l1.42-.18-.58-1.11c-.18-.34-.31-.61-.41-.83-.02.28-.06.55-.13.83l-.31,1.29Z"/><path class="cls-5" d="m378.98,157.84l-.43-4.21.84-.08,1.3,2.88c.12.27.21.47.26.6.03-.16.08-.39.16-.7l.71-3.03.75-.08.43,4.21-.54.05-.36-3.52-.87,3.65-.5.05-1.58-3.46.36,3.58-.54.05Z"/><path class="cls-5" d="m383.27,157.41l1.29-4.34.6-.05,2.05,4.08-.64.05-.59-1.24-1.76.14-.36,1.31-.59.05Zm1.08-1.83l1.43-.11-.53-1.13c-.16-.34-.28-.63-.37-.85-.03.27-.09.55-.16.82l-.37,1.27Z"/><path class="cls-5" d="m387.5,157.09l-.24-4.23.57-.03,2.4,3.19-.18-3.32.54-.03.24,4.23-.57.03-2.4-3.2.18,3.32-.54.03Z"/><path class="cls-5" d="m391.36,155.51l.53-.06c.03.21.1.38.19.51.1.13.24.24.44.31.2.08.41.11.65.1.21,0,.4-.05.56-.11.16-.07.28-.16.36-.27s.11-.24.11-.37c0-.13-.05-.25-.13-.34-.08-.1-.21-.17-.39-.24-.12-.04-.37-.1-.76-.18s-.67-.16-.83-.24c-.21-.1-.36-.23-.46-.38-.1-.15-.16-.33-.17-.52,0-.21.05-.41.16-.6.12-.19.29-.34.52-.44.23-.1.49-.16.77-.17.31-.01.59.03.83.12.24.09.43.24.57.43.14.19.21.41.23.66l-.54.06c-.04-.27-.14-.47-.31-.6-.17-.13-.42-.19-.74-.18-.34.01-.58.08-.73.21-.15.13-.22.28-.22.46,0,.15.06.28.18.37.11.09.4.19.85.27s.77.17.95.24c.25.11.44.24.56.41.12.17.19.37.2.6,0,.23-.05.44-.17.64s-.3.36-.54.48-.51.18-.81.19c-.38.01-.71-.03-.97-.13-.26-.1-.47-.26-.63-.48-.15-.22-.24-.47-.26-.75Z"/><path class="cls-5" d="m394.89,156.75l1.57-4.25h.6s1.79,4.2,1.79,4.2h-.64s-.51-1.27-.51-1.27l-1.77.02-.45,1.29h-.59Zm1.2-1.75l1.44-.02-.46-1.17c-.14-.35-.24-.65-.31-.87-.05.27-.12.54-.22.81l-.45,1.25Z"/><path class="cls-5" d="m399.15,156.7l.03-4.23h1.88c.38.02.66.06.86.14s.35.21.47.41c.12.19.17.41.17.64,0,.3-.1.55-.3.76-.2.2-.5.33-.9.39.15.07.26.14.34.21.16.15.32.34.46.57l.73,1.16h-.7s-.55-.89-.55-.89c-.16-.25-.3-.45-.4-.59-.1-.14-.2-.23-.28-.29s-.17-.09-.25-.11c-.06-.01-.17-.02-.31-.02h-.65s-.01,1.87-.01,1.87h-.56Zm.58-2.36h1.2c.26.01.46-.01.6-.07.15-.05.26-.14.33-.25.08-.12.11-.24.12-.38,0-.2-.07-.37-.21-.5-.14-.13-.37-.2-.69-.2h-1.34s-.01,1.39-.01,1.39Z"/><path class="cls-5" d="m402.77,156.73l1.74-4.18.6.02,1.61,4.28-.64-.02-.46-1.29-1.77-.05-.5,1.27-.59-.02Zm1.27-1.7l1.43.04-.41-1.18c-.12-.36-.22-.65-.27-.89-.06.27-.15.54-.25.8l-.5,1.23Z"/><path class="cls-5" d="m176.92,244.13l.51-.07c.01.32.07.54.18.66.11.12.26.18.45.18.14,0,.26-.03.36-.1.1-.06.17-.15.21-.26.04-.11.06-.29.06-.53v-2.92s.56,0,.56,0v2.88c0,.35-.04.63-.12.82-.09.19-.22.34-.41.45-.18.1-.4.15-.65.15-.37,0-.66-.11-.85-.32-.2-.21-.29-.53-.29-.95Z"/><path class="cls-5" d="m179.56,245.33l1.58-4.25h.6s1.78,4.21,1.78,4.21h-.64s-.51-1.27-.51-1.27l-1.77.02-.45,1.29h-.59Zm1.2-1.75l1.44-.02-.45-1.17c-.14-.35-.24-.65-.31-.87-.05.27-.12.54-.22.81l-.45,1.25Z"/><path class="cls-5" d="m183.79,245.28l-.09-4.23h.56s.08,3.72.08,3.72l2.08-.04v.5s-2.63.06-2.63.06Z"/><path class="cls-5" d="m186.47,245.22l1.49-4.28.6-.02,1.87,4.17-.64.02-.53-1.27-1.77.06-.42,1.3-.59.02Zm1.17-1.78l1.43-.05-.48-1.16c-.15-.35-.26-.64-.33-.87-.04.27-.11.54-.2.81l-.42,1.26Z"/><path class="cls-5" d="m190.72,245.08l-.19-4.23.57-.03,2.37,3.22-.15-3.32.54-.02.19,4.23-.57.03-2.37-3.22.15,3.32-.54.02Z"/><path class="cls-5" d="m196.33,244.81l-.27-4.22,1.45-.09c.33-.02.58-.02.76.01.25.04.46.13.64.26.24.17.42.4.55.69.13.29.21.62.23.99.02.32,0,.61-.06.86-.06.25-.14.46-.25.63-.11.17-.23.31-.36.41-.13.1-.3.18-.49.24-.19.06-.42.1-.67.12l-1.52.1Zm.53-.53l.9-.06c.28-.02.49-.06.65-.12s.28-.14.36-.24c.12-.14.22-.33.28-.56s.08-.5.06-.82c-.03-.44-.12-.78-.28-1-.16-.23-.35-.37-.56-.44-.15-.05-.4-.06-.73-.04l-.89.06.21,3.23Z"/><path class="cls-5" d="m199.94,244.58l1.28-4.35.6-.05,2.07,4.08-.64.05-.59-1.24-1.76.14-.36,1.31-.59.05Zm1.08-1.83l1.43-.12-.53-1.13c-.16-.34-.29-.63-.37-.85-.03.27-.09.55-.16.82l-.36,1.28Z"/><path class="cls-5" d="m204.16,244.24l-.42-4.21.84-.08,1.29,2.88c.12.27.21.47.26.6.03-.16.08-.39.16-.7l.72-3.03.75-.08.42,4.21-.54.05-.35-3.52-.87,3.65-.5.05-1.57-3.46.36,3.59-.54.05Z"/><path class="cls-5" d="m208.46,243.81l1.11-4.4.6-.07,2.23,3.99-.63.08-.64-1.21-1.76.21-.31,1.33-.59.07Zm1-1.87l1.42-.17-.58-1.11c-.18-.34-.31-.62-.4-.83-.02.28-.06.55-.13.83l-.31,1.29Z"/><path class="cls-5" d="m212.65,243.3l-.6-4.19.57-.08,2.67,2.98-.47-3.29.53-.08.6,4.19-.57.08-2.67-2.98.47,3.29-.53.08Z"/><path class="cls-5" d="m216.3,241.4l.51-.13c.06.2.15.37.26.48.11.12.27.2.48.25.2.05.42.06.66.02.21-.04.39-.1.54-.19.15-.09.26-.2.32-.32.06-.12.08-.25.06-.38-.02-.13-.08-.24-.17-.32s-.23-.15-.42-.18c-.12-.02-.38-.05-.78-.08s-.68-.07-.85-.13c-.22-.07-.39-.18-.51-.31-.12-.14-.2-.3-.23-.49-.04-.21,0-.42.08-.62.09-.2.24-.37.45-.51.21-.13.46-.22.74-.27.31-.05.59-.05.84.01.25.06.46.18.62.35s.26.38.32.62l-.52.13c-.07-.26-.2-.44-.39-.55-.19-.11-.44-.13-.76-.08-.33.06-.57.16-.7.31-.13.15-.18.31-.16.48.02.15.1.26.22.34.12.08.42.13.88.16.47.03.79.06.97.11.26.07.47.18.61.34s.24.34.27.56c.04.22,0,.44-.09.66-.09.22-.25.4-.47.55-.22.15-.48.25-.78.3-.38.06-.7.06-.98,0-.27-.07-.5-.2-.68-.4-.18-.2-.3-.43-.36-.71Z"/><path class="cls-5" d="m219.98,242.16l.78-4.46.59-.12,2.51,3.82-.63.12-.73-1.16-1.74.34-.21,1.35-.58.11Zm.86-1.94l1.41-.28-.66-1.07c-.2-.32-.35-.59-.46-.8,0,.28-.02.56-.07.84l-.22,1.31Z"/><path class="cls-5" d="m224.15,241.34l-.95-4.12,1.83-.42c.37-.08.66-.11.86-.08.21.03.39.13.55.29.16.16.26.35.31.58.07.29.03.56-.11.8-.14.24-.41.44-.79.58.16.04.29.08.38.13.19.11.39.26.58.44l.97.96-.69.16-.74-.73c-.22-.21-.39-.37-.52-.48-.13-.11-.25-.18-.34-.21-.09-.03-.18-.05-.27-.05-.07,0-.17.02-.31.05l-.63.15.42,1.83-.55.13Zm.02-2.43l1.17-.27c.25-.06.44-.13.57-.21s.22-.19.26-.32.06-.26.02-.4c-.05-.19-.15-.34-.32-.43s-.41-.1-.71-.03l-1.31.3.31,1.36Z"/><path class="cls-5" d="m227.73,240.52l.46-4.51.58-.16,2.78,3.63-.62.17-.81-1.11-1.71.46-.11,1.36-.57.16Zm.72-2l1.38-.38-.73-1.02c-.22-.31-.4-.56-.52-.77.02.28.02.56,0,.84l-.12,1.32Z"/><path class="cls-5" d="m300.02,274.52l-1.23-4.05,2.73-.83.15.48-2.2.67.38,1.25,1.9-.58.14.48-1.9.58.56,1.84-.54.16Z"/><path class="cls-5" d="m303.34,273.51l-1.24-4.05,2.93-.89.15.48-2.39.73.38,1.24,2.24-.68.15.48-2.24.68.42,1.38,2.48-.76.15.48-3.02.92Z"/><path class="cls-5" d="m306.95,272.41l-1.25-4.04,1.39-.43c.31-.1.56-.15.74-.16.25-.02.48.02.68.11.27.11.5.3.69.54.19.25.34.55.46.91.09.31.14.59.14.85,0,.26-.03.48-.09.67-.06.19-.15.35-.25.48s-.25.25-.42.35c-.17.1-.38.19-.63.27l-1.46.45Zm.39-.64l.86-.27c.27-.08.47-.17.6-.27.14-.1.24-.2.3-.32.09-.17.13-.37.14-.6s-.04-.51-.13-.81c-.13-.42-.3-.73-.51-.91s-.42-.28-.65-.3c-.16-.01-.4.03-.72.13l-.85.26.95,3.09Z"/><path class="cls-5" d="m310.91,271.18l-1.26-4.04,2.92-.91.15.48-2.39.74.39,1.24,2.23-.7.15.47-2.23.7.43,1.37,2.48-.77.15.48-3.02.94Z"/><path class="cls-5" d="m314.53,270.05l-1.27-4.04,1.79-.56c.36-.11.64-.16.85-.15.21.01.4.09.57.24.17.15.29.33.36.56.09.29.07.56-.05.81-.12.25-.37.47-.74.64.16.02.29.06.39.1.2.09.41.23.61.4l1.05.88-.67.21-.8-.67c-.23-.19-.42-.34-.56-.44-.14-.1-.26-.16-.36-.18s-.19-.04-.28-.03c-.07,0-.17.03-.3.07l-.62.19.56,1.79-.53.17Zm-.17-2.42l1.15-.36c.24-.08.43-.16.55-.26.12-.09.2-.21.24-.34.04-.13.03-.27,0-.4-.06-.19-.18-.33-.36-.41-.18-.08-.42-.07-.72.02l-1.28.4.42,1.34Z"/><path class="cls-5" d="m317.99,268.97l.27-4.52.57-.18,2.93,3.51-.61.19-.86-1.07-1.69.53-.06,1.36-.57.18Zm.64-2.02l1.37-.43-.77-.98c-.24-.3-.42-.55-.55-.75.03.28.04.56.03.84l-.07,1.32Z"/><path class="cls-5" d="m322.04,267.69l-1.28-4.03.53-.17,1.13,3.56,1.99-.63.15.48-2.52.8Z"/><path class="cls-5" d="m326.29,266.33l-1.29-4.03.53-.17.53,1.65,2.09-.67-.53-1.65.53-.17,1.29,4.03-.53.17-.61-1.9-2.09.67.61,1.9-.53.17Z"/><path class="cls-5" d="m330.29,265.04l-1.3-4.03.53-.17,1.3,4.03-.53.17Z"/><path class="cls-5" d="m332.98,262.43l-.15-.47,1.7-.56.48,1.49c-.19.29-.41.54-.66.73s-.51.34-.8.44c-.4.13-.78.16-1.16.1-.38-.07-.7-.23-.97-.5-.27-.27-.47-.6-.6-.99-.13-.39-.16-.78-.11-1.18.05-.39.21-.72.46-.99.25-.26.58-.46.98-.59.29-.09.57-.13.84-.11.27.02.49.09.68.21.19.13.36.31.52.56l-.44.29c-.13-.19-.25-.32-.38-.41-.13-.09-.29-.14-.48-.16-.19-.02-.39,0-.59.07-.24.08-.44.18-.6.32-.15.13-.26.28-.33.43-.07.16-.11.32-.12.48-.02.28.01.57.11.86.12.36.28.64.48.84.2.2.44.32.71.36.27.04.54.02.81-.07.23-.08.44-.19.63-.35.19-.16.33-.31.41-.45l-.24-.75-1.18.38Z"/><path class="cls-5" d="m335.86,263.24l-1.31-4.02.53-.17.54,1.65,2.09-.68-.54-1.65.53-.17,1.31,4.02-.53.17-.62-1.9-2.09.68.62,1.9-.53.17Z"/><path class="cls-5" d="m340.47,261.73l-2.39-3.67.55-.18,1.48,2.43c.16.25.3.51.44.77-.04-.46-.06-.73-.06-.8l-.13-2.97.64-.21,1.25,1.84c.31.46.57.9.78,1.32-.03-.27-.06-.58-.09-.94l-.22-2.79.53-.18.22,4.38-.51.17-1.85-2.78c-.16-.23-.25-.38-.28-.43.02.2.03.37.04.51l.16,3.34-.54.18Z"/><path class="cls-5" d="m344.28,260.48l.21-4.53.57-.19,2.97,3.47-.61.2-.87-1.06-1.68.56-.04,1.36-.56.19Zm.61-2.03l1.36-.45-.79-.97c-.24-.3-.43-.54-.56-.74.03.27.05.55.04.84l-.05,1.32Z"/><path class="cls-5" d="m349.03,258.9l-.57-1.7-2.32-1.8.65-.22,1.2.95c.22.18.43.36.63.54.05-.25.12-.53.2-.85l.38-1.44.62-.21-.83,2.85.57,1.7-.53.18Z"/><path class="cls-5" d="m327.21,96.44l.49.15c-.12.3-.16.53-.11.68.05.15.16.27.33.35.13.06.25.08.37.06s.22-.07.3-.15.17-.24.27-.46l1.2-2.66.51.23-1.19,2.63c-.15.32-.3.55-.46.7-.16.14-.34.22-.55.24s-.43-.03-.66-.13c-.34-.15-.55-.37-.64-.64-.09-.28-.05-.6.13-.99Z"/><path class="cls-5" d="m329.07,98.57l3.41-2.99.53.28-.44,4.55-.56-.3.16-1.36-1.57-.82-1.01.92-.53-.28Zm1.89-.97l1.27.67.16-1.24c.05-.38.09-.68.14-.92-.17.21-.37.42-.58.61l-.99.88Z"/><path class="cls-5" d="m332.74,100.54l2.19-3.62.48.29-1.93,3.19,1.78,1.08-.26.43-2.26-1.37Z"/><path class="cls-5" d="m335.02,101.9l3.74-2.56.5.34-.97,4.47-.53-.36.32-1.34-1.46-1-1.11.79-.49-.34Zm1.99-.74l1.18.81.3-1.22c.09-.37.17-.67.25-.89-.2.19-.41.37-.65.54l-1.09.76Z"/><path class="cls-5" d="m338.46,104.29l2.61-3.33.45.36-.3,3.99,2.05-2.61.42.33-2.61,3.33-.45-.36.31-3.99-2.05,2.62-.42-.33Z"/><path class="cls-5" d="m342.75,107.77l2.88-3.1,1.07.99c.24.22.41.41.51.56.14.21.22.42.25.64.03.29,0,.58-.13.87s-.31.57-.56.85c-.22.24-.44.42-.66.55-.22.13-.43.22-.63.25-.2.04-.38.05-.54.02-.17-.03-.34-.09-.51-.19s-.36-.24-.55-.41l-1.12-1.04Zm.75.02l.66.62c.2.19.38.32.53.39s.29.1.43.1c.19,0,.39-.07.59-.18s.42-.29.64-.52c.3-.32.48-.62.54-.9.06-.27.03-.51-.06-.71-.07-.15-.23-.33-.47-.56l-.65-.61-2.2,2.37Z"/><path class="cls-5" d="m350.69,109.63l.39.4-1.76,1.69c-.31.3-.58.49-.83.6-.25.1-.51.12-.8.05-.29-.07-.57-.26-.85-.55-.28-.29-.45-.57-.53-.84s-.06-.54.05-.8.33-.54.65-.85l1.76-1.69.39.4-1.76,1.69c-.27.26-.44.47-.52.64-.08.17-.09.35-.05.53s.15.36.32.54c.29.3.56.44.81.44.26,0,.58-.19.96-.56l1.76-1.69Z"/><path class="cls-5" d="m349.23,114.33l2.81-2.45-.92-1.05.38-.33,2.2,2.53-.38.33-.92-1.06-2.81,2.45-.37-.42Z"/><path class="cls-5" d="m350.18,115.41l4.31-1.39.38.47-2.21,4-.4-.5.69-1.19-1.11-1.38-1.29.44-.37-.46Zm2.12-.14l.9,1.12.64-1.08c.19-.33.36-.59.49-.78-.24.13-.5.24-.77.33l-1.26.42Z"/><g class="cls-6"><path class="cls-3" d="m55.8,18.51c0-.34,0-.68.02-1.02l-4.42,11.76h-1.84l-4.42-11.76c.02.34.02.68.02,1.02s0,.68-.02,1.02l-.39,11.5h-2.13l.75-16.2h2.69l4.42,12.01,4.41-12.01h2.69l.75,16.2h-2.13l-.39-11.5c-.02-.34-.02-.68-.02-1.02Z"/><path class="cls-3" d="m69.57,26.86h-5.7l-1.38,4.17h-2.38l5.31-16.2h2.6l5.31,16.2h-2.35l-1.41-4.17Zm-.53-1.82l-2.33-8-2.3,8h4.63Z"/><path class="cls-3" d="m85.56,19.63c0,2.67-1.21,4.29-3.64,4.85-.81.18-1.9.27-3.27.27h-.87v6.28h-2.33V14.83h3.83c1.25,0,2.23.1,2.96.3.73.2,1.37.55,1.92,1.06.94.82,1.41,1.97,1.41,3.44Zm-3.4,2.57c.7-.5,1.04-1.29,1.04-2.38s-.28-1.88-.83-2.4c-.57-.57-1.67-.85-3.3-.85h-1.31v6.23h.92c1.78,0,2.94-.2,3.47-.61Z"/><path class="cls-3" d="m95.04,16.89h-4.22v-2.06h10.75v2.06h-4.22v14.14h-2.3v-14.14Z"/><path class="cls-3" d="m106.23,15.21c.83-.47,1.81-.7,2.92-.7s2.09.23,2.94.7c.84.47,1.5,1.11,1.96,1.92.92,1.58,1.38,3.52,1.38,5.8s-.47,4.16-1.41,5.77c-.48.82-1.15,1.47-1.99,1.94s-1.82.7-2.95.7-2.1-.23-2.92-.7c-.82-.47-1.47-1.11-1.94-1.92-.92-1.58-1.38-3.52-1.38-5.8s.48-4.2,1.43-5.8c.47-.81,1.12-1.45,1.95-1.92Zm-.07,12.3c.64,1.18,1.63,1.77,2.97,1.77s2.33-.59,2.97-1.77.96-2.71.96-4.6-.32-3.41-.96-4.58c-.64-1.17-1.63-1.76-2.97-1.76s-2.33.59-2.97,1.76c-.64,1.17-.96,2.7-.96,4.58s.32,3.42.96,4.6Z"/><path class="cls-3" d="m125.99,14.83v16.2h-2.3V14.83h2.3Zm.68,7.91l6.16-7.91h2.89l-6.43,7.79,6.79,8.42h-3.03l-6.38-8.29Z"/><path class="cls-3" d="m138.24,25.09v-10.26h2.33v9.92c0,1.68.21,2.81.63,3.37.45.76,1.31,1.14,2.58,1.14s2.14-.38,2.61-1.14c.44-.6.66-1.72.66-3.37v-9.92h2.33v10.26c0,1.89-.36,3.36-1.09,4.39-.89,1.21-2.37,1.83-4.44,1.84-2.07.02-3.57-.6-4.51-1.84-.73-1.03-1.09-2.5-1.09-4.39Z"/><path class="cls-3" d="m160.7,26.86h-5.7l-1.38,4.17h-2.38l5.31-16.2h2.6l5.31,16.2h-2.35l-1.41-4.17Zm-.53-1.82l-2.33-8-2.3,8h4.63Z"/><path class="cls-3" d="m168.89,29.06h6.06v1.96h-8.39V14.83h2.33v14.24Z"/><path class="cls-3" d="m185.1,26.86h-5.7l-1.38,4.17h-2.38l5.31-16.2h2.6l5.31,16.2h-2.35l-1.41-4.17Zm-.53-1.82l-2.33-8-2.3,8h4.63Z"/><path class="cls-3" d="m197.83,29.06h6.06v1.96h-8.39V14.83h2.33v14.24Z"/><path class="cls-3" d="m205.86,25.09v-10.26h2.33v9.92c0,1.68.21,2.81.63,3.37.45.76,1.31,1.14,2.58,1.14s2.14-.38,2.61-1.14c.44-.6.66-1.72.66-3.37v-9.92h2.33v10.26c0,1.89-.36,3.36-1.09,4.39-.89,1.21-2.37,1.83-4.44,1.84-2.07.02-3.57-.6-4.51-1.84-.73-1.03-1.09-2.5-1.09-4.39Z"/><path class="cls-3" d="m233.56,18.51c0-.34,0-.68.02-1.02l-4.42,11.76h-1.84l-4.42-11.76c.02.34.02.68.02,1.02s0,.68-.02,1.02l-.39,11.5h-2.13l.75-16.2h2.69l4.42,12.01,4.41-12.01h2.69l.75,16.2h-2.13l-.39-11.5c-.02-.34-.02-.68-.02-1.02Z"/><path class="cls-3" d="m249.71,19.63c0,2.67-1.21,4.29-3.64,4.85-.81.18-1.9.27-3.27.27h-.87v6.28h-2.33V14.83h3.83c1.25,0,2.23.1,2.96.3.73.2,1.37.55,1.92,1.06.94.82,1.41,1.97,1.41,3.44Zm-3.4,2.57c.7-.5,1.04-1.29,1.04-2.38s-.28-1.88-.83-2.4c-.57-.57-1.67-.85-3.3-.85h-1.31v6.23h.92c1.78,0,2.94-.2,3.47-.61Z"/><path class="cls-3" d="m252.26,25.09v-10.26h2.33v9.92c0,1.68.21,2.81.63,3.37.45.76,1.31,1.14,2.58,1.14s2.14-.38,2.61-1.14c.44-.6.66-1.72.66-3.37v-9.92h2.33v10.26c0,1.89-.36,3.36-1.09,4.39-.89,1.21-2.37,1.83-4.44,1.84-2.07.02-3.57-.6-4.51-1.84-.73-1.03-1.09-2.5-1.09-4.39Z"/><path class="cls-3" d="m277.24,19.63c0,1.78-.52,3.07-1.55,3.88-.55.42-1.17.72-1.84.9l4.46,5.84-1.75,1.19-5.02-6.72c-.26.02-.66.02-1.21.02h-.87v6.28h-2.33V14.83h3.83c1.25,0,2.23.1,2.96.3.73.2,1.37.55,1.92,1.06.94.82,1.41,1.97,1.41,3.44Zm-3.4,2.57c.7-.5,1.04-1.29,1.04-2.38s-.28-1.88-.83-2.4c-.57-.57-1.67-.85-3.3-.85h-1.31v6.23h.92c1.78,0,2.94-.2,3.47-.61Z"/><path class="cls-3" d="m288.89,17.93c-.83.95-1.25,2.56-1.25,4.81s.42,3.91,1.25,4.96c.83,1.05,1.87,1.58,3.12,1.58.79,0,1.57-.18,2.33-.53v-3.9h-2.72v-1.94h4.9v6.96c-1.55.99-3.1,1.48-4.66,1.48-1.83,0-3.36-.63-4.58-1.89-.63-.65-1.13-1.53-1.49-2.66-.36-1.12-.55-2.43-.55-3.92,0-2.91.6-5.04,1.81-6.38,1.2-1.34,2.86-2.01,4.96-2.01,1.21,0,2.49.19,3.83.56l-.48,1.82c-1.08-.24-2.08-.36-2.98-.36-1.49,0-2.65.48-3.48,1.43Z"/><path class="cls-3" d="m302.45,15.21c.83-.47,1.81-.7,2.92-.7s2.09.23,2.94.7c.84.47,1.5,1.11,1.96,1.92.92,1.58,1.38,3.52,1.38,5.8s-.47,4.16-1.41,5.77c-.48.82-1.15,1.47-1.99,1.94s-1.82.7-2.95.7-2.1-.23-2.92-.7c-.82-.47-1.47-1.11-1.94-1.92-.92-1.58-1.38-3.52-1.38-5.8s.48-4.2,1.43-5.8c.47-.81,1.12-1.45,1.95-1.92Zm-.07,12.3c.64,1.18,1.63,1.77,2.97,1.77s2.33-.59,2.97-1.77.96-2.71.96-4.6-.32-3.41-.96-4.58c-.64-1.17-1.63-1.76-2.97-1.76s-2.33.59-2.97,1.76c-.64,1.17-.96,2.7-.96,4.58s.32,3.42.96,4.6Z"/><path class="cls-3" d="m317.14,29.06h6.06v1.96h-8.39V14.83h2.33v14.24Z"/><path class="cls-3" d="m334.62,16.79h-6.69v4.92h6.26v1.94h-6.26v7.37h-2.33V14.83h9.02v1.96Z"/><path class="cls-3" d="m345.05,21.5c-1.21-1.44-1.82-2.69-1.82-3.75s.34-1.86,1.03-2.41,1.59-.83,2.72-.83,2.32.29,3.58.87l-.61,1.67c-.94-.47-1.95-.7-3.03-.7s-1.62.44-1.62,1.31c0,.7.47,1.6,1.41,2.72l4.97,5.82c.97-1.47,1.53-3.18,1.67-5.12h1.92c-.16,2.64-.91,4.87-2.26,6.69.5.47,1.09.94,1.77,1.42.68.48,1.25.82,1.7,1.03l-.87,1.55c-1.55-.68-2.87-1.5-3.95-2.45-1.33,1.34-3.01,2.01-5.04,2.01-1.46,0-2.68-.41-3.69-1.24-1-.82-1.5-1.97-1.5-3.44,0-2.05,1.21-3.78,3.64-5.17Zm-.8,3.06c-.44.65-.66,1.37-.66,2.17s.31,1.46.92,1.99,1.37.79,2.26.79c1.41,0,2.58-.57,3.52-1.7l-4.1-4.78c-.86.37-1.5.88-1.94,1.53Z"/><path class="cls-3" d="m370.04,31.34c-4.66,0-6.99-2.81-6.99-8.44,0-2.91.59-5.04,1.78-6.38,1.19-1.34,2.83-2.01,4.91-2.01,1.1,0,2.32.19,3.66.56l-.44,1.82c-1.08-.24-2.04-.36-2.86-.36-1.49,0-2.65.48-3.48,1.43s-1.25,2.57-1.25,4.85c0,4.37,1.71,6.55,5.12,6.55.83,0,1.71-.1,2.67-.29l.32,1.82c-1.28.31-2.42.46-3.44.46Z"/><path class="cls-3" d="m378.59,15.21c.83-.47,1.81-.7,2.92-.7s2.09.23,2.94.7c.84.47,1.5,1.11,1.96,1.92.92,1.58,1.38,3.52,1.38,5.8s-.47,4.16-1.41,5.77c-.48.82-1.15,1.47-1.99,1.94s-1.82.7-2.95.7-2.1-.23-2.92-.7c-.82-.47-1.47-1.11-1.94-1.92-.92-1.58-1.38-3.52-1.38-5.8s.48-4.2,1.43-5.8c.47-.81,1.12-1.45,1.95-1.92Zm-.07,12.3c.64,1.18,1.63,1.77,2.97,1.77s2.33-.59,2.97-1.77.96-2.71.96-4.6-.32-3.41-.96-4.58c-.64-1.17-1.63-1.76-2.97-1.76s-2.33.59-2.97,1.76c-.64,1.17-.96,2.7-.96,4.58s.32,3.42.96,4.6Z"/><path class="cls-3" d="m390.85,25.09v-10.26h2.33v9.92c0,1.68.21,2.81.63,3.37.45.76,1.31,1.14,2.58,1.14s2.14-.38,2.61-1.14c.44-.6.66-1.72.66-3.37v-9.92h2.33v10.26c0,1.89-.36,3.36-1.09,4.39-.89,1.21-2.37,1.83-4.44,1.84-2.07.02-3.57-.6-4.51-1.84-.73-1.03-1.09-2.5-1.09-4.39Z"/><path class="cls-3" d="m417.86,31.03h-2.38l-7.66-13.12c.06.63.1,1.31.1,2.04v11.08h-2.21V14.83h2.38l7.67,13.12c-.07-.63-.1-1.31-.1-2.04v-11.08h2.21v16.2Z"/><path class="cls-3" d="m424.44,16.89h-4.22v-2.06h10.75v2.06h-4.22v14.14h-2.3v-14.14Z"/><path class="cls-3" d="m443.43,19.63c0,1.78-.52,3.07-1.55,3.88-.55.42-1.17.72-1.84.9l4.46,5.84-1.75,1.19-5.02-6.72c-.26.02-.66.02-1.21.02h-.87v6.28h-2.33V14.83h3.83c1.25,0,2.23.1,2.96.3.73.2,1.37.55,1.92,1.06.94.82,1.41,1.97,1.41,3.44Zm-3.4,2.57c.7-.5,1.04-1.29,1.04-2.38s-.28-1.88-.83-2.4c-.57-.57-1.67-.85-3.3-.85h-1.31v6.23h.92c1.78,0,2.94-.2,3.47-.61Z"/><path class="cls-3" d="m452.21,31.03h-2.33v-6.67l-5.09-9.53h2.62l3.64,7.64,3.74-7.64h2.45l-5.02,9.53v6.67Z"/><path class="cls-3" d="m470.06,31.34c-4.66,0-6.99-2.81-6.99-8.44,0-2.91.59-5.04,1.78-6.38,1.19-1.34,2.83-2.01,4.91-2.01,1.1,0,2.32.19,3.66.56l-.44,1.82c-1.08-.24-2.04-.36-2.86-.36-1.49,0-2.65.48-3.48,1.43s-1.25,2.57-1.25,4.85c0,4.37,1.71,6.55,5.12,6.55.83,0,1.71-.1,2.67-.29l.32,1.82c-1.28.31-2.42.46-3.44.46Z"/><path class="cls-3" d="m478.7,29.06h6.06v1.96h-8.39V14.83h2.33v14.24Z"/><path class="cls-3" d="m486.72,25.09v-10.26h2.33v9.92c0,1.68.21,2.81.63,3.37.45.76,1.31,1.14,2.58,1.14s2.14-.38,2.61-1.14c.44-.6.66-1.72.66-3.37v-9.92h2.33v10.26c0,1.89-.36,3.36-1.09,4.39-.89,1.21-2.37,1.83-4.44,1.84-2.07.02-3.57-.6-4.51-1.84-.73-1.03-1.09-2.5-1.09-4.39Z"/><path class="cls-3" d="m510.88,18.93c0,1.5-.62,2.59-1.87,3.25,1.04.39,1.77.91,2.2,1.56.43.65.64,1.51.64,2.56,0,1.47-.44,2.63-1.33,3.47-.89.84-2.22,1.26-4,1.26h-4.92V14.83h2.98c.95,0,1.65,0,2.09.02,2.81.1,4.22,1.46,4.22,4.07Zm-6.96-2.35v4.85h2.38c.71-.05,1.26-.29,1.65-.74.39-.44.58-.97.58-1.58s-.06-1.06-.18-1.35-.27-.52-.44-.68-.42-.28-.76-.36c-.52-.1-1.21-.15-2.09-.15h-1.14Zm2.13,12.49c2.3,0,3.44-.95,3.44-2.86,0-.97-.32-1.71-.97-2.21-.52-.52-1.44-.78-2.76-.78h-1.84v5.84h2.13Z"/></g></g></svg>