<svg xmlns="http://www.w3.org/2000/svg" width="40" height="39.996" viewBox="0 0 40 39.996">
  <g id="グループ_832" data-name="グループ 832" transform="translate(-884 -2456.003)">
    <path id="パス_4082" data-name="パス 4082" d="M2558.945,64.042A20,20,0,1,0,2535.82,83.8V69.823h-5.075V64.042h5.078V59.636c0-5.012,2.986-7.781,7.554-7.781a30.806,30.806,0,0,1,4.477.391v4.922h-2.525c-2.484,0-3.259,1.542-3.259,3.123v3.751h5.547l-.887,5.781h-4.66V83.8A20,20,0,0,0,2558.945,64.042Z" transform="translate(-1634.945 2411.958)" fill="#999"/>
    <path id="パス_4083" data-name="パス 4083" d="M2546.73,69.823l.887-5.781h-5.547V60.29c0-1.582.775-3.123,3.259-3.123h2.522V52.245a30.806,30.806,0,0,0-4.477-.391c-4.568,0-7.554,2.769-7.554,7.781v4.406h-5.078v5.781h5.078V83.8a20.215,20.215,0,0,0,6.25,0V69.823Z" transform="translate(-1634.945 2411.958)" fill="#fff"/>
  </g>
</svg>
