<svg id="header" xmlns="http://www.w3.org/2000/svg" viewBox="0 0 108.28998 19.99597">
  <g id="LOGO">
    <g id="グループ_2710" data-name="グループ 2710">
      <g id="グループ_2711" data-name="グループ 2711">
        <path id="パス_2667" data-name="パス 2667" d="M34.001,34.001c-2.9,0-4.982-.017-5.581-.045a4.40036,4.40036,0,0,1-1.49-.278,2.80009,2.80009,0,0,1-1.607-1.607,4.44393,4.44393,0,0,1-.279-1.487C25.012,29.852,25,27.22,25,25s.012-4.853.044-5.585a4.41355,4.41355,0,0,1,.279-1.487,2.8,2.8,0,0,1,1.606-1.605,4.42975,4.42975,0,0,1,1.489-.28C29.277,16.004,32.607,16,34,16s4.724,0,5.583.043a4.43979,4.43979,0,0,1,1.488.279,2.80013,2.80013,0,0,1,1.605,1.605,4.41205,4.41205,0,0,1,.28,1.489c.027.606.043,2.694.043,5.583s-.016,4.977-.043,5.586a4.42421,4.42421,0,0,1-.279,1.486,2.808,2.808,0,0,1-1.605,1.607,4.43692,4.43692,0,0,1-1.487.277C38.983,33.984,36.897,34.001,34.001,34.001Z" transform="translate(-24.00104 -15)" fill="#e90"/>
        <circle id="楕円形_410" data-name="楕円形 410" cx="9.99997" cy="10" r="2" fill="#070203"/>
        <path id="パス_2668" data-name="パス 2668" d="M62.166,16.663a.448.448,0,0,1,.447.447v1.625a.448.448,0,0,1-.447.447H56.407a.448.448,0,0,0-.447.447v3.416a.448.448,0,0,0,.447.447h5.754a.448.448,0,0,1,.447.447v1.647a.448.448,0,0,1-.447.447H56.407a.448.448,0,0,0-.447.447v6.408a.448.448,0,0,1-.447.447H52.889a.448.448,0,0,1-.447-.447V17.108a.448.448,0,0,1,.447-.447Zm13.516,9.082a.263.263,0,0,1,.013-.479,7.20028,7.20028,0,0,0,1.951-1.245,3.738,3.738,0,0,0,1.093-2.668,4.43694,4.43694,0,0,0-1.479-3.387,5.2,5.2,0,0,0-3.517-1.3H67.57a.448.448,0,0,0-.447.447V32.884a.448.448,0,0,0,.447.447h2.327a.448.448,0,0,0,.446-.447V26.74a.448.448,0,0,1,.447-.447h.722a2.46693,2.46693,0,0,1,1.373.387,4.89,4.89,0,0,1,1.241,1.312,38.454,38.454,0,0,1,2.028,3.584c.3.6.771,1.372.771,1.372a.87892.87892,0,0,0,.678.382h2.7c.245,0,.346-.174.223-.386,0,0-1.025-1.769-2.042-3.788a12.6998,12.6998,0,0,0-1.458-2.333A4.73852,4.73852,0,0,0,75.682,25.745Zm-.885-6.044a2.051,2.051,0,0,1,.716,1.712,2.18,2.18,0,0,1-.722,1.729,3.08106,3.08106,0,0,1-1.986.632H70.789a.448.448,0,0,1-.447-.447V19.58a.448.448,0,0,1,.447-.447h1.968a3.217,3.217,0,0,1,2.041.567Zm47.754-3.036a.46.46,0,0,0-.459.458v15.75a.46.46,0,0,0,.459.458h9.282a.46.46,0,0,0,.458-.458v-1.6a.46.46,0,0,0-.458-.459h-6.062a.46.46,0,0,1-.458-.458v-3.821a.46.46,0,0,1,.458-.459h5.024a.46.46,0,0,0,.459-.458v-1.6a.46.46,0,0,0-.459-.458h-5.024a.46.46,0,0,1-.458-.459v-3.456a.46.46,0,0,1,.458-.458h5.9a.46.46,0,0,0,.459-.459v-1.6a.46.46,0,0,0-.459-.459Zm-8.906,0a.811.811,0,0,0-.653.4l-3.726,7.145c-.113.218-.3.218-.413,0l-3.728-7.146a.813.813,0,0,0-.653-.4H101.427a.448.448,0,0,0-.447.447V32.884a.448.448,0,0,0,.447.447h2.329a.448.448,0,0,0,.447-.447V21.958c0-.246.1-.27.214-.055l4.43,8.119c.118.215.31.215.427,0l4.408-8.092c.117-.215.213-.191.213.054v10.9a.448.448,0,0,0,.447.447h2.327a.448.448,0,0,0,.447-.447V17.108a.448.448,0,0,0-.447-.447ZM87.523,29.275a.643.643,0,0,0-.579.427l-.976,3.2a.643.643,0,0,1-.579.427H82.645a.306.306,0,0,1-.33295-.27643L82.312,33.052a.3.3,0,0,1,.023-.147l5.168-15.818a.658.658,0,0,1,.587-.424h3.489a.69.69,0,0,1,.6.424l5.72,15.818a.3.3,0,0,1-.14456.39887L97.752,33.305a.3.3,0,0,1-.152.026H94.856a.671.671,0,0,1-.594-.427l-1.087-3.2a.674.674,0,0,0-.594-.427Zm4.3-2.447a.3.3,0,0,0,.3-.427l-2.087-6.122c-.08-.235-.2-.235-.276,0l-1.874,6.122a.313.313,0,0,0,.318.427ZM34.001,17c2.932,0,4.951.015,5.538.042a3.46393,3.46393,0,0,1,1.173.213,1.80005,1.80005,0,0,1,1.035,1.036,3.43777,3.43777,0,0,1,.212,1.169c.026.592.043,2.664.043,5.539s-.016,4.946-.042,5.537a3.45657,3.45657,0,0,1-.213,1.174,1.8,1.8,0,0,1-1.035,1.035,3.44928,3.44928,0,0,1-1.172.211c-.59.027-2.66.044-5.538.044s-4.947-.016-5.538-.044a3.44,3.44,0,0,1-1.17-.211,1.8,1.8,0,0,1-1.039-1.037,3.44564,3.44564,0,0,1-.212-1.169C26.017,29.945,26,27.875,26,25s.016-4.947.043-5.537a3.45456,3.45456,0,0,1,.212-1.174,1.8,1.8,0,0,1,1.036-1.034,3.45821,3.45821,0,0,1,1.173-.213C29.05,17.015,31.064,17,34,17m0-2c-2.02,0-4.835.008-5.628.044a5.4643,5.4643,0,0,0-1.806.346,3.79985,3.79985,0,0,0-2.175,2.175,5.45162,5.45162,0,0,0-.346,1.806c-.035.793-.044,3.608-.044,5.629s.009,4.835.044,5.629a5.45224,5.45224,0,0,0,.346,1.8,3.80492,3.80492,0,0,0,2.175,2.176,5.442,5.442,0,0,0,1.806.345c.793.036,3.608.046,5.628.046s4.835-.009,5.629-.046a5.441,5.441,0,0,0,1.805-.345,3.80492,3.80492,0,0,0,2.175-2.176,5.45224,5.45224,0,0,0,.346-1.8c.035-.794.044-3.61.044-5.629s-.009-4.836-.044-5.629a5.45137,5.45137,0,0,0-.346-1.806,3.79985,3.79985,0,0,0-2.175-2.175,5.46343,5.46343,0,0,0-1.805-.346C38.835,15.008,36.02,15,34,15Z" transform="translate(-24.00104 -15)"/>
      </g>
    </g>
  </g>
</svg>
