<svg xmlns="http://www.w3.org/2000/svg" width="40" height="40" viewBox="0 0 40 40">
  <g id="グループ_831" data-name="グループ 831" transform="translate(-1057 -2456)">
    <circle id="楕円形_213" data-name="楕円形 213" cx="20" cy="20" r="20" transform="translate(1057 2456)" fill="#999"/>
    <path id="パス_4215" data-name="パス 4215" d="M407.641,272.444c0-5.953-5.968-10.8-13.3-10.8s-13.3,4.843-13.3,10.8c0,5.337,4.733,9.806,11.126,10.651.433.093,1.023.286,1.172.656a2.732,2.732,0,0,1,.043,1.2s-.156.939-.19,1.139c-.058.336-.267,1.315,1.152.717s7.661-4.511,10.453-7.724h0a9.6,9.6,0,0,0,2.851-6.642" transform="translate(682.662 2202.355)" fill="#fff"/>
    <path id="パス_4216" data-name="パス 4216" d="M410.451,285.4h-.933a.259.259,0,0,0-.259.259v5.8a.259.259,0,0,0,.259.259h.933a.259.259,0,0,0,.259-.259v-5.8a.259.259,0,0,0-.259-.259" transform="translate(663.846 2186.518)" fill="#999"/>
    <path id="パス_4217" data-name="パス 4217" d="M421.591,285.4h-.933a.259.259,0,0,0-.259.259v3.444l-2.657-3.587a.259.259,0,0,0-.02-.026l0,0-.016-.016,0,0-.014-.012-.007-.005-.013-.009-.008,0-.014-.008-.008,0-.015-.006-.008,0-.015,0-.009,0-.015,0-.011,0-.014,0h-.956a.259.259,0,0,0-.259.259v5.8a.259.259,0,0,0,.259.259h.933a.259.259,0,0,0,.259-.259v-3.443l2.66,3.592a.259.259,0,0,0,.066.064l0,0,.016.01.007,0,.013.006.012.005.008,0,.018.006h0a.254.254,0,0,0,.066.009h.933a.259.259,0,0,0,.259-.259v-5.8a.259.259,0,0,0-.259-.259" transform="translate(659.128 2186.518)" fill="#999"/>
    <path id="パス_4218" data-name="パス 4218" d="M398.114,290.267h-2.536v-4.6a.259.259,0,0,0-.259-.259h-.933a.259.259,0,0,0-.259.259v5.8h0a.258.258,0,0,0,.073.179l0,0,0,0a.258.258,0,0,0,.179.072h3.728a.259.259,0,0,0,.259-.259v-.933a.259.259,0,0,0-.259-.259" transform="translate(673.934 2186.518)" fill="#999"/>
    <path id="パス_4219" data-name="パス 4219" d="M439.59,286.857a.259.259,0,0,0,.259-.259v-.933a.259.259,0,0,0-.259-.259h-3.728a.258.258,0,0,0-.18.073l0,0,0,0a.26.26,0,0,0-.072.179h0v5.8h0a.258.258,0,0,0,.072.179l0,0,0,0a.258.258,0,0,0,.179.072h3.728a.259.259,0,0,0,.259-.259v-.933a.259.259,0,0,0-.259-.259h-2.535v-.98h2.535a.259.259,0,0,0,.259-.259V288.1a.259.259,0,0,0-.259-.259h-2.535v-.98Z" transform="translate(646.283 2186.518)" fill="#999"/>
  </g>
</svg>
