<svg xmlns="http://www.w3.org/2000/svg" width="108.29" height="20" viewBox="0 0 108.29 20">
  <g id="コンポーネント_40_1" data-name="コンポーネント 40 – 1" transform="translate(0)">
    <g id="グループ_2710" data-name="グループ 2710" transform="translate(-150.499 -437.594)">
      <g id="グループ_2711" data-name="グループ 2711" transform="translate(-127.695 -33.698)">
        <path id="パス_2667" data-name="パス 2667" d="M289.193,491.292c-2.9,0-4.982-.017-5.581-.045a4.4,4.4,0,0,1-1.49-.278,2.8,2.8,0,0,1-1.607-1.607,4.444,4.444,0,0,1-.279-1.487c-.032-.732-.044-3.364-.044-5.584s.012-4.853.044-5.585a4.414,4.414,0,0,1,.279-1.487,2.8,2.8,0,0,1,1.606-1.605,4.43,4.43,0,0,1,1.489-.28c.859-.039,4.189-.043,5.582-.043s4.724,0,5.583.043a4.44,4.44,0,0,1,1.488.279,2.8,2.8,0,0,1,1.605,1.605,4.412,4.412,0,0,1,.28,1.489c.027.606.043,2.694.043,5.583s-.016,4.977-.043,5.586a4.424,4.424,0,0,1-.279,1.486,2.808,2.808,0,0,1-1.605,1.607,4.437,4.437,0,0,1-1.487.277C294.175,491.275,292.089,491.292,289.193,491.292Z" transform="translate(-0.999 -0.999)" fill="#e90"/>
        <circle id="楕円形_410" data-name="楕円形 410" cx="2" cy="2" r="2" transform="translate(286.194 479.292)" fill="#070203"/>
        <path id="パス_2668" data-name="パス 2668" d="M316.359,472.955a.448.448,0,0,1,.447.447v1.625a.448.448,0,0,1-.447.447H310.6a.448.448,0,0,0-.447.447v3.416a.448.448,0,0,0,.447.447h5.754a.448.448,0,0,1,.447.447v1.647a.448.448,0,0,1-.447.447H310.6a.448.448,0,0,0-.447.447v6.408a.448.448,0,0,1-.447.447h-2.624a.448.448,0,0,1-.447-.447V473.4a.448.448,0,0,1,.447-.447Zm13.516,9.082a.263.263,0,0,1,.013-.479,7.2,7.2,0,0,0,1.951-1.245,3.738,3.738,0,0,0,1.093-2.668,4.437,4.437,0,0,0-1.479-3.387,5.2,5.2,0,0,0-3.517-1.3h-6.173a.448.448,0,0,0-.447.447v15.771a.448.448,0,0,0,.447.447h2.327a.448.448,0,0,0,.446-.447v-6.144a.448.448,0,0,1,.447-.447h.722a2.467,2.467,0,0,1,1.373.387,4.89,4.89,0,0,1,1.241,1.312,38.458,38.458,0,0,1,2.028,3.584c.3.6.771,1.372.771,1.372a.879.879,0,0,0,.678.382h2.7c.245,0,.346-.174.223-.386,0,0-1.025-1.769-2.042-3.788a12.7,12.7,0,0,0-1.458-2.333A4.738,4.738,0,0,0,329.875,482.037Zm-.885-6.044a2.051,2.051,0,0,1,.716,1.712,2.18,2.18,0,0,1-.722,1.729,3.081,3.081,0,0,1-1.986.632h-2.016a.448.448,0,0,1-.447-.447v-3.747a.448.448,0,0,1,.447-.447h1.968a3.217,3.217,0,0,1,2.041.567Zm47.754-3.036a.46.46,0,0,0-.459.458v15.75a.46.46,0,0,0,.459.458h9.282a.46.46,0,0,0,.458-.458v-1.6a.46.46,0,0,0-.458-.459h-6.062a.46.46,0,0,1-.458-.458v-3.821a.46.46,0,0,1,.458-.459h5.024a.46.46,0,0,0,.459-.458v-1.6a.46.46,0,0,0-.459-.458h-5.024a.46.46,0,0,1-.458-.459v-3.456a.46.46,0,0,1,.458-.458h5.9a.46.46,0,0,0,.459-.459v-1.6a.46.46,0,0,0-.459-.459Zm-8.906,0a.811.811,0,0,0-.653.4l-3.726,7.145c-.113.218-.3.218-.413,0l-3.728-7.146a.813.813,0,0,0-.653-.4H355.62a.448.448,0,0,0-.447.447v15.773a.448.448,0,0,0,.447.447h2.329a.448.448,0,0,0,.447-.447V478.25c0-.246.1-.27.214-.055l4.43,8.119c.118.215.31.215.427,0l4.408-8.092c.117-.215.213-.191.213.054v10.9a.448.448,0,0,0,.447.447h2.327a.448.448,0,0,0,.447-.447V473.4a.448.448,0,0,0-.447-.447Zm-26.122,12.61a.643.643,0,0,0-.579.427l-.976,3.2a.643.643,0,0,1-.579.427h-2.744a.306.306,0,0,1-.333-.277.3.3,0,0,1,.023-.147l5.168-15.818a.658.658,0,0,1,.587-.424h3.489a.69.69,0,0,1,.6.424l5.72,15.818a.3.3,0,0,1-.147.4.3.3,0,0,1-.152.026h-2.744a.671.671,0,0,1-.594-.427l-1.087-3.2a.674.674,0,0,0-.594-.427Zm4.3-2.447a.3.3,0,0,0,.3-.427l-2.087-6.122c-.08-.235-.2-.235-.276,0l-1.874,6.122a.313.313,0,0,0,.318.427Zm-57.822-9.828c2.932,0,4.951.015,5.538.042a3.464,3.464,0,0,1,1.173.213,1.8,1.8,0,0,1,1.035,1.036,3.438,3.438,0,0,1,.212,1.169c.026.592.043,2.664.043,5.539s-.016,4.946-.042,5.537a3.457,3.457,0,0,1-.213,1.174,1.8,1.8,0,0,1-1.035,1.035,3.449,3.449,0,0,1-1.172.211c-.59.027-2.66.044-5.538.044s-4.947-.016-5.538-.044a3.44,3.44,0,0,1-1.17-.211A1.8,1.8,0,0,1,280.448,488a3.446,3.446,0,0,1-.212-1.169c-.026-.594-.043-2.664-.043-5.539s.016-4.947.043-5.537a3.455,3.455,0,0,1,.212-1.174,1.8,1.8,0,0,1,1.036-1.034,3.458,3.458,0,0,1,1.173-.213c.586-.027,2.6-.042,5.536-.042m0-2c-2.02,0-4.835.008-5.628.044a5.464,5.464,0,0,0-1.806.346,3.8,3.8,0,0,0-2.175,2.175,5.451,5.451,0,0,0-.346,1.806c-.035.793-.044,3.608-.044,5.629s.009,4.835.044,5.629a5.452,5.452,0,0,0,.346,1.8,3.805,3.805,0,0,0,2.175,2.176,5.442,5.442,0,0,0,1.806.345c.793.036,3.608.046,5.628.046s4.835-.009,5.629-.046a5.441,5.441,0,0,0,1.805-.345,3.805,3.805,0,0,0,2.175-2.176,5.452,5.452,0,0,0,.346-1.8c.035-.794.044-3.61.044-5.629s-.009-4.836-.044-5.629a5.451,5.451,0,0,0-.346-1.806,3.8,3.8,0,0,0-2.175-2.175,5.463,5.463,0,0,0-1.805-.346c-.794-.036-3.609-.044-5.629-.044Z" fill="#070203"/>
      </g>
    </g>
  </g>
</svg>
