<svg xmlns="http://www.w3.org/2000/svg" width="40" height="40" viewBox="0 0 40 40">
  <g id="グループ_833" data-name="グループ 833" transform="translate(-756 -2456)">
    <path id="長方形_379" data-name="長方形 379" d="M2410.945,44.042h0a20,20,0,0,1,20,20h0a20,20,0,0,1-20,20h0a20,20,0,0,1-20-20h0A20,20,0,0,1,2410.945,44.042Z" transform="translate(-1634.945 2411.958)" fill="#999"/>
    <path id="パス_4081" data-name="パス 4081" d="M2407.363,73.912a12.9,12.9,0,0,0,13.295-12.492c0-.069,0-.139.005-.208,0-.193,0-.386-.014-.577a9.3,9.3,0,0,0,2.332-2.311,9.662,9.662,0,0,1-2.684.7,4.526,4.526,0,0,0,2.055-2.47,9.656,9.656,0,0,1-2.968,1.084,4.839,4.839,0,0,0-5.615-.879,4.4,4.4,0,0,0-2.349,4.951,13.485,13.485,0,0,1-9.632-4.665,4.35,4.35,0,0,0,1.447,5.96,4.8,4.8,0,0,1-2.121-.559V62.5a4.523,4.523,0,0,0,3.749,4.377,4.879,4.879,0,0,1-2.11.077,4.659,4.659,0,0,0,4.366,3.1,9.655,9.655,0,0,1-5.8,1.915,9.973,9.973,0,0,1-1.119-.066,13.689,13.689,0,0,0,7.163,2" transform="translate(-1634.945 2411.958)" fill="#fff"/>
  </g>
</svg>
