<svg xmlns="http://www.w3.org/2000/svg" xmlns:xlink="http://www.w3.org/1999/xlink" width="526" height="92" viewBox="0 0 526 92"><defs><style>.a{fill:#fff;}.b{fill:url(#a);}.c{fill:#999;}.d{fill:#0058a0;}.e{fill:#faa61a;}.f{fill:url(#b);}.g{fill:#b2917b;}.h{fill:#ed1c24;}.i{fill:#003375;}.j{fill:url(#c);}.k{opacity:0.5;}.l{fill:#336698;}.m{fill:#2f78bb;}.n{fill:url(#d);}.o{fill:url(#e);}.p{fill:url(#f);}.q{fill:url(#g);}.r{fill:#005189;}</style><linearGradient id="a" x1="0.5" x2="0.5" y2="1" gradientUnits="objectBoundingBox"><stop offset="0" stop-color="#fff"/><stop offset="1" stop-color="#bdccd4"/></linearGradient><linearGradient id="b" x1="0.5" x2="0.5" y2="1" gradientUnits="objectBoundingBox"><stop offset="0" stop-color="#fff"/><stop offset="1" stop-color="#f2dcc4"/></linearGradient><linearGradient id="c" x1="0.5" y1="-0.055" x2="0.5" y2="1.014" gradientUnits="objectBoundingBox"><stop offset="0" stop-color="#9dd3f2"/><stop offset="0.5" stop-color="#17a4de"/><stop offset="1" stop-color="#2f78bb"/></linearGradient><linearGradient id="d" x1="0.5" y1="0.003" x2="0.5" y2="0.99" gradientUnits="objectBoundingBox"><stop offset="0" stop-color="#fff"/><stop offset="1" stop-color="#ccc"/></linearGradient><linearGradient id="e" y1="0.5" x2="1" y2="0.5" gradientUnits="objectBoundingBox"><stop offset="0" stop-color="#1d2970"/><stop offset="1" stop-color="#006dba"/></linearGradient><linearGradient id="f" y1="0.5" x2="1" y2="0.5" gradientUnits="objectBoundingBox"><stop offset="0" stop-color="#6e2b2f"/><stop offset="1" stop-color="#e30138"/></linearGradient><linearGradient id="g" y1="0.5" x2="1" y2="0.5" gradientUnits="objectBoundingBox"><stop offset="0" stop-color="#007b40"/><stop offset="1" stop-color="#55b330"/></linearGradient></defs><g transform="translate(-691 -598)"><rect class="a" width="526" height="92" rx="6" transform="translate(691 598)"/><g transform="translate(712.199 618.536)"><g transform="translate(0 0)"><path class="b" d="M81.263,45.71a5.093,5.093,0,0,1-5.079,5.079H5.079A5.093,5.093,0,0,1,0,45.71V5.079A5.093,5.093,0,0,1,5.079,0h71.1a5.093,5.093,0,0,1,5.079,5.079Z"/><path class="c" d="M76.184.177a4.915,4.915,0,0,1,4.9,4.9V45.71a4.915,4.915,0,0,1-4.909,4.909H5.079a4.915,4.915,0,0,1-4.9-4.909V5.079a4.915,4.915,0,0,1,4.9-4.9h71.1m0-.177H5.079A5.093,5.093,0,0,0,0,5.079V45.71a5.093,5.093,0,0,0,5.079,5.079h71.1a5.093,5.093,0,0,0,5.079-5.079V5.079A5.093,5.093,0,0,0,76.184,0Z"/></g><g transform="translate(9.437 15.97)"><g transform="translate(0 0)"><path class="d" d="M17.013,27.553,19.859,9.242h4.715l-2.95,18.311H17.085" transform="translate(3.605 -8.885)"/><path class="d" d="M35.433,9.807a11.668,11.668,0,0,0-4.224-.767c-4.662,0-7.95,2.473-7.969,6.026-.03,2.623,2.342,4.088,4.13,4.961,1.837.894,2.456,1.466,2.447,2.267-.012,1.224-1.466,1.782-2.827,1.782a9.476,9.476,0,0,1-4.441-.957l-.606-.291L21.3,26.914a14.235,14.235,0,0,0,5.252.973c4.946,0,8.172-2.448,8.211-6.236.018-2.081-1.237-3.659-3.961-4.962-1.648-.846-2.659-1.413-2.65-2.265,0-.758.855-1.57,2.7-1.57a8.276,8.276,0,0,1,3.533.707l.424.208.636-3.959" transform="translate(6.891 -9.04)"/><path class="d" d="M42.231,9.248H38.2a2.357,2.357,0,0,0-2.473,1.546l-7,16.765H33.67s.807-2.3.991-2.786c.541,0,5.353.03,6.04.03.141.638.574,2.756.574,2.756h4.383L41.949,9.248m-5.92,11.659c.39-.832,1.878-5.056,1.878-5.056-.026.048.389-1.033.627-1.717l.318,1.539s.9,4.4,1.092,5.234Z" transform="translate(12.582 -8.891)"/><path class="d" d="M19.862,9.18,15.194,21.671l-.521-2.509a14.034,14.034,0,0,0-6.536-7.649l4.215,15.975,4.987.011,7.42-18.212H19.731" transform="translate(-3.199 -8.933)"/><path class="e" d="M13,9.249h-7.6L5.342,9.6A15.809,15.809,0,0,1,16.8,19.142l-1.652-8.377A1.943,1.943,0,0,0,13,9.249Z" transform="translate(-5.342 -8.892)"/></g></g></g><g transform="translate(811.128 618.536)"><g transform="translate(0)"><path class="f" d="M81.263,45.71a5.093,5.093,0,0,1-5.079,5.079H5.079A5.093,5.093,0,0,1,0,45.71V5.079A5.093,5.093,0,0,1,5.079,0h71.1a5.093,5.093,0,0,1,5.079,5.079Z"/><path class="g" d="M76.184.177a4.915,4.915,0,0,1,4.9,4.9V45.71a4.915,4.915,0,0,1-4.909,4.909H5.079a4.915,4.915,0,0,1-4.9-4.909V5.079a4.915,4.915,0,0,1,4.9-4.9h71.1m0-.177H5.079A5.093,5.093,0,0,0,0,5.079V45.71a5.093,5.093,0,0,0,5.079,5.079h71.1a5.093,5.093,0,0,0,5.079-5.079V5.079A5.093,5.093,0,0,0,76.184,0Z"/></g><g transform="translate(15.24 10.202)"><g transform="translate(0 0)"><circle class="h" cx="15.193" cy="15.193" r="15.193" transform="translate(0 0)"/><g transform="translate(20.738)"><path class="e" d="M35.219,5.775a15.141,15.141,0,0,0-10.2,3.931,15.4,15.4,0,0,0-1.533,1.608h3.07a15.546,15.546,0,0,1,1.159,1.609H22.327a15.468,15.468,0,0,0-.883,1.609h7.137a15.211,15.211,0,0,1,.643,1.608H20.808a15.017,15.017,0,0,0-.442,1.608h9.306a15.332,15.332,0,0,1,.341,3.217,15.17,15.17,0,0,1-.783,4.826H20.808a15.325,15.325,0,0,0,.643,1.609h7.137a15.081,15.081,0,0,1-.883,1.609H22.327a15.154,15.154,0,0,0,1.159,1.608h3.07a15.205,15.205,0,0,1-1.537,1.613,15.193,15.193,0,1,0,10.2-26.455Z" transform="translate(-20.366 -5.775)"/></g><g transform="translate(0.97 11.292)"><g transform="translate(0 0.207)"><path class="i" d="M16.683,16.885a2.924,2.924,0,0,0-.367-.026c-.935,0-1.413.32-1.413.956a.574.574,0,0,0,.592.638C16.171,18.445,16.651,17.811,16.683,16.885Zm1.2,2.8H16.521l.032-.648a2.069,2.069,0,0,1-1.729.758,1.542,1.542,0,0,1-1.507-1.712c0-1.526,1.06-2.417,2.9-2.417a5.535,5.535,0,0,1,.673.048,1.549,1.549,0,0,0,.064-.406c0-.413-.286-.571-1.06-.571a5.528,5.528,0,0,0-1.746.283l.23-1.413a6.554,6.554,0,0,1,1.973-.332c1.413,0,2.168.636,2.166,1.837a8.152,8.152,0,0,1-.132,1.237C18.241,17.258,17.925,19.2,17.888,19.682Z" transform="translate(-6.009 -11.527)"/><path class="i" d="M15.79,20.244H14.14l.945-5.923-2.111,5.923H11.851l-.14-5.89-.991,5.89H9.176l1.29-7.706h2.373l.143,4.314,1.447-4.314h2.638Z" transform="translate(-9.176 -12.089)"/><path class="i" d="M31.394,16.887a2.908,2.908,0,0,0-.367-.027c-.936,0-1.413.32-1.413.956a.574.574,0,0,0,.592.638C30.881,18.447,31.366,17.813,31.394,16.887Zm1.2,2.793H31.228l.03-.648a2.067,2.067,0,0,1-1.728.758,1.54,1.54,0,0,1-1.507-1.712c0-1.526,1.06-2.417,2.9-2.417a5.5,5.5,0,0,1,.671.048,1.549,1.549,0,0,0,.064-.406c0-.413-.286-.571-1.06-.571a5.543,5.543,0,0,0-1.747.283c.017-.1.229-1.413.229-1.413a6.554,6.554,0,0,1,1.973-.332c1.413,0,2.168.636,2.166,1.837a7.87,7.87,0,0,1-.132,1.237c-.147.917-.447,2.864-.488,3.341Z" transform="translate(5.265 -11.529)"/><path class="i" d="M21.133,19.934a3.766,3.766,0,0,1-1.185.2,1.207,1.207,0,0,1-1.3-1.376,14.486,14.486,0,0,1,.226-1.671c.1-.587.715-4.277.715-4.277h1.641l-.191.949h.989L21.8,15.269h-.995c-.191,1.192-.461,2.676-.465,2.874,0,.323.177.465.564.465a1.353,1.353,0,0,0,.445-.058Z" transform="translate(-1.928 -11.878)"/><path class="i" d="M24.844,19.534a5.582,5.582,0,0,1-1.682.254,2.493,2.493,0,0,1-2.793-2.8c0-2.143,1.217-3.72,2.869-3.72a2.1,2.1,0,0,1,2.215,2.268,6.7,6.7,0,0,1-.2,1.542H21.987c-.111.91.472,1.288,1.426,1.288a3.886,3.886,0,0,0,1.7-.394Zm-.922-3.71c.011-.131.177-1.118-.763-1.118-.53,0-.9.4-1.048,1.118Z" transform="translate(-0.612 -11.53)"/><path class="i" d="M16.729,15.4a1.828,1.828,0,0,0,1.256,1.749c.668.314.772.408.772.692,0,.39-.3.567-.947.567a4.648,4.648,0,0,1-1.479-.249L16.105,19.6a7.659,7.659,0,0,0,1.717.177c1.74,0,2.544-.662,2.544-2.1A1.717,1.717,0,0,0,19.2,15.938c-.691-.318-.77-.389-.77-.68,0-.339.274-.511.807-.511a9.2,9.2,0,0,1,1.185.094l.235-1.454a11.17,11.17,0,0,0-1.452-.122C17.361,13.274,16.723,14.238,16.729,15.4Z" transform="translate(-3.864 -11.532)"/><path class="i" d="M30.654,14.192a3.139,3.139,0,0,1,1.473.417l.27-1.673a4.851,4.851,0,0,0-1.813-.652,3.286,3.286,0,0,0-2.692,1.452c-.957-.318-1.351.323-1.834.963l-.429.1a3.2,3.2,0,0,0,.053-.631H24.168c-.207,1.943-.574,3.906-.86,5.846l-.074.422h1.65c.276-1.79.426-2.936.518-3.71l.622-.344c.094-.353.383-.463.966-.449a7.066,7.066,0,0,0-.117,1.284c0,2.051,1.108,3.326,2.883,3.326a5.141,5.141,0,0,0,1.457-.226l.29-1.756a3.206,3.206,0,0,1-1.4.4c-.959,0-1.539-.707-1.539-1.878C28.559,15.381,29.421,14.192,30.654,14.192Z" transform="translate(1.6 -12.284)"/><path class="i" d="M38.726,12.535l-.366,2.235a2.06,2.06,0,0,0-1.574-1.023,2.554,2.554,0,0,0-2.086,1.56,13.534,13.534,0,0,1-1.4-.387h0a9.062,9.062,0,0,0,.072-.943H31.854c-.2,1.943-.574,3.906-.86,5.846l-.076.422H32.57c.223-1.445.392-2.65.519-3.6.564-.511.846-.954,1.413-.924a5.363,5.363,0,0,0-.4,2.033c0,1.567.793,2.6,1.993,2.6a1.943,1.943,0,0,0,1.521-.693l-.078.583H39.1l1.256-7.706H38.728Zm-2.062,6.259c-.562,0-.846-.417-.846-1.237,0-1.237.53-2.106,1.279-2.106.567,0,.873.431.873,1.226C37.972,17.923,37.431,18.794,36.665,18.794Z" transform="translate(7.491 -12.092)"/></g><g transform="translate(0.473)"><path class="a" d="M16.058,19.987H14.41l.945-5.923-2.1,5.923H12.129l-.148-5.9-.993,5.89H9.444l1.29-7.706H13.1l.067,4.77,1.6-4.77h2.562Z" transform="translate(-9.444 -12.087)"/><path class="a" d="M16.954,16.63a2.724,2.724,0,0,0-.367-.026c-.935,0-1.413.32-1.413.954a.576.576,0,0,0,.592.64C16.447,18.195,16.926,17.555,16.954,16.63Zm1.2,2.791H16.787l.032-.648a2.072,2.072,0,0,1-1.729.758,1.542,1.542,0,0,1-1.507-1.712c0-1.526,1.06-2.415,2.9-2.415a5.535,5.535,0,0,1,.673.048,1.562,1.562,0,0,0,.064-.408c0-.413-.286-.569-1.06-.569a5.476,5.476,0,0,0-1.745.281l.23-1.413a6.554,6.554,0,0,1,1.973-.332c1.413,0,2.168.636,2.164,1.837a8.151,8.151,0,0,1-.132,1.237C18.506,17,18.2,18.947,18.154,19.421Z" transform="translate(-6.279 -11.521)"/><path class="a" d="M31.088,12.568l-.27,1.673a3.157,3.157,0,0,0-1.473-.417c-1.237,0-2.1,1.191-2.1,2.887,0,1.169.579,1.876,1.539,1.876a3.19,3.19,0,0,0,1.4-.4l-.29,1.756a5.123,5.123,0,0,1-1.457.226c-1.767,0-2.883-1.277-2.883-3.326,0-2.756,1.53-4.68,3.71-4.68a5.706,5.706,0,0,1,1.82.4Z" transform="translate(2.909 -12.167)"/><path class="a" d="M31.671,16.628A2.7,2.7,0,0,0,31.3,16.6c-.935,0-1.413.32-1.413.954a.576.576,0,0,0,.592.64C31.152,18.193,31.636,17.554,31.671,16.628Zm1.2,2.791H31.495l.03-.648a2.07,2.07,0,0,1-1.728.758,1.542,1.542,0,0,1-1.507-1.712c0-1.526,1.06-2.415,2.9-2.415a5.5,5.5,0,0,1,.671.048,1.562,1.562,0,0,0,.064-.408c0-.413-.286-.569-1.06-.569a5.476,5.476,0,0,0-1.745.281l.23-1.413a6.554,6.554,0,0,1,1.973-.329c1.413,0,2.168.636,2.164,1.837a7.87,7.87,0,0,1-.132,1.237c-.136.912-.442,2.86-.486,3.334Z" transform="translate(4.996 -11.519)"/><path class="a" d="M21.4,19.674a3.77,3.77,0,0,1-1.185.2,1.207,1.207,0,0,1-1.3-1.376,14.55,14.55,0,0,1,.226-1.671c.1-.587.715-4.277.715-4.277h1.639L21.3,13.5h.843l-.224,1.505h-.846c-.191,1.192-.461,2.676-.465,2.874,0,.323.177.465.565.465a1.329,1.329,0,0,0,.445-.058Z" transform="translate(-2.195 -11.87)"/><path class="a" d="M25.114,19.276a5.625,5.625,0,0,1-1.684.254,2.493,2.493,0,0,1-2.793-2.8c0-2.143,1.217-3.72,2.869-3.72a2.093,2.093,0,0,1,2.217,2.275,6.763,6.763,0,0,1-.2,1.54H22.255c-.111.91.472,1.29,1.424,1.29a3.886,3.886,0,0,0,1.7-.4Zm-.92-3.71c.009-.131.177-1.118-.763-1.118-.53,0-.9.4-1.048,1.118Z" transform="translate(-0.88 -11.521)"/><path class="a" d="M17,15.135a1.832,1.832,0,0,0,1.256,1.751c.668.314.77.408.77.693,0,.39-.3.567-.947.567A4.646,4.646,0,0,1,16.6,17.9s-.217,1.381-.226,1.445a7.631,7.631,0,0,0,1.715.185c1.74,0,2.544-.662,2.544-2.1a1.715,1.715,0,0,0-1.162-1.745c-.692-.318-.77-.389-.77-.682,0-.339.274-.514.807-.514a9.237,9.237,0,0,1,1.185.1l.235-1.454a11.2,11.2,0,0,0-1.452-.124C17.632,13.014,16.992,13.976,17,15.135Z" transform="translate(-4.133 -11.521)"/><path class="a" d="M37.985,19.983h-1.56L36.5,19.4a1.943,1.943,0,0,1-1.521.693c-1.2,0-1.993-1.033-1.993-2.6,0-2.085,1.237-3.842,2.683-3.842a1.862,1.862,0,0,1,1.576.855l.366-2.228h1.627Zm-2.433-1.449c.768,0,1.307-.871,1.307-2.12,0-.8-.307-1.237-.873-1.237-.749,0-1.279.874-1.279,2.106,0,.836.283,1.251.843,1.251Z" transform="translate(8.605 -12.083)"/><path class="a" d="M32.122,13.12c-.207,1.943-.574,3.9-.86,5.846l-.074.422h1.65c.59-3.833.733-4.581,1.659-4.487a6.125,6.125,0,0,1,.627-1.818c-.691-.145-1.076.246-1.59.989a5.684,5.684,0,0,0,.1-.95H32.114Z" transform="translate(7.224 -11.488)"/><path class="a" d="M24.437,13.12c-.208,1.943-.574,3.9-.86,5.846l-.074.422h1.65c.59-3.833.733-4.581,1.657-4.487a6.153,6.153,0,0,1,.627-1.818c-.691-.145-1.076.246-1.59.989a5.68,5.68,0,0,0,.1-.95H24.429Z" transform="translate(1.333 -11.488)"/></g></g></g></g></g><g transform="translate(1008.985 618.536)"><g transform="translate(0 0)"><path class="j" d="M81.263,45.71a5.093,5.093,0,0,1-5.079,5.079H5.079A5.093,5.093,0,0,1,0,45.71V5.079A5.093,5.093,0,0,1,5.079,0h71.1a5.093,5.093,0,0,1,5.079,5.079Z"/><g class="k"><path class="l" d="M76.184.177a4.915,4.915,0,0,1,4.9,4.9V45.71a4.915,4.915,0,0,1-4.909,4.909H5.079a4.915,4.915,0,0,1-4.9-4.909V5.079a4.915,4.915,0,0,1,4.9-4.9h71.1m0-.177H5.079A5.093,5.093,0,0,0,0,5.079V45.71a5.093,5.093,0,0,0,5.079,5.079h71.1a5.093,5.093,0,0,0,5.079-5.079V5.079A5.093,5.093,0,0,0,76.184,0Z"/></g><g transform="translate(7.11 14.805)"><path class="m" d="M11.915,13.971,10.74,11.065l-1.168,2.9m28.223-1.155a1.567,1.567,0,0,1-.848.15H34.859V11.344h2.12a1.74,1.74,0,0,1,.814.131.668.668,0,0,1,.353.643.749.749,0,0,1-.353.693M52.67,13.966l-1.187-2.9-1.18,2.9ZM24.934,17.107H23.168V11.4l-2.489,5.7H19.173l-2.5-5.706v5.706H13.194l-.659-1.625H8.961L8.295,17.1H6.429L9.5,9.828h2.549l2.92,6.89V9.828h2.8l2.245,4.946,2.063-4.946h2.858v7.28Zm7.013,0H26.22V9.828h5.734v1.516H27.937v1.311h3.92v1.493h-3.92V15.6h4.017Zm8.084-5.319a2.049,2.049,0,0,1-1.21,1.943,1.982,1.982,0,0,1,.848.613,2.12,2.12,0,0,1,.284,1.336v1.429H38.222v-.917a2.21,2.21,0,0,0-.27-1.413c-.251-.256-.632-.311-1.251-.311H34.859v2.65H33.144V9.828h3.948a3.992,3.992,0,0,1,2.078.353,1.7,1.7,0,0,1,.869,1.613m2.747,5.319H41.033V9.828h1.752v7.28Zm20.316,0H60.672L57.418,11.65v5.464h-3.5l-.668-1.623H49.689l-.648,1.623H47.032a3.574,3.574,0,0,1-2.489-.806,3.7,3.7,0,0,1-.917-2.779,3.908,3.908,0,0,1,.926-2.846,3.454,3.454,0,0,1,2.607-.848H48.82V11.4H47.193a1.639,1.639,0,0,0-1.32.431,2.427,2.427,0,0,0-.493,1.648,2.549,2.549,0,0,0,.472,1.71,1.641,1.641,0,0,0,1.2.376h.77l2.422-5.733h2.572l2.906,6.89V9.828h2.613l3.017,5.07V9.828h1.767v7.28ZM6.406,18.543H9.339L10,16.925h1.48l.659,1.618h5.77V17.306l.516,1.237h3l.514-1.26v1.254H36.283v-2.65h.277c.194,0,.251.025.251.353v2.3h7.42v-.618a5.807,5.807,0,0,0,2.752.618h3.106l.668-1.618h1.48l.652,1.618H58.9V17l.912,1.537h4.817V8.388h-4.77v1.2l-.668-1.2H54.293v1.2l-.613-1.2H47.085a5.876,5.876,0,0,0-2.865.592V8.388H39.657V8.98a2.8,2.8,0,0,0-1.943-.592H21.055l-1.118,2.623L18.788,8.39H13.54v1.2l-.576-1.2H8.487L6.408,13.216,4.025,18.543Z" transform="translate(-4.025 -8.381)"/><path class="a" d="M11.915,13.971,10.74,11.065l-1.168,2.9m28.223-1.155a1.567,1.567,0,0,1-.848.15H34.859V11.344h2.12a1.74,1.74,0,0,1,.814.131.668.668,0,0,1,.353.643.749.749,0,0,1-.353.693M52.67,13.966l-1.187-2.9-1.18,2.9ZM24.934,17.107H23.168V11.4l-2.489,5.7H19.173l-2.5-5.706v5.706H13.194l-.659-1.625H8.961L8.295,17.1H6.429L9.5,9.828h2.549l2.92,6.89V9.828h2.8l2.245,4.946,2.063-4.946h2.858v7.28Zm7.013,0H26.22V9.828h5.734v1.516H27.937v1.311h3.92v1.493h-3.92V15.6h4.017Zm8.084-5.319a2.049,2.049,0,0,1-1.21,1.943,1.982,1.982,0,0,1,.848.613,2.12,2.12,0,0,1,.284,1.336v1.429H38.222v-.917a2.21,2.21,0,0,0-.27-1.413c-.251-.256-.632-.311-1.251-.311H34.859v2.65H33.144V9.828h3.948a3.992,3.992,0,0,1,2.078.353,1.7,1.7,0,0,1,.869,1.613m2.747,5.319H41.033V9.828h1.752v7.28Zm20.316,0H60.672L57.418,11.65v5.464h-3.5l-.668-1.623H49.689l-.648,1.623H47.032a3.574,3.574,0,0,1-2.489-.806,3.7,3.7,0,0,1-.917-2.779,3.908,3.908,0,0,1,.926-2.846,3.454,3.454,0,0,1,2.607-.848H48.82V11.4H47.193a1.639,1.639,0,0,0-1.32.431,2.427,2.427,0,0,0-.493,1.648,2.549,2.549,0,0,0,.472,1.71,1.641,1.641,0,0,0,1.2.376h.77l2.422-5.733h2.572l2.906,6.89V9.828h2.613l3.017,5.07V9.828h1.767v7.28ZM6.406,18.543H9.339L10,16.925h1.48l.659,1.618h5.77V17.306l.516,1.237h3l.514-1.26v1.254H36.283v-2.65h.277c.194,0,.251.025.251.353v2.3h7.42v-.618a5.807,5.807,0,0,0,2.752.618h3.106l.668-1.618h1.48l.652,1.618H58.9V17l.912,1.537h4.817V8.388h-4.77v1.2l-.668-1.2H54.293v1.2l-.613-1.2H47.085a5.876,5.876,0,0,0-2.865.592V8.388H39.657V8.98a2.8,2.8,0,0,0-1.943-.592H21.055l-1.118,2.623L18.788,8.39H13.54v1.2l-.576-1.2H8.487L6.408,13.216,4.025,18.543Z" transform="translate(-4.025 -8.381)"/></g><g transform="translate(21.505 27.157)"><path class="m" d="M62.238,20.046V15.387h-4.3a3.549,3.549,0,0,0-2.148.594v-.594h-4.7a3.224,3.224,0,0,0-2.051.594v-.594H40.64v.594a4.425,4.425,0,0,0-2.314-.594H32.789v.594a3.886,3.886,0,0,0-2.42-.594h-6.2l-1.413,1.555L21.43,15.387H12.173V25.54h9.082l1.461-1.578,1.376,1.578h5.6V23.157h.549a5.786,5.786,0,0,0,2.392-.353v2.74H37.25v-2.65h.224c.284,0,.313.012.313.3V25.54H51.815a3.968,3.968,0,0,0,2.337-.65v.65H58.6a5.9,5.9,0,0,0,2.517-.468v-.011a3.673,3.673,0,0,0,1.122-5.017ZM30.316,21.671H28.173v2.44H24.834L22.714,21.7l-2.191,2.408h-6.8V16.834h6.906l2.12,2.385,2.176-2.385h5.494c1.362,0,2.894.383,2.894,2.4s-1.495,2.44-3,2.44Zm10.335-.33a2.141,2.141,0,0,1,.284,1.328v1.442H39.211v-.917a2.173,2.173,0,0,0-.279-1.413c-.251-.261-.632-.323-1.26-.323H35.836v2.65H34.11V16.834h3.964a4.2,4.2,0,0,1,2.065.344,1.707,1.707,0,0,1,.883,1.615,2.037,2.037,0,0,1-1.217,1.943,1.883,1.883,0,0,1,.843.6Zm7.066-3h-4.03v1.323h3.924v1.484H43.687v1.447h4.021V24.1H41.977V16.834h5.731Zm4.374,5.771H48.738v-1.56h3.332a1,1,0,0,0,.707-.177.645.645,0,0,0,.2-.473.624.624,0,0,0-.21-.481.883.883,0,0,0-.624-.168C50.54,21.2,48.527,21.3,48.527,19a2.148,2.148,0,0,1,2.456-2.166h3.443v1.549H51.282a1.15,1.15,0,0,0-.689.131.613.613,0,0,0,.118,1.06,1.943,1.943,0,0,0,.668.083l.924.026a2.743,2.743,0,0,1,1.961.587,2.04,2.04,0,0,1,.514,1.542c0,1.57-.965,2.3-2.7,2.3Zm8.833-.707a2.9,2.9,0,0,1-2.134.707H55.47v-1.56h3.3a.968.968,0,0,0,.7-.177.641.641,0,0,0,.2-.473.6.6,0,0,0-.21-.481.86.86,0,0,0-.6-.168C57.247,21.2,55.235,21.3,55.235,19A2.155,2.155,0,0,1,57.7,16.834h3.357v1.549H57.986a1.177,1.177,0,0,0-.7.131.571.571,0,0,0-.251.53.548.548,0,0,0,.376.542,1.92,1.92,0,0,0,.661.083l.931.025a2.692,2.692,0,0,1,1.943.587.932.932,0,0,1,.159.177l-.058-.076a2.388,2.388,0,0,1-.138,3.03ZM19.736,18.341l1.878,2.12-1.961,2.134H15.431V21.148H19.2V19.661H15.431V18.337h4.305Zm4.09,2.146,2.636-2.871v5.83Zm7.637-1.254c0,.631-.412.961-1.071.961H28.173V18.339h2.244c.615,0,1.044.261,1.044.892Zm7.665-.106a.788.788,0,0,1-.353.707,1.629,1.629,0,0,1-.848.15h-2.09V18.35h2.12a1.68,1.68,0,0,1,.82.131.694.694,0,0,1,.35.65Z" transform="translate(-12.173 -15.373)"/><path class="a" d="M62.238,20.046V15.387h-4.3a3.549,3.549,0,0,0-2.148.594v-.594h-4.7a3.224,3.224,0,0,0-2.051.594v-.594H40.64v.594a4.425,4.425,0,0,0-2.314-.594H32.789v.594a3.886,3.886,0,0,0-2.42-.594h-6.2l-1.413,1.555L21.43,15.387H12.173V25.54h9.082l1.461-1.578,1.376,1.578h5.6V23.157h.549a5.786,5.786,0,0,0,2.392-.353v2.74H37.25v-2.65h.224c.284,0,.313.012.313.3V25.54H51.815a3.968,3.968,0,0,0,2.337-.65v.65H58.6a5.9,5.9,0,0,0,2.517-.468v-.011a3.673,3.673,0,0,0,1.122-5.017ZM30.316,21.671H28.173v2.44H24.834L22.714,21.7l-2.191,2.408h-6.8V16.834h6.906l2.12,2.385,2.176-2.385h5.494c1.362,0,2.894.383,2.894,2.4s-1.495,2.44-3,2.44Zm10.335-.33a2.141,2.141,0,0,1,.284,1.328v1.442H39.211v-.917a2.173,2.173,0,0,0-.279-1.413c-.251-.261-.632-.323-1.26-.323H35.836v2.65H34.11V16.834h3.964a4.2,4.2,0,0,1,2.065.344,1.707,1.707,0,0,1,.883,1.615,2.037,2.037,0,0,1-1.217,1.943,1.883,1.883,0,0,1,.843.6Zm7.066-3h-4.03v1.323h3.924v1.484H43.687v1.447h4.021V24.1H41.977V16.834h5.731Zm4.374,5.771H48.738v-1.56h3.332a1,1,0,0,0,.707-.177.645.645,0,0,0,.2-.473.624.624,0,0,0-.21-.481.883.883,0,0,0-.624-.168C50.54,21.2,48.527,21.3,48.527,19a2.148,2.148,0,0,1,2.456-2.166h3.443v1.549H51.282a1.15,1.15,0,0,0-.689.131.613.613,0,0,0,.118,1.06,1.943,1.943,0,0,0,.668.083l.924.026a2.743,2.743,0,0,1,1.961.587,2.04,2.04,0,0,1,.514,1.542c0,1.57-.965,2.3-2.7,2.3Zm8.833-.707a2.9,2.9,0,0,1-2.134.707H55.47v-1.56h3.3a.968.968,0,0,0,.7-.177.641.641,0,0,0,.2-.473.6.6,0,0,0-.21-.481.86.86,0,0,0-.6-.168C57.247,21.2,55.235,21.3,55.235,19A2.155,2.155,0,0,1,57.7,16.834h3.357v1.549H57.986a1.177,1.177,0,0,0-.7.131.571.571,0,0,0-.251.53.548.548,0,0,0,.376.542,1.92,1.92,0,0,0,.661.083l.931.025a2.692,2.692,0,0,1,1.943.587.932.932,0,0,1,.159.177l-.058-.076a2.388,2.388,0,0,1-.138,3.03ZM19.736,18.341l1.878,2.12-1.961,2.134H15.431V21.148H19.2V19.661H15.431V18.337h4.305Zm4.09,2.146,2.636-2.871v5.83Zm7.637-1.254c0,.631-.412.961-1.071.961H28.173V18.339h2.244c.615,0,1.044.261,1.044.892Zm7.665-.106a.788.788,0,0,1-.353.707,1.629,1.629,0,0,1-.848.15h-2.09V18.35h2.12a1.68,1.68,0,0,1,.82.131.694.694,0,0,1,.35.65Z" transform="translate(-12.173 -15.373)"/></g></g></g><g transform="translate(910.056 618.536)"><g transform="translate(0 0)"><path class="n" d="M81.263,45.71a5.093,5.093,0,0,1-5.079,5.079H5.079A5.093,5.093,0,0,1,0,45.71V5.079A5.093,5.093,0,0,1,5.079,0h71.1a5.093,5.093,0,0,1,5.079,5.079Z"/><path class="c" d="M76.184.177a4.915,4.915,0,0,1,4.9,4.9V45.71a4.915,4.915,0,0,1-4.909,4.909H5.079a4.915,4.915,0,0,1-4.9-4.909V5.079a4.915,4.915,0,0,1,4.9-4.9h71.1m0-.177H5.079A5.093,5.093,0,0,0,0,5.079V45.71a5.093,5.093,0,0,0,5.079,5.079h71.1a5.093,5.093,0,0,0,5.079-5.079V5.079A5.093,5.093,0,0,0,76.184,0Z"/><g transform="translate(17.304 7.9)"><path class="o" d="M18.49,39.458h-8.7V10.315a5.844,5.844,0,0,1,5.839-5.842h8.54v29.3a5.688,5.688,0,0,1-5.683,5.688Z" transform="translate(-9.795 -4.471)"/><path class="p" d="M27.624,39.459h-8.7V10.316a5.844,5.844,0,0,1,5.844-5.844h8.54v29.3A5.688,5.688,0,0,1,27.624,39.459Z" transform="translate(-2.793 -4.472)"/><path class="q" d="M36.758,39.459h-8.7V10.316a5.844,5.844,0,0,1,5.844-5.844h8.54v29.3A5.688,5.688,0,0,1,36.758,39.459Z" transform="translate(4.209 -4.472)"/><path class="a" d="M17.978,18.077V11.2h5v6.877c0,2.963-2.226,4.658-7.22,4.658A23.637,23.637,0,0,1,9.8,22.011V19.538a11.6,11.6,0,0,0,5.008,1.307,2.827,2.827,0,0,0,3.169-2.768Z" transform="translate(-9.791 0.686)"/><path class="a" d="M18.929,12.914v8.068c.53.472,2.473,1.9,7.031,1.9a24.828,24.828,0,0,0,5.731-.724V19.682a11.41,11.41,0,0,1-5,1.311,3.964,3.964,0,0,1-4.457-4.042c0-2.558,1.639-4.053,4.462-4.053a10.667,10.667,0,0,1,5,1.313V11.738a22.8,22.8,0,0,0-5.731-.723C21.4,11.022,19.512,12.368,18.929,12.914Z" transform="translate(-2.793 0.544)"/><path class="a" d="M37.472,16.678V16.61a2.844,2.844,0,0,0,2.65-2.676c0-1.943-1.781-2.724-3.616-2.724H28.063v11.2h9.186c2.516,0,3.57-1.618,3.57-2.765a3.123,3.123,0,0,0-3.348-2.966Zm-6.561-3.743h3.012A1.394,1.394,0,0,1,35.472,14.3a1.346,1.346,0,0,1-1.438,1.479H30.911Zm3.374,7.649H30.909V17.51h3.4a1.525,1.525,0,0,1,1.569,1.539,1.54,1.54,0,0,1-1.6,1.537Z" transform="translate(4.209 0.693)"/></g></g></g><g transform="translate(1107.913 619.199)"><path class="b" d="M81.263,45.71a5.093,5.093,0,0,1-5.079,5.079H5.079A5.093,5.093,0,0,1,0,45.71V5.079A5.093,5.093,0,0,1,5.079,0h71.1a5.093,5.093,0,0,1,5.079,5.079Z"/><path class="c" d="M76.184.177a4.915,4.915,0,0,1,4.9,4.9V45.71a4.915,4.915,0,0,1-4.909,4.909H5.079a4.915,4.915,0,0,1-4.9-4.909V5.079a4.915,4.915,0,0,1,4.9-4.9h71.1m0-.177H5.079A5.093,5.093,0,0,0,0,5.079V45.71a5.093,5.093,0,0,0,5.079,5.079h71.1a5.093,5.093,0,0,0,5.079-5.079V5.079A5.093,5.093,0,0,0,76.184,0Z"/><g transform="translate(24.376 12.516)"><path class="r" d="M40.643,36.843A13.38,13.38,0,0,0,54.107,24.079,13.149,13.149,0,0,0,40.643,11.095H34.586A12.7,12.7,0,0,0,21.6,24.081,12.9,12.9,0,0,0,34.586,36.844h6.058Z" transform="translate(-21.598 -11.091)"/><path class="a" d="M37.148,30.8V16.852a7.464,7.464,0,0,1,0,13.944M27,23.823a7.485,7.485,0,0,1,4.8-6.971V30.8A7.485,7.485,0,0,1,27,23.825m7.469-11.787A11.787,11.787,0,1,0,46.26,23.825,11.787,11.787,0,0,0,34.474,12.038" transform="translate(-21.458 -10.967)"/></g></g></g></svg>